<svg id="Layer_1" data-name="Layer 1" xmlns="http://www.w3.org/2000/svg" viewBox="0 0 40 40"><g id="Doc_-_document_-_amend" data-name="Doc - document - amend"><path d="M9.87,21.73l.13.13V21.6Z" style="fill:#fff"/><rect width="40" height="40" style="fill:#e0bc80"/><line x1="5" y1="6.5" x2="35" y2="6.5" style="fill:none;stroke:#fff;stroke-miterlimit:10;stroke-width:3.200000047683716px"/><line x1="5" y1="13.5" x2="35" y2="13.5" style="fill:none;stroke:#fff;stroke-miterlimit:10;stroke-width:3.200000047683716px"/><line x1="5" y1="19.5" x2="20" y2="19.5" style="fill:none;stroke:#fff;stroke-miterlimit:10;stroke-width:3.200000047683716px"/><polygon points="40 0 40 19.14 21.17 0 40 0" style="fill:#c66e4e"/><path d="M35.1,4.35,31.34,8.12l-.65-.64c.07-.18,1.71-4.73,2.36-5.2s1.88,1.76,2,2Z" style="fill:#fff"/><path d="M37.36,6.6h0a2,2,0,0,1-.52.4h-.18a47.85,47.85,0,0,1-4.73,2h-.11l-.42-.43-.08-.06-.16-.17h0l1.92-1.91,1.56-1.57.56-.55h0a4.26,4.26,0,0,1,.75.48C36.63,5.43,37.58,6.19,37.36,6.6Z" style="fill:#fff"/><circle cx="35.13" cy="4.27" r="2.88" style="fill:#fff"/><path d="M35.31,4.58,31.56,8.34l-.08-.07a5.33,5.33,0,0,1-.42-.4h0l1.8-1.8,1.94-2L35,4.3h0Z" style="fill:#c66e4e"/><circle cx="35.13" cy="4.27" r="0.82" style="fill:#c66e4e"/></g></svg>