<svg xmlns="http://www.w3.org/2000/svg" viewBox="0 0 811.91 407.67"><defs><style>.cls-1{fill:#c66e4e;}.cls-2{fill:#2e2e3a;}.cls-3{font-size:163px;fill:#fff;font-family:MyriadPro-Semibold, Myriad Pro;font-weight:600;}.cls-4{font-size:81.31px;font-family:Carme;}</style></defs><g id="Layer_2" data-name="Layer 2"><g id="Layer_1-2" data-name="Layer 1"><rect class="cls-1" x="76.18" y="113.37" width="735.73" height="229.92"/><path class="cls-2" d="M370.76,3.34C367.87,26,344.87,53.6,344.87,53.6s-55.18,73.57-73.57,92-50.58,27.59-78.17,32.19S115,214.54,96.56,237.53a198.07,198.07,0,0,0-15.49,23h30.81v13.8H104v23h20.18V407.67H0V297.31H20.19v-23H12.28v-13.8H58.17c20.55-29.61,67.09-91.74,139.56-160.94,0,0,96.56-82.77,142.55-96.57C354.12-1.12,369.06-1,370.76,3.34Z"/><text class="cls-3" transform="translate(201.39 280.56)">e11054</text><text class="cls-4" transform="translate(528.31 74.27)">Jump to</text></g></g></svg>