<svg xmlns="http://www.w3.org/2000/svg" viewBox="0 0 1000 1000"><defs><style>.cls-1{fill:#acbea4;}.cls-2,.cls-4{fill:#fff;}.cls-2,.cls-3,.cls-5,.cls-6{stroke:#acbea4;stroke-miterlimit:10;stroke-width:9px;}.cls-3{fill:#f09d51;}.cls-5{fill:#f7cea8;}.cls-6{fill:#de4815;}</style></defs><g id="Layer_1" data-name="Layer 1"><circle class="cls-1" cx="500" cy="500" r="500"/></g><g id="Layer_2" data-name="Layer 2"><path class="cls-2" d="M322.05,418.91l144.27,66.3-154.66-36A171.71,171.71,0,0,1,322.05,418.91Z"/><path class="cls-3" d="M468.71,500.09l-314.9,50.68a379.77,379.77,0,0,1,4.45-126.41Z"/><polygon class="cls-4" points="504.29 503.74 503.83 503.49 503.96 503.47 504.29 503.74"/><path class="cls-5" d="M471.89,472.51,162.54,331.2a357.35,357.35,0,0,1,165-165.46Z"/><path class="cls-6" d="M639.48,234.24l-141,246.84L378.57,224.91a290.1,290.1,0,0,1,260.91,9.33Z"/><path class="cls-2" d="M702.68,243.2,519.77,472.63,665.31,217.91A335,335,0,0,1,702.68,243.2Z"/><path class="cls-3" d="M904.4,422.18,533.49,479.11,766.6,186.7A390.26,390.26,0,0,1,904.4,422.18Z"/><path class="cls-6" d="M262.1,809.51l206.56-259.1L325.16,849.33A381.48,381.48,0,0,1,262.1,809.51Z"/><path class="cls-2" d="M191.63,559.11l288.13-44.22L298.09,742.76A299.72,299.72,0,0,1,191.63,559.11Z"/><path class="cls-3" d="M630.36,846.41a362.23,362.23,0,0,1-284.17-10.23L498.52,518.89l.15-.32,0,.08Z"/><path class="cls-5" d="M802.56,574.84c-21.08,95.43-88,173.62-176.55,210.27l-108.45-270Z"/><path class="cls-6" d="M745.33,498.55a226.86,226.86,0,0,1-4.23,43.68L529.31,497.85l213.55-32.77A228,228,0,0,1,745.33,498.55Z"/><polygon class="cls-4" points="504.29 503.74 503.83 503.49 503.96 503.47 504.29 503.74"/></g></svg>