<svg xmlns="http://www.w3.org/2000/svg" viewBox="0 0 153 147"><defs><style>.cls-1{fill:#bbb8b2;}.cls-2,.cls-3{fill:none;}.cls-3{stroke:#de4815;stroke-miterlimit:10;stroke-width:11px;}.cls-4{fill:#fff;}.cls-5{fill:#de4815;}.cls-6{fill:#cbc0ad;}</style></defs><g id="Layer_1" data-name="Layer 1"><circle class="cls-1" cx="77" cy="74" r="65"/><line class="cls-2" x1="102.94" y1="80.15" x2="102.05" y2="78.34"/></g><g id="Layer_2" data-name="Layer 2"><line class="cls-3" x1="55.62" y1="95.71" x2="54.8" y2="98.53"/><path class="cls-4" d="M106.71,78l13,12h-86L46.58,78h60.13m1.56-4H45L28.68,89.15,28.33,94l0,0H125l-.36-.43,0-4.42L108.27,74Z"/><polygon class="cls-4" points="124.66 89.1 124.66 101.6 28.33 101.6 28.33 89.34 30.67 87.61 122.64 87.61 124.66 89.1"/><polygon class="cls-4" points="77.49 89.71 77.44 89.66 77.45 89.66 77.49 89.71"/><polygon class="cls-5" points="77.45 89.66 77.44 89.66 77.49 89.71 77.45 89.66 77.45 89.66"/><polygon class="cls-4" points="77.49 89.71 77.44 89.66 77.45 89.66 77.49 89.71"/><polygon class="cls-5" points="77.45 89.66 77.44 89.66 77.49 89.71 77.45 89.66 77.45 89.66"/><path class="cls-4" d="M104,45.8V73.42H48.88V45.8H104m4-4H44.88V77.42H108V41.8Z"/><rect class="cls-6" x="63.86" y="92.26" width="25.48" height="3.95"/></g></svg>