<svg xmlns="http://www.w3.org/2000/svg" viewBox="0 0 152 149"><defs><style>.cls-1{fill:#c66e4e;}.cls-2{fill:#fff;}</style></defs><g id="Layer_2" data-name="Layer 2"><circle class="cls-1" cx="77.12" cy="72.03" r="64.94"/><polygon class="cls-2" points="121.16 101.58 102.18 120.55 94.83 113.2 106.45 101.58 94.83 89.95 102.18 82.6 103.09 83.51 113.69 94.11 117.38 97.8 121.16 101.58"/><path class="cls-2" d="M71.92,101.9a12.26,12.26,0,0,1-.27,2.6,12.67,12.67,0,0,1-.81,2.6c-.1.22-.2.43-.31.65a12.26,12.26,0,0,1-1.22,2A13,13,0,1,1,51.14,91.53a12.76,12.76,0,0,1,5.2-2.35,13.12,13.12,0,0,1,6.49.33A13.15,13.15,0,0,1,68,92.64a12.81,12.81,0,0,1,1.29,1.47,12.18,12.18,0,0,1,1.51,2.6,4.06,4.06,0,0,1,.27.65,11.24,11.24,0,0,1,.56,2A13.08,13.08,0,0,1,71.92,101.9Z"/><path class="cls-2" d="M74.3,99.31a12.92,12.92,0,0,0-.68-2.6H70.83a12.18,12.18,0,0,0-1.51-2.6A12.81,12.81,0,0,0,68,92.64a13.15,13.15,0,0,0-5.2-3.13,13,13,0,1,0,6.48,20.19,12.26,12.26,0,0,0,1.22-2c.11-.22.21-.43.31-.65h2.78a14.86,14.86,0,0,0,.68-2.6,16.2,16.2,0,0,0,.22-2.6A14.76,14.76,0,0,0,74.3,99.31ZM65.82,109.7a10.41,10.41,0,0,1-13.74,0,8.34,8.34,0,0,1-.94-.94,10.34,10.34,0,0,1,0-13.71,8.34,8.34,0,0,1,.94-.94,10.7,10.7,0,0,1,4.26-2.27,10.56,10.56,0,0,1,2.59-.33,10.45,10.45,0,0,1,6.86,2.6A9.61,9.61,0,0,1,67,95.41a7.67,7.67,0,0,1,.89,1.3,10.2,10.2,0,0,1,.75,1.56,9,9,0,0,1,.32,1,10.1,10.1,0,0,1,.32,2.59,10.24,10.24,0,0,1-.33,2.6,9.49,9.49,0,0,1-.77,2.08,5.29,5.29,0,0,1-.29.52A10.47,10.47,0,0,1,65.82,109.7Z"/><rect class="cls-2" x="53.74" y="96.71" width="61.04" height="10.39"/><path class="cls-2" d="M113.69,94.11H99l2.6,2.6H70.83a12.18,12.18,0,0,0-1.51-2.6H51.14V109.7H69.31a12.26,12.26,0,0,0,1.22-2c.11-.22.21-.43.31-.65h30.1l-2.6,2.6H113l4.34-4.34V97.8Zm-1.51,10.39H56.34V99.31h55.84Z"/><path class="cls-2" d="M103.74,34.37a4.73,4.73,0,0,1,.65,0v0Z"/><path class="cls-2" d="M113.48,44.11a9.74,9.74,0,0,1-9.74,9.74,4.73,4.73,0,0,1-.65,0,9.35,9.35,0,0,1-5.19-1.93,9.52,9.52,0,0,1-2.76-3.22,9.09,9.09,0,0,1-.94-2.6H60a9.11,9.11,0,0,1-.95,2.6,9.48,9.48,0,0,1-3.77,3.89,9.17,9.17,0,0,1-4.18,1.26,4.73,4.73,0,0,1-.65,0,9.73,9.73,0,0,1-3.24-18.91l2.59-.53.65,0h53.25a4.73,4.73,0,0,1,.65,0l2.6.53A9.73,9.73,0,0,1,113.48,44.11Z"/><path class="cls-2" d="M104.39,34.37v0a4.73,4.73,0,0,0-.65,0Z"/><path class="cls-2" d="M56.34,55V83.94a15.42,15.42,0,0,0-5.2,1.87V56.43A12.49,12.49,0,0,0,56.34,55Z"/><path class="cls-2" d="M68,48.66v38a15.41,15.41,0,0,0-5.2-2.44V48.66Z"/><rect class="cls-2" x="74.52" y="48.66" width="5.19" height="42.86"/><rect class="cls-2" x="86.21" y="48.66" width="5.19" height="42.86"/><path class="cls-2" d="M103.09,56.43V75.24L97.9,80.42V55A12.44,12.44,0,0,0,103.09,56.43Z"/><circle class="cls-1" cx="103.74" cy="44.11" r="4.5"/><circle class="cls-1" cx="50.49" cy="44.11" r="4.5"/></g></svg>