<svg xmlns="http://www.w3.org/2000/svg" viewBox="0 0 152 149"><defs><style>.cls-1{fill:#e0bc80;}.cls-2{fill:#f09d51;}.cls-3{fill:#143642;}.cls-4{fill:#c66e4e;}.cls-5{fill:#820933;}</style></defs><g id="Layer_2" data-name="Layer 2"><circle class="cls-1" cx="77.12" cy="72.03" r="64.94"/><rect class="cls-2" x="50" y="39.37" width="14.65" height="71.63"/><rect class="cls-3" x="50" y="39.32" width="14.7" height="7.68"/><rect class="cls-3" x="50" y="53" width="14.7" height="43"/><rect class="cls-3" x="50" y="102" width="14.7" height="8.98"/><rect class="cls-2" x="64" y="28" width="19" height="83"/><rect class="cls-4" x="64" y="28.14" width="19" height="11.15"/><rect class="cls-4" x="64" y="45" width="19" height="47"/><rect class="cls-4" x="64" y="98.23" width="19" height="12.74"/><rect class="cls-2" x="88.57" y="46.01" width="19.79" height="63.58" transform="translate(-12.73 19.63) rotate(-10.7)"/><rect class="cls-5" x="83.28" y="46.48" width="19.6" height="6.64" transform="translate(-7.63 18.14) rotate(-10.7)"/><rect class="cls-5" x="88.42" y="58.72" width="19.6" height="36.67" transform="translate(-12.6 19.57) rotate(-10.7)"/><rect class="cls-5" x="93.71" y="100.98" width="19.6" height="8.13" transform="translate(-17.7 21.04) rotate(-10.7)"/></g></svg>