<svg id="Layer_1" data-name="Layer 1" xmlns="http://www.w3.org/2000/svg" xmlns:xlink="http://www.w3.org/1999/xlink" viewBox="0 0 1000 1000"><defs><style>.cls-1{fill:#6d6d75;}.cls-2{clip-path:url(#clip-path);}.cls-3{fill:#f09d51;}.cls-4{fill:#f34213;}.cls-5{fill:#f7cea8;}.cls-6{fill:#de4815;}</style><clipPath id="clip-path"><circle class="cls-1" cx="500" cy="500" r="500"/></clipPath></defs><circle class="cls-1" cx="500" cy="500" r="500"/><g class="cls-2"><rect class="cls-3" x="179" y="537" width="667" height="184"/><rect class="cls-4" x="-41" y="696" width="379" height="61" transform="translate(-578 875) rotate(-90)"/><rect class="cls-4" x="668" y="696" width="379" height="61" transform="translate(131 1584) rotate(-90)"/><rect class="cls-3" x="87" y="457" width="833" height="61"/><polygon class="cls-5" points="920 457 87 457 319 396 701 396 920 457"/><rect class="cls-6" x="460.5" y="624.5" width="155" height="14" transform="translate(1169.5 93.5) rotate(90)"/><rect class="cls-6" x="591" y="578" width="196" height="14"/><rect class="cls-6" x="591" y="619" width="196" height="14"/><rect class="cls-6" x="591" y="662" width="196" height="14"/><rect class="cls-3" x="369" y="344" width="261" height="89"/><rect class="cls-6" x="448" y="378" width="105" height="14"/><polygon class="cls-5" points="629 344 370 344 442.13 331.39 560.91 331.39 629 344"/><rect class="cls-4" x="462" y="271" width="77" height="67"/><rect class="cls-4" x="483" y="253" width="34" height="34"/><rect class="cls-4" x="477" y="246" width="46" height="13"/><path class="cls-4" d="M496,266s-10-58,27-95,86-57,86-57-22,69-43,76-54,35-56,40S496,266,496,266Z"/></g></svg>