<svg xmlns="http://www.w3.org/2000/svg" viewBox="0 0 151 154"><defs><style>.cls-1{fill:#ff7f11;}.cls-2,.cls-4{fill:#fff;}.cls-2{stroke:#ff7f11;stroke-miterlimit:10;stroke-width:2px;}.cls-3{fill:none;}</style></defs><g id="Layer_1" data-name="Layer 1"><circle class="cls-1" cx="74" cy="77" r="65"/><polygon class="cls-2" points="84.84 52.44 64.81 52.44 74.98 32.41 84.84 52.44"/><polygon class="cls-2" points="91.96 66.89 57.48 66.89 63.89 54.25 85.73 54.25 91.96 66.89"/><polygon class="cls-2" points="99.08 81.34 50.14 81.34 56.56 68.7 92.85 68.7 99.08 81.34"/><polygon class="cls-2" points="106.19 95.8 42.8 95.8 49.22 83.16 99.97 83.16 106.19 95.8"/><polygon class="cls-2" points="113.15 109.93 35.63 109.93 41.88 97.61 107.09 97.61 113.15 109.93"/><line class="cls-3" x1="57.48" y1="66.89" x2="56.56" y2="68.7"/><line class="cls-3" x1="50.14" y1="81.34" x2="49.22" y2="83.16"/><line class="cls-3" x1="99.97" y1="83.16" x2="99.08" y2="81.34"/></g><g id="Layer_2" data-name="Layer 2"><polygon class="cls-4" points="74.56 77.48 74.5 77.45 74.51 77.45 74.56 77.48"/><polygon class="cls-4" points="74.56 77.48 74.5 77.45 74.51 77.45 74.56 77.48"/></g></svg>