<svg xmlns="http://www.w3.org/2000/svg" viewBox="0 0 1000 1000"><defs><style>.cls-1{fill:#e0bc80;}.cls-2{fill:#ffa75b;}.cls-3{fill:#f09d51;}.cls-4{fill:#143642;}.cls-5{fill:#c66e4e;}.cls-6{fill:#820933;}</style></defs><g id="Layer_2" data-name="Layer 2"><circle class="cls-1" cx="500" cy="500" r="500"/><line class="cls-2" x1="372.54" y1="422" x2="365.43" y2="436"/><line class="cls-2" x1="315.94" y1="533.5" x2="308.83" y2="547.5"/><line class="cls-2" x1="700.33" y1="547.5" x2="693.44" y2="533.5"/><polygon class="cls-2" points="504.29 503.74 503.83 503.49 503.96 503.47 504.29 503.74"/><rect class="cls-3" x="288" y="227.38" width="122.2" height="597.69"/><rect class="cls-4" x="288" y="226.96" width="122.65" height="80.49"/><rect class="cls-4" x="288" y="330.45" width="122.65" height="379.44"/><rect class="cls-4" x="288" y="732.89" width="122.65" height="91.99"/><rect class="cls-3" x="288" y="288" width="123" height="8"/><rect class="cls-3" x="410.06" y="134.16" width="162.45" height="690.91"/><rect class="cls-5" x="410.06" y="133.68" width="163.05" height="93.04"/><rect class="cls-5" x="410.06" y="253.31" width="163.05" height="438.62"/><rect class="cls-5" x="410.06" y="718.51" width="163.05" height="106.33"/><rect class="cls-3" x="410" y="204" width="163" height="9.51"/><rect class="cls-3" x="618.17" y="283.06" width="162.45" height="530.47" transform="translate(-89.62 139.35) rotate(-10.7)"/><rect class="cls-6" x="575.49" y="286.63" width="163.05" height="71.44" transform="translate(-48.41 127.55) rotate(-10.7)"/><rect class="cls-6" x="617.17" y="374.57" width="163.05" height="336.77" transform="translate(-88.64 139.12) rotate(-10.7)"/><rect class="cls-6" x="659.79" y="727.76" width="163.05" height="81.64" transform="translate(-129.78 150.95) rotate(-10.7)"/><rect class="cls-3" x="578.47" y="334.57" width="163.34" height="9.39" transform="matrix(0.98, -0.19, 0.19, 0.98, -51.5, 128.43)"/><path class="cls-3" d="M496.3,307.5c1.59,6.81,2.6,13.63,3.49,20.44s1.48,13.62,1.94,20.44.76,13.62.89,20.43a193.64,193.64,0,0,1-.45,20.44c-1,13.63-3.62,27.25-4.09,40.88a267.57,267.57,0,0,0,1.8,40.87c.73,6.81,1.52,13.63,2.06,20.44s.82,13.62,1.12,20.44c.62,13.62,1.24,27.25,1,40.87s-1,27.25-2.23,40.88c-.6,6.81-1.32,13.62-2.21,20.43s-1.91,13.63-3.31,20.44h-1.6c-1.4-6.81-2.41-13.62-3.31-20.44s-1.61-13.62-2.21-20.43q-1.81-20.45-2.23-40.88c-.25-13.62.37-27.25,1-40.87.3-6.82.56-13.63,1.12-20.44s1.33-13.63,2.06-20.44a267.57,267.57,0,0,0,1.8-40.87c-.47-13.63-3.06-27.25-4.09-40.88a193.64,193.64,0,0,1-.45-20.44q.19-10.21.89-20.43c.46-6.82,1.08-13.63,1.94-20.44s1.9-13.63,3.49-20.44Z"/><path class="cls-3" d="M678.29,426.35a108.39,108.39,0,0,1,6.14,13.56c1.75,4.58,3.27,9.2,4.63,13.86s2.56,9.33,3.6,14.05a98.32,98.32,0,0,1,2.27,14.3c.8,9.67.07,19.64,1.41,29.21a118.92,118.92,0,0,0,2.84,14.2c1.19,4.68,2.77,9.29,4.37,13.9s3.31,9.19,4.74,13.83,2.62,9.33,3.82,14c2.41,9.36,4.86,18.72,6.41,28.25q1.18,7.14,2,14.36t1.29,14.5c.32,4.85.52,9.72.55,14.63s-.07,9.84-.53,14.84l-1.58.3c-2.28-4.48-4.18-9-6-13.6s-3.39-9.17-4.89-13.8-2.88-9.27-4.14-14-2.46-9.35-3.48-14.07c-2.07-9.43-3.25-19-4.47-28.62-.61-4.8-1.26-9.59-1.61-14.43s-.51-9.73-.7-14.61-.44-9.74-1.06-14.53a120.09,120.09,0,0,0-2.61-14.24c-2.28-9.39-6.63-18.39-9.46-27.67a98.38,98.38,0,0,1-3.17-14.13q-1.15-7.15-1.83-14.39c-.46-4.83-.75-9.68-.81-14.59a108.33,108.33,0,0,1,.7-14.87Z"/><path class="cls-3" d="M354.2,671a172.41,172.41,0,0,1-3.49-18.53c-.86-6.18-1.48-12.36-1.94-18.53s-.76-12.36-.89-18.53a159.19,159.19,0,0,1,.45-18.53c1-12.36,3.62-24.71,4.09-37.07a220.22,220.22,0,0,0-1.8-37.06c-.73-6.18-1.52-12.35-2.06-18.53s-.82-12.36-1.12-18.53c-.62-12.36-1.24-24.71-1-37.06s1-24.71,2.23-37.07c.6-6.17,1.32-12.35,2.21-18.53s1.91-12.35,3.31-18.53h1.6c1.4,6.18,2.41,12.35,3.31,18.53s1.61,12.36,2.21,18.53q1.81,18.54,2.23,37.07c.25,12.35-.37,24.7-1,37.06-.3,6.17-.56,12.35-1.12,18.53s-1.33,12.35-2.06,18.53a220.22,220.22,0,0,0-1.8,37.06c.47,12.36,3.06,24.71,4.09,37.07a159.19,159.19,0,0,1,.45,18.53q-.19,9.26-.89,18.53c-.46,6.17-1.08,12.35-1.94,18.53A172.41,172.41,0,0,1,355.8,671Z"/></g></svg>