<svg xmlns="http://www.w3.org/2000/svg" viewBox="0 0 153 147"><defs><style>.cls-1{fill:#bbb8b2;}.cls-2,.cls-3{fill:none;}.cls-3{stroke:#de4815;stroke-miterlimit:10;stroke-width:11px;}.cls-4{fill:#de4815;}.cls-5{fill:#fff;}.cls-6{fill:#f09d51;}</style></defs><g id="Layer_1" data-name="Layer 1"><circle class="cls-1" cx="77" cy="74" r="65"/><line class="cls-2" x1="102.94" y1="80.15" x2="102.05" y2="78.34"/></g><g id="Layer_2" data-name="Layer 2"><line class="cls-3" x1="55.62" y1="93.71" x2="54.8" y2="96.53"/><polygon class="cls-4" points="125.02 87.36 28.3 87.36 28.33 87.34 30.68 85.61 45.01 75.07 108.27 75.07 122.64 85.61 124.66 87.1 125.02 87.36"/><polygon class="cls-5" points="68.32 77.87 68.16 85.61 36.73 85.61 46.84 77.87 68.32 77.87"/><polygon class="cls-6" points="124.66 87.1 124.66 99.6 28.33 99.6 28.33 87.34 30.67 85.61 122.64 85.61 124.66 87.1"/><polygon class="cls-5" points="77.49 87.71 77.44 87.66 77.45 87.66 77.49 87.71"/><polygon class="cls-4" points="77.45 87.66 77.44 87.66 77.49 87.71 77.45 87.66 77.45 87.66"/><polygon class="cls-5" points="77.49 87.71 77.44 87.66 77.45 87.66 77.49 87.71"/><polygon class="cls-4" points="77.45 87.66 77.44 87.66 77.49 87.71 77.45 87.66 77.45 87.66"/><rect class="cls-4" x="46.88" y="41.8" width="59.07" height="31.62"/><path class="cls-6" d="M104,43.8V71.42H48.88V43.8H104m4-4H44.88V75.42H108V39.8Z"/><rect class="cls-4" x="63.86" y="92.26" width="25.48" height="3.95"/></g></svg>