<svg xmlns="http://www.w3.org/2000/svg" viewBox="0 0 1000 1000"><defs><style>.cls-1{fill:#820933;}.cls-2{fill:#fff;}.cls-3{fill:#de4815;}.cls-4{fill:#f7cea8;}.cls-5{fill:#c66e4e;}</style></defs><g id="Layer_1" data-name="Layer 1"><circle class="cls-1" cx="500" cy="500" r="500"/></g><g id="Layer_2" data-name="Layer 2"><rect class="cls-2" x="200" y="290" width="570" height="468"/><rect class="cls-3" x="200" y="290" width="570" height="115"/><rect class="cls-4" x="212.5" y="275.5" width="67" height="30" transform="translate(-44.5 536.5) rotate(-90)"/><rect class="cls-4" x="293.5" y="275.5" width="67" height="30" transform="translate(36.5 617.5) rotate(-90)"/><rect class="cls-4" x="372.5" y="275.5" width="67" height="30" transform="translate(115.5 696.5) rotate(-90)"/><rect class="cls-4" x="452.5" y="275.5" width="67" height="30" transform="translate(195.5 776.5) rotate(-90)"/><rect class="cls-4" x="532.5" y="275.5" width="67" height="30" transform="translate(275.5 856.5) rotate(-90)"/><rect class="cls-4" x="611.5" y="275.5" width="67" height="30" transform="translate(354.5 935.5) rotate(-90)"/><rect class="cls-4" x="691.5" y="275.5" width="67" height="30" transform="translate(434.5 1015.5) rotate(-90)"/><rect class="cls-4" x="231" y="433" width="82" height="82"/><rect class="cls-5" x="342" y="433" width="82" height="82"/><rect class="cls-4" x="450" y="433" width="82" height="82"/><rect class="cls-4" x="556" y="433" width="82" height="82"/><rect class="cls-4" x="660" y="433" width="82" height="82"/><rect class="cls-4" x="231" y="543" width="82" height="82"/><rect class="cls-4" x="342" y="543" width="82" height="82"/><rect class="cls-4" x="450" y="543" width="82" height="82"/><rect class="cls-5" x="556" y="543" width="82" height="82"/><rect class="cls-4" x="660" y="543" width="82" height="82"/><rect class="cls-4" x="231" y="648" width="82" height="82"/><rect class="cls-4" x="342" y="648" width="82" height="82"/><rect class="cls-4" x="450" y="648" width="82" height="82"/></g></svg>