<svg id="Layer_1" data-name="Layer 1" xmlns="http://www.w3.org/2000/svg" xmlns:xlink="http://www.w3.org/1999/xlink" viewBox="0 0 165 170"><defs><style>.cls-1{fill:#6d6d75;}.cls-2{clip-path:url(#clip-path);}.cls-3{fill:#fff;}.cls-4{fill:#797c7e;}</style><clipPath id="clip-path"><circle class="cls-1" cx="82" cy="83" r="65"/></clipPath></defs><circle class="cls-1" cx="82" cy="83" r="65"/><g class="cls-2"><rect class="cls-3" x="40.27" y="84.43" width="86.71" height="27.3"/><rect class="cls-4" x="36.76" y="84.97" width="90.22" height="3.95"/><rect class="cls-3" x="10.25" y="107.06" width="52.11" height="7.93" transform="translate(-74.72 147.33) rotate(-90)"/><rect class="cls-3" x="102.28" y="106.92" width="52.39" height="7.93" transform="translate(17.59 239.36) rotate(-90)"/><rect class="cls-3" x="28.31" y="77.41" width="108.29" height="7.93"/><rect class="cls-4" x="93.83" y="96.85" width="25.48" height="3.95"/><rect class="cls-3" x="76.06" y="66.58" width="13.29" height="11.42"/><path class="cls-3" d="M82.35,67.33s-2-9.76,4.13-16.22A51.25,51.25,0,0,1,101,41s-3.41,11.79-7,13.09-9.12,6.22-9.43,7.07S82.35,67.33,82.35,67.33Z"/></g></svg>