<svg xmlns="http://www.w3.org/2000/svg" viewBox="0 0 1000 1000"><defs><style>.cls-1{fill:#ff7f11;}.cls-2{fill:#fff;}.cls-3{fill:#f7cea8;}.cls-4{fill:#f09d51;}.cls-5{fill:#c66e4e;}.cls-6{fill:#de4815;}.cls-7{fill:none;}</style></defs><g id="Layer_1" data-name="Layer 1"><circle class="cls-1" cx="500" cy="500" r="500"/><polygon class="cls-2" points="583.64 310.5 429.14 310.5 507.57 156 583.64 310.5"/><polygon class="cls-3" points="638.54 422 372.54 422 422.03 324.5 590.53 324.5 638.54 422"/><polygon class="cls-4" points="693.44 533.5 315.94 533.5 365.43 436 645.43 436 693.44 533.5"/><polygon class="cls-5" points="748.33 645 259.33 645 308.83 547.5 700.33 547.5 748.33 645"/><polygon class="cls-6" points="802 754 204 754 252.23 659 755.23 659 802 754"/><line class="cls-7" x1="372.54" y1="422" x2="365.43" y2="436"/><line class="cls-7" x1="315.94" y1="533.5" x2="308.83" y2="547.5"/><line class="cls-7" x1="700.33" y1="547.5" x2="693.44" y2="533.5"/></g><g id="Layer_2" data-name="Layer 2"><polygon class="cls-2" points="504.29 503.74 503.83 503.49 503.96 503.47 504.29 503.74"/><polygon class="cls-2" points="504.29 503.74 503.83 503.49 503.96 503.47 504.29 503.74"/></g></svg>