<svg xmlns="http://www.w3.org/2000/svg" viewBox="0 0 152 149"><defs><style>.cls-1{fill:#820933;}.cls-2{fill:#fff;}.cls-3{fill:#de4815;}.cls-4{fill:#f7cea8;}</style></defs><g id="Layer_1" data-name="Layer 1"><circle class="cls-1" cx="77" cy="72" r="65"/></g><g id="Layer_2" data-name="Layer 2"><rect class="cls-2" x="37.17" y="44.12" width="75.68" height="62.14"/><rect class="cls-3" x="37.17" y="44.12" width="75.68" height="15.27"/><rect class="cls-4" x="45.58" y="41.19" width="8.9" height="6" transform="translate(5.85 94.22) rotate(-90)"/><rect class="cls-4" x="62.69" y="41.19" width="8.9" height="6" transform="translate(22.96 111.33) rotate(-90)"/><rect class="cls-4" x="79.31" y="41.19" width="8.9" height="6" transform="translate(39.58 127.95) rotate(-90)"/><rect class="cls-4" x="95.42" y="41.19" width="8.9" height="6" transform="translate(55.69 144.06) rotate(-90)"/><rect class="cls-4" x="41.29" y="66.1" width="13.51" height="13.51"/><rect class="cls-4" x="59.58" y="66.1" width="13.51" height="13.51"/><rect class="cls-4" x="77.37" y="66.1" width="13.51" height="13.51"/><rect class="cls-4" x="94.84" y="66.1" width="13.51" height="13.51"/><rect class="cls-4" x="41.29" y="84.23" width="13.51" height="13.51"/><rect class="cls-4" x="59.58" y="84.23" width="13.51" height="13.51"/><rect class="cls-4" x="77.37" y="84.23" width="13.51" height="13.51"/></g></svg>