<svg xmlns="http://www.w3.org/2000/svg" viewBox="0 0 152 149"><defs><style>.cls-1{fill:#c66e4e;}.cls-2{fill:#f7cea8;}.cls-3{fill:#e2e8ce;}.cls-4{fill:#bbb8b2;}</style></defs><g id="Layer_2" data-name="Layer 2"><circle class="cls-1" cx="77.12" cy="72.03" r="64.94"/><path class="cls-2" d="M121.16,101.58l-3.78,3.78L113,109.7l-10.86,10.85-7.35-7.35,3.51-3.5,2.6-2.6H70.84c-.1.22-.2.43-.31.65a12.26,12.26,0,0,1-1.22,2A13,13,0,1,1,51.14,91.53a12.76,12.76,0,0,1,5.2-2.35,13.12,13.12,0,0,1,6.49.33A13.15,13.15,0,0,1,68,92.64a12.81,12.81,0,0,1,1.29,1.47,12.18,12.18,0,0,1,1.51,2.6h30.76L99,94.11,94.83,90l7.35-7.35Z"/><path class="cls-3" d="M103.74,34.37a4.73,4.73,0,0,1,.65,0v0Z"/><path class="cls-3" d="M113.48,44.11a9.74,9.74,0,0,1-9.74,9.74,4.73,4.73,0,0,1-.65,0,9.35,9.35,0,0,1-5.19-1.93,9.52,9.52,0,0,1-2.76-3.22,9.09,9.09,0,0,1-.94-2.6H60a9.11,9.11,0,0,1-.95,2.6,9.48,9.48,0,0,1-3.77,3.89,9.17,9.17,0,0,1-4.18,1.26,4.73,4.73,0,0,1-.65,0,9.73,9.73,0,0,1-3.24-18.91l2.59-.53.65,0h53.25a4.73,4.73,0,0,1,.65,0l2.6.53A9.73,9.73,0,0,1,113.48,44.11Z"/><path class="cls-3" d="M104.39,34.37v0a4.73,4.73,0,0,0-.65,0Z"/><path class="cls-3" d="M56.34,55V83.94a15.42,15.42,0,0,0-5.2,1.87V56.43A12.49,12.49,0,0,0,56.34,55Z"/><path class="cls-3" d="M68,48.66v38a15.41,15.41,0,0,0-5.2-2.44V48.66Z"/><rect class="cls-3" x="74.52" y="48.66" width="5.19" height="42.86"/><rect class="cls-3" x="86.21" y="48.66" width="5.19" height="42.86"/><path class="cls-3" d="M103.09,56.43V75.24L97.9,80.42V55A12.44,12.44,0,0,0,103.09,56.43Z"/><circle class="cls-4" cx="103.74" cy="44.11" r="4.5"/><circle class="cls-4" cx="50.49" cy="44.11" r="4.5"/></g></svg>