<svg xmlns="http://www.w3.org/2000/svg" viewBox="0 0 161 160"><defs><style>.cls-1{fill:#acbea4;}.cls-2{fill:#fff;}.cls-3{fill:#f7cea8;}.cls-4{fill:#de4815;}.cls-5{fill:#f09d51;}</style></defs><g id="Layer_1" data-name="Layer 1"><circle class="cls-1" cx="80" cy="85" r="65"/></g><g id="Layer_2" data-name="Layer 2"><polygon class="cls-2" points="80.55 85.48 80.49 85.45 80.5 85.44 80.55 85.48"/><path class="cls-3" d="M77.39,82.41,34.78,74A45.59,45.59,0,0,1,50.41,48.53Z"/><path class="cls-4" d="M97.82,49.05l-18,31.53L64.49,47.86a37.06,37.06,0,0,1,33.33,1.19Z"/><path class="cls-5" d="M129.66,76.06,82.28,83.33,112.06,46A49.85,49.85,0,0,1,129.66,76.06Z"/><path class="cls-4" d="M48.92,119.86l28-31.73L56.71,125.34A49.59,49.59,0,0,1,48.92,119.86Z"/><path class="cls-2" d="M40.1,85l37.24-.22-27.2,25.41A38.34,38.34,0,0,1,40.1,85Z"/><path class="cls-5" d="M96.65,129.25a46.23,46.23,0,0,1-36.3-1.31L79.81,87.41l0,0h0Z"/><path class="cls-3" d="M120,91.41a38,38,0,0,1-20.78,28.25l-16-33.53Z"/><polygon class="cls-2" points="80.55 85.48 80.49 85.45 80.5 85.44 80.55 85.48"/></g></svg>