<svg id="Layer_1" data-name="Layer 1" xmlns="http://www.w3.org/2000/svg" xmlns:xlink="http://www.w3.org/1999/xlink" viewBox="0 0 165 170"><defs><style>.cls-1{fill:#6d6d75;}.cls-2{clip-path:url(#clip-path);}.cls-3{fill:#f09d51;}.cls-4{fill:#de4815;}</style><clipPath id="clip-path"><circle class="cls-1" cx="82" cy="83" r="65"/></clipPath></defs><circle class="cls-1" cx="82" cy="83" r="65"/><g class="cls-2"><rect class="cls-3" x="40.27" y="84.43" width="86.71" height="27.3"/><rect class="cls-4" x="36.76" y="84.97" width="90.22" height="3.95"/><rect class="cls-4" x="10.25" y="107.06" width="52.11" height="7.93" transform="translate(-74.72 147.33) rotate(-90)"/><rect class="cls-4" x="102.28" y="106.92" width="52.39" height="7.93" transform="translate(17.59 239.36) rotate(-90)"/><rect class="cls-3" x="28.31" y="77.41" width="108.29" height="7.93"/><rect class="cls-4" x="77.56" y="99.28" width="16.78" height="3.95" transform="translate(187.2 15.31) rotate(90)"/><rect class="cls-4" x="93.83" y="96.85" width="25.48" height="3.95"/><rect class="cls-3" x="64.97" y="66.72" width="33.93" height="11.57"/><rect class="cls-4" x="75.24" y="70.11" width="13.65" height="3.95"/><rect class="cls-4" x="77.06" y="58.23" width="10.01" height="8.77"/><rect class="cls-4" x="79.04" y="54.89" width="5.92" height="4.42"/><rect class="cls-4" x="79.01" y="53.98" width="5.98" height="1.69"/><path class="cls-4" d="M81.8,55.81s-1.54-7.5,3.11-12.46a38.59,38.59,0,0,1,10.94-7.76s-2.57,9-5.27,10-6.87,4.77-7.11,5.43S81.8,55.81,81.8,55.81Z"/></g></svg>