<svg xmlns="http://www.w3.org/2000/svg" viewBox="0 0 1000 1000"><defs><style>.cls-1{fill:#bbb8b2;}.cls-2,.cls-3{fill:none;}.cls-3{stroke:#de4815;stroke-miterlimit:10;stroke-width:11px;}.cls-4{fill:#de4815;}.cls-5{fill:#f09d51;}.cls-6{fill:#f7cea8;}.cls-7{fill:#fff;}</style></defs><g id="Layer_1" data-name="Layer 1"><circle class="cls-1" cx="500" cy="500" r="500"/><line class="cls-2" x1="700.33" y1="492.5" x2="693.44" y2="478.5"/></g><g id="Layer_2" data-name="Layer 2"><line class="cls-3" x1="334.93" y1="643.53" x2="328.55" y2="665.32"/><polygon class="cls-4" points="145.32 587.51 255.29 506.57 739.18 506.57 849.44 587.51 145.32 587.51"/><path class="cls-5" d="M736.88,513.57l91.19,66.94H166.64l90.95-66.94H736.88m4.59-14H253L142.36,581l-18.17,13.37-.19.14H870.81L868,592.45,852.4,581,741.47,499.57Z"/><rect class="cls-6" x="378" y="521" width="55" height="68"/><polygon class="cls-7" points="433 521.19 424 581 189.07 581 267.13 521.19 433 521.19"/><polygon class="cls-5" points="868 595.1 868 714 124.19 714 124.19 597.47 142.29 581 852.4 581 868 595.1"/><polygon class="cls-7" points="503.79 597.21 503.38 596.83 503.49 596.8 503.79 597.21"/><polygon class="cls-4" points="503.49 596.8 503.38 596.83 503.79 597.21 503.49 596.8 503.49 596.8"/><polygon class="cls-7" points="503.79 597.21 503.38 596.83 503.49 596.8 503.79 597.21"/><polygon class="cls-4" points="503.49 596.8 503.38 596.83 503.79 597.21 503.49 596.8 503.49 596.8"/><rect class="cls-4" x="260" y="243" width="471" height="259"/><path class="cls-5" d="M723,251V494H268V251H723m16-16H252V510H739V235Z"/><rect class="cls-7" x="294" y="627" width="67" height="30"/><rect class="cls-7" x="637" y="627" width="67" height="30"/><path class="cls-4" d="M571.2,673V611.49h-21V652H449.8V611.49h-21V673Z"/><rect class="cls-4" x="449.8" y="235" width="100.4" height="0.01"/></g></svg>