<svg xmlns="http://www.w3.org/2000/svg" viewBox="0 0 1000 1000"><defs><style>.cls-1{fill:#143642;}.cls-2,.cls-5,.cls-7{fill:none;}.cls-3{fill:#f09d51;}.cls-4{fill:#e1e8de;}.cls-5,.cls-7{stroke:#f09d51;stroke-miterlimit:10;}.cls-5{stroke-width:26px;}.cls-6{fill:#fff;}.cls-7{stroke-width:14px;}.cls-8{fill:#de4815;}.cls-9{fill:#6d6d75;}</style></defs><g id="Layer_2" data-name="Layer 2"><circle class="cls-1" cx="500" cy="500" r="500"/><line class="cls-2" x1="372.54" y1="422" x2="365.43" y2="436"/><line class="cls-2" x1="315.94" y1="533.5" x2="308.83" y2="547.5"/><line class="cls-2" x1="700.33" y1="547.5" x2="693.44" y2="533.5"/><circle class="cls-3" cx="500" cy="500" r="348.29"/><circle class="cls-4" cx="500" cy="500" r="300.35"/><circle class="cls-5" cx="501" cy="125.18" r="39.82"/><path class="cls-6" d="M609.05,257.83a285,285,0,0,0-89.83-14.42c-148.86,0-270.73,113.74-280.89,257.76a250.22,250.22,0,0,1,93-213.69C409,224.74,525.45,213.22,609.05,257.83Z"/><line class="cls-7" x1="347.15" y1="347.15" x2="652.85" y2="652.85"/><line class="cls-7" x1="652.85" y1="347.15" x2="347.15" y2="652.85"/><circle class="cls-4" cx="500" cy="500" r="109.4"/><polyline class="cls-8" points="581.97 323.84 582.74 324.19 537.18 516.96 463.75 482.98"/><polyline class="cls-9" points="419 676.11 418.23 675.76 463.75 482.97 537.26 516.99"/><circle class="cls-6" cx="500.42" cy="501.11" r="18"/><polygon class="cls-6" points="504.29 503.74 503.83 503.49 503.96 503.47 504.29 503.74"/><polygon class="cls-6" points="504.29 503.74 503.83 503.49 503.96 503.47 504.29 503.74"/></g></svg>