<svg xmlns="http://www.w3.org/2000/svg" viewBox="0 0 147 154"><defs><style>.cls-1{fill:#143642;}.cls-2{fill:#de4815;}.cls-3{fill:#f09d51;}.cls-4,.cls-5{fill:#fff;}.cls-4{stroke:#fff;stroke-miterlimit:10;stroke-width:2px;}</style></defs><g id="Layer_1" data-name="Layer 1"><circle class="cls-1" cx="72" cy="80" r="62.99"/><path class="cls-2" d="M78.19,90s-3.19-13-1-21a2.4,2.4,0,0,0-.71-2.81A12.22,12.22,0,0,1,75,64.44a6.49,6.49,0,0,1-5,.34c-.16,0-.47.18-.63.35-.5.54-.91,1.16-1.45,1.66a1.25,1.25,0,0,0-.35,1.38,35.59,35.59,0,0,1,1.27,10.27c0,3.18-2.1,11.59-2.1,11.59l-12-22.67s-14.05-2.71-21.07.38l-5.25,3S40.29,56.39,44.11,54.2a15.82,15.82,0,0,1,10.11-1.91,9.57,9.57,0,0,1,6.06,3.16,1.27,1.27,0,0,0,1.28.44c1.55-.22,3.11-.31,4.65-.56a3,3,0,0,0,1.57-.72,6.22,6.22,0,0,1,8.72.06,2.1,2.1,0,0,0,1.16.55q2.91.39,5.84.67a1.22,1.22,0,0,0,.89-.25c3.36-3.69,7.61-4,12.11-3.09a15.29,15.29,0,0,1,6,2.69A36.06,36.06,0,0,1,110.77,63c3.23,4,7.49,9.81,7.49,9.81l-28-4.49ZM72.08,63.12A4.13,4.13,0,1,0,68,58.92,4.11,4.11,0,0,0,72.08,63.12Z"/><path class="cls-2" d="M44.78,108.69A22.55,22.55,0,1,1,67.35,86.28,22.61,22.61,0,0,1,44.78,108.69Zm.09-4.61a17.93,17.93,0,1,0-18-17.94A17.93,17.93,0,0,0,44.87,104.08Z"/><path class="cls-2" d="M100.1,108.7a22.55,22.55,0,1,1,22.54-22.56A22.57,22.57,0,0,1,100.1,108.7Zm0-4.62a17.93,17.93,0,1,0-17.89-18A18,18,0,0,0,100.05,104.08Z"/><path class="cls-3" d="M44.87,104.08A17.93,17.93,0,1,1,62.74,86,18,18,0,0,1,44.87,104.08ZM32,89.42a15.3,15.3,0,0,1,6-12.8c4.12-3.21,8.8-3.92,14-2.62-4.35-3.51-11.47-3.21-16,.52A13,13,0,0,0,32,89.42Z"/><path class="cls-3" d="M100.05,104.08a17.93,17.93,0,1,1,18-18A17.92,17.92,0,0,1,100.05,104.08ZM87.16,89.42a15.23,15.23,0,0,1,6-12.81c4.14-3.22,8.84-3.93,14-2.59-4.29-3.55-11.51-3.26-16.12.55C85.79,78.9,85.4,85.69,87.16,89.42Z"/><path class="cls-4" d="M32,89.42a13,13,0,0,1,3.95-14.9c4.56-3.73,11.68-4,16-.52-5.19-1.3-9.87-.59-14,2.62A15.3,15.3,0,0,0,32,89.42Z"/><path class="cls-4" d="M87,89.6c-1.77-3.76-1.38-10.62,3.92-15,4.66-3.85,11.95-4.14,16.29-.56-5.21-1.35-10-.63-14.15,2.62A15.46,15.46,0,0,0,87,89.6Z"/></g><g id="Layer_2" data-name="Layer 2"><polygon class="cls-5" points="72.54 80.47 72.48 80.44 72.5 80.44 72.54 80.47"/><polygon class="cls-5" points="72.54 80.47 72.48 80.44 72.5 80.44 72.54 80.47"/></g></svg>