<svg xmlns="http://www.w3.org/2000/svg" viewBox="0 0 152 149"><defs><style>.cls-1{fill:#820933;}.cls-2{fill:#fff;}</style></defs><g id="Layer_1" data-name="Layer 1"><circle class="cls-1" cx="77" cy="72" r="65"/></g><g id="Layer_2" data-name="Layer 2"><rect class="cls-2" x="37.17" y="61" width="75.68" height="45.25"/><rect class="cls-2" x="37.17" y="46.12" width="75.68" height="11.88"/><rect class="cls-2" x="45.58" y="42.19" width="8.9" height="6" transform="translate(4.85 95.22) rotate(-90)"/><rect class="cls-2" x="62.69" y="42.19" width="8.9" height="6" transform="translate(21.96 112.33) rotate(-90)"/><rect class="cls-2" x="79.31" y="42.19" width="8.9" height="6" transform="translate(38.58 128.95) rotate(-90)"/><rect class="cls-2" x="95.42" y="42.19" width="8.9" height="6" transform="translate(54.69 145.06) rotate(-90)"/><rect class="cls-1" x="41.29" y="66.1" width="13.51" height="13.51"/><rect class="cls-1" x="59.58" y="66.1" width="13.51" height="13.51"/><rect class="cls-1" x="77.37" y="66.1" width="13.51" height="13.51"/><rect class="cls-1" x="94.84" y="66.1" width="13.51" height="13.51"/><rect class="cls-1" x="41.29" y="84.23" width="13.51" height="13.51"/><rect class="cls-1" x="59.58" y="84.23" width="13.51" height="13.51"/><rect class="cls-1" x="77.37" y="84.23" width="13.51" height="13.51"/></g></svg>