<svg xmlns="http://www.w3.org/2000/svg" viewBox="0 0 1000 1000"><defs><style>.cls-1{fill:#c66e4e;}.cls-2{fill:#e2e8ce;}.cls-3{fill:#bbb8b2;}.cls-4{fill:#f7cea8;}.cls-5{fill:#f09d51;stroke:#f09d51;stroke-miterlimit:10;stroke-width:6px;}.cls-6{fill:#de4815;}</style></defs><g id="Layer_1" data-name="Layer 1"><circle class="cls-1" cx="500" cy="500" r="500"/></g><g id="Layer_2" data-name="Layer 2"><rect class="cls-2" x="238.33" y="168" width="508.09" height="47.89"/><polygon class="cls-3" points="683.15 251.48 303.57 251.48 277.87 215.89 708.85 215.89 683.15 251.48"/><rect class="cls-3" x="323.34" y="277.18" width="347.95" height="173.98"/><rect class="cls-2" x="298.63" y="251.48" width="396.39" height="25.7"/><path class="cls-2" d="M358.19,278.66,463.7,312.77V277.18s25.7-49.42,63.27,0v35.59l106.76-35.59v63.26H358.92Z"/><rect class="cls-2" x="294.67" y="451.16" width="410.23" height="37.56" rx="9.5"/><path class="cls-3" d="M339.15,488.72H659.43a0,0,0,0,1,0,0v10.75a11,11,0,0,1-11,11H350.15a11,11,0,0,1-11-11V488.72A0,0,0,0,1,339.15,488.72Z"/><path class="cls-2" d="M586.55,630.57l-6.75,6.75,40.12,40.12H418.38c-.58-1.1-1.17-2.19-1.78-3.26a109.48,109.48,0,0,0-19.21-24.83,114.59,114.59,0,0,0-36.49-24.14V510.47H642.29v64.36Z"/><polygon class="cls-2" points="642.29 610.18 642.29 664.45 615.16 637.32 642.29 610.18"/><path class="cls-2" d="M642.29,702.44v1.11H360.9V653a90,90,0,0,1,19,14.28A84.47,84.47,0,0,1,399,694.89l3.26,7.55Z"/><circle class="cls-2" cx="298.63" cy="337.48" r="86"/><circle class="cls-3" cx="298.63" cy="337.48" r="55.36"/><circle class="cls-2" cx="298.63" cy="337.48" r="27.68"/><circle class="cls-2" cx="696" cy="337.48" r="86"/><circle class="cls-3" cx="697.98" cy="337.48" r="55.36"/><circle class="cls-2" cx="697.98" cy="337.48" r="27.68"/><path class="cls-3" d="M452.74,563.4v114H418.38c-.58-1.1-1.17-2.19-1.78-3.26V563.4a9.14,9.14,0,0,1,9.14-9.14H443.6A9.14,9.14,0,0,1,452.74,563.4Z"/><rect class="cls-3" x="416.6" y="702.44" width="36.14" height="0.15"/><path class="cls-3" d="M519.65,563.4v114H483.51v-114a9.14,9.14,0,0,1,9.14-9.14h17.86A9.14,9.14,0,0,1,519.65,563.4Z"/><rect class="cls-3" x="483.51" y="702.44" width="36.14" height="0.15"/><path class="cls-3" d="M586.55,630.57l-6.75,6.75,6.75,6.75v33.37H550.42v-114a9.14,9.14,0,0,1,9.14-9.14h17.85a9.14,9.14,0,0,1,9.14,9.14Z"/><rect class="cls-3" x="550.42" y="702.44" width="36.13" height="0.15"/><path class="cls-4" d="M784.91,727.88,654.75,858l-39.59-39.59,60-60.06H402.66l-3.38,7.17c-.38.82-.76,1.6-1.15,2.39s-.79,1.65-1.19,2.49a85.23,85.23,0,0,1-8.21,13.08l-.08.11A87.79,87.79,0,0,1,317.8,819.1a88.8,88.8,0,0,1-88.69-88.69,89.08,89.08,0,0,1,70.95-86.91,89.17,89.17,0,0,1,17.74-1.77,88.14,88.14,0,0,1,26.62,4.08A86.72,86.72,0,0,1,360.9,653a90,90,0,0,1,19,14.28A84.47,84.47,0,0,1,399,694.89l3.26,7.55h278l-38-38-27.13-27.13,27.13-27.14,12.46-12.46Z"/><circle class="cls-5" cx="317.21" cy="730.02" r="55.36"/><circle class="cls-6" cx="317.21" cy="730.02" r="27.68"/></g></svg>