<svg xmlns="http://www.w3.org/2000/svg" viewBox="0 0 1000 1000"><defs><style>.cls-1{fill:#143642;}.cls-2{fill:#de4815;}.cls-3{fill:#f7cea8;}.cls-4{fill:#f09d51;}.cls-5{fill:#fff;}</style></defs><g id="Layer_1" data-name="Layer 1"><circle class="cls-1" cx="500" cy="500" r="500"/><path class="cls-2" d="M533.27,492.13c-2.82-27,1.35-53.4,7.75-79.41,2.24-9.15,2.11-16-5.61-22.35-4.4-3.63-7.43-8.92-11.43-13.9-12.85,6.11-26.21,7.41-40.05,2.75-1.24-.41-3.72,1.37-5,2.73-3.95,4.28-7.22,9.25-11.46,13.19-3.62,3.36-3.86,6.57-2.79,11,6.5,26.77,11.47,53.75,10,81.51a16.68,16.68,0,0,1-.77,4.64c-19.45-57.5-55.78-100.12-111.54-124.34S250.89,346.41,195.23,371c2-2.61,3.83-5.3,5.91-7.83,22.12-26.86,47.15-50.51,77.47-67.93,24.89-14.31,51.9-18.77,80.27-15.13a76.37,76.37,0,0,1,48.13,25c3,3.27,5.78,4.14,10.12,3.53,12.28-1.72,24.69-2.48,36.92-4.42a24.59,24.59,0,0,0,12.48-5.76c19.7-18.7,49.55-18.56,69.15.53a17.24,17.24,0,0,0,9.24,4.34c15.42,2.08,30.89,3.76,46.38,5.28,2.3.22,5.61-.4,7-1.94,26.72-29.31,60.4-31.43,96.17-24.57,17.42,3.34,33.2,11.13,47.57,21.37,24.69,17.57,47,37.81,65.63,61.83a31.07,31.07,0,0,1,3.9,6.43c-55.18-25.27-111-28-166.69-3.88S552.73,434.54,533.27,492.13ZM500.63,366c18.13.13,33.2-14.83,33.09-32.82a33.16,33.16,0,0,0-32.56-32.7,32.76,32.76,0,0,0-.53,65.52Z"/><path class="cls-2" d="M284,727.75c-99.08-.49-179.54-81.44-178.79-179.85.75-98.82,81.39-178.74,179.68-178.08a178.7,178.7,0,0,1,178.2,180.05C462.49,648.22,381.93,728.24,284,727.75Zm.67-36.63a142.33,142.33,0,0,0-.8-284.66c-78.54.27-142.16,64-142.07,142.28C141.87,627.32,206.19,691.42,284.66,691.12Z"/><path class="cls-2" d="M723,727.76c-97.92.42-178.4-79.63-179-178A178.74,178.74,0,0,1,722.41,369.82C821,369.27,901.78,449.75,902,548.76,902.14,647,821.82,727.33,723,727.76Zm-.38-36.64c78.56.12,142.79-64,142.72-142.54s-63.7-141.94-142.24-142.12A141.94,141.94,0,0,0,580.67,548.1C580.44,627,643.93,691,722.65,691.12Z"/><path class="cls-3" d="M500.63,366a32.76,32.76,0,0,1,.53-65.52,33.16,33.16,0,0,1,32.56,32.7C533.83,351.17,518.76,366.13,500.63,366Z"/><path class="cls-4" d="M284.66,691.12c-78.47.3-142.79-63.8-142.87-142.38-.09-78.3,63.53-142,142.07-142.28a142.33,142.33,0,0,1,.8,284.66ZM182.12,574.77c-.07-41.88,14.95-76.18,47.56-101.59S299.51,442,340.73,452.37c-34.52-27.86-91.08-25.51-127.28,4.1C171.6,490.7,168.13,544.68,182.12,574.77Z"/><path class="cls-4" d="M722.65,691.12c-78.72-.13-142.21-64.08-142-143A141.94,141.94,0,0,1,723.13,406.46c78.54.18,142.16,63.75,142.24,142.12S801.21,691.24,722.65,691.12ZM620.29,574.75c-.16-42,15-76.26,47.63-101.65,32.9-25.58,70.19-31.19,111.17-20.59-34.1-28.16-91.38-25.88-128,4.38C609.49,491.27,606.38,545.16,620.29,574.75Z"/><path class="cls-5" d="M182.12,574.77c-14-30.09-10.52-84.07,31.33-118.3,36.2-29.61,92.76-32,127.28-4.1-41.22-10.34-78.35-4.67-111,20.81S182.05,532.89,182.12,574.77Z"/><path class="cls-5" d="M620.29,574.75c-13.91-29.59-10.8-83.48,30.8-117.86,36.62-30.26,93.9-32.54,128-4.38-41-10.6-78.27-5-111.17,20.59C635.28,498.49,620.13,532.76,620.29,574.75Z"/></g><g id="Layer_2" data-name="Layer 2"><polygon class="cls-5" points="504.29 503.74 503.83 503.49 503.96 503.47 504.29 503.74"/><polygon class="cls-5" points="504.29 503.74 503.83 503.49 503.96 503.47 504.29 503.74"/></g></svg>