<svg xmlns="http://www.w3.org/2000/svg" viewBox="0 0 161 160"><defs><style>.cls-1{fill:#acbea4;}.cls-2{fill:#fff;}</style></defs><g id="Layer_1" data-name="Layer 1"><circle class="cls-1" cx="80" cy="85" r="65"/></g><g id="Layer_2" data-name="Layer 2"><polygon class="cls-2" points="80.55 85.48 80.49 85.45 80.5 85.44 80.55 85.48"/><path class="cls-2" d="M73.39,82.41,30.78,74A45.59,45.59,0,0,1,46.41,48.53Z"/><path class="cls-2" d="M94.82,45.05l-18,31.53L61.49,43.86a37.06,37.06,0,0,1,33.33,1.19Z"/><path class="cls-2" d="M131.66,73.06,84.28,80.33,114.06,43A49.85,49.85,0,0,1,131.66,73.06Z"/><path class="cls-2" d="M42.26,90l29.08-.17L50.09,109.63A30,30,0,0,1,42.26,90Z"/><path class="cls-2" d="M93.65,130.25a46.23,46.23,0,0,1-36.3-1.31L76.81,88.41l0,0h0Z"/><path class="cls-2" d="M123,94.41a38,38,0,0,1-20.78,28.25l-16-33.53Z"/><polygon class="cls-2" points="80.55 85.48 80.49 85.45 80.5 85.44 80.55 85.48"/></g></svg>