<?xml version="1.0" encoding="utf-8"?>
<!-- Generator: Adobe Illustrator 26.0.2, SVG Export Plug-In . SVG Version: 6.00 Build 0)  -->
<svg version="1.1" id="Layer_1" xmlns="http://www.w3.org/2000/svg" xmlns:xlink="http://www.w3.org/1999/xlink" x="0px" y="0px"
	 viewBox="0 0 1000 1000" style="enable-background:new 0 0 1000 1000;" xml:space="preserve">
<style type="text/css">
	.st0{fill:#6D6D75;}
	.st1{clip-path:url(#SVGID_00000103234878286697861600000007555441628007868305_);}
	.st2{fill:#C66E4E;}
	.st3{fill:#FFFFFF;}
	.st4{clip-path:url(#SVGID_00000064332362461731168460000004532759429888455311_);}
	.st5{clip-path:url(#SVGID_00000003103447490851610940000005099479964497907132_);}
	.st6{fill:#143642;}
	.st7{fill:none;}
	.st8{fill:#E0BC80;}
</style>
<g>
	<circle class="st0" cx="500" cy="500" r="500"/>
	<g>
		<g>
			<defs>
				<circle id="SVGID_1_" cx="500" cy="500" r="500"/>
			</defs>
			<clipPath id="SVGID_00000114054041320680316800000014930095791140903300_">
				<use xlink:href="#SVGID_1_"  style="overflow:visible;"/>
			</clipPath>
			
				<g id="Layer_2_00000119826166978148269590000011490959697934125227_" style="clip-path:url(#SVGID_00000114054041320680316800000014930095791140903300_);">
				<circle class="st2" cx="303.2" cy="663.1" r="244.8"/>
				<polygon class="st3" points="469.2,774.5 397.6,846.1 369.9,818.3 413.7,774.5 369.9,730.7 397.6,703 401.1,706.4 441,746.4 
					454.9,760.3 				"/>
				<path class="st3" d="M283.5,775.7c0,3.3-0.3,6.6-1,9.8c-0.7,3.4-1.7,6.7-3.1,9.8c-0.4,0.8-0.8,1.6-1.2,2.5
					c-1.3,2.7-2.8,5.2-4.6,7.5c-16.2,21.7-47,26.1-68.6,9.8c-21.7-16.2-26.1-47-9.8-68.6c2.8-3.8,6.2-7.1,9.9-9.9
					c5.8-4.4,12.5-7.4,19.6-8.9c8.1-1.6,16.5-1.2,24.5,1.2c7.3,2.4,14,6.4,19.5,11.8c1.8,1.7,3.4,3.6,4.9,5.5c2.3,3,4.2,6.3,5.7,9.8
					c0.4,0.8,0.8,1.6,1,2.5c0.9,2.4,1.6,5,2.1,7.5C283.1,769.3,283.5,772.5,283.5,775.7z"/>
				<path class="st3" d="M292.5,766c-0.5-3.3-1.4-6.6-2.6-9.8h-10.5c-1.5-3.5-3.4-6.8-5.7-9.8c-1.5-2-3.2-3.8-5-5.5
					c-5.5-5.4-12.2-9.5-19.6-11.8c-25.8-8.2-53.4,6.1-61.5,31.9c-8.2,25.8,6.1,53.4,31.9,61.5c19.9,6.3,41.5-0.7,54-17.3
					c1.8-2.4,3.3-4.9,4.6-7.5c0.4-0.8,0.8-1.6,1.2-2.5h10.5c1.1-3.2,2-6.5,2.6-9.8c0.5-3.2,0.8-6.5,0.8-9.8
					C293.3,772.3,293,769.1,292.5,766z M260.5,805.1c-14.8,13-37,13-51.8,0c-1.3-1.1-2.5-2.3-3.5-3.5c-13.1-14.8-13.1-36.9,0-51.7
					c1.1-1.3,2.3-2.5,3.5-3.5c4.6-4,10.1-7,16.1-8.6c3.2-0.8,6.5-1.2,9.8-1.2c9.5,0,18.7,3.5,25.9,9.8c1.7,1.5,3.2,3.1,4.6,4.9
					c1.3,1.5,2.4,3.2,3.4,4.9c1.1,1.9,2.1,3.8,2.8,5.9c0.5,1.2,0.9,2.5,1.2,3.8c0.8,3.2,1.2,6.5,1.2,9.8s-0.4,6.6-1.2,9.8
					c-0.7,2.7-1.6,5.4-2.9,7.8c-0.3,0.7-0.7,1.3-1.1,2C266.3,798.9,263.7,802.3,260.5,805.1z"/>
				<rect x="215" y="756.2" class="st3" width="230.1" height="39.2"/>
				<path class="st3" d="M441,746.4h-55.4l9.8,9.8h-116c-1.5-3.5-3.4-6.8-5.7-9.8h-68.5v58.8h68.5c1.8-2.4,3.3-4.9,4.6-7.5
					c0.4-0.8,0.8-1.6,1.2-2.5H393l-9.8,9.8h55.3l16.4-16.4v-28.3L441,746.4z M435.3,785.5H224.8V766h210.5V785.5z"/>
				<path class="st3" d="M403.5,521.1c0.8-0.1,1.6-0.1,2.5,0l0,0H403.5z"/>
				<path class="st3" d="M440.2,557.8c0,20.3-16.4,36.7-36.7,36.7c-0.8,0.1-1.6,0.1-2.5,0c-7.1-0.4-13.9-2.9-19.6-7.3
					c-4.3-3.2-7.9-7.4-10.4-12.1c-1.7-3.1-2.9-6.4-3.5-9.8H238.6c-0.7,3.4-1.9,6.7-3.6,9.8c-3.2,6.2-8.2,11.3-14.2,14.7
					c-4.8,2.8-10.2,4.5-15.8,4.8c-0.8,0.1-1.6,0.1-2.5,0c-20.3,0-36.7-16.4-36.7-36.6c0-15.6,9.8-29.5,24.5-34.7l9.8-2h2.5h200.8
					c0.8-0.1,1.6-0.1,2.5,0l9.8,2C430.3,528.4,440.2,542.3,440.2,557.8z"/>
				<path class="st3" d="M406,521.1L406,521.1c-0.8-0.1-1.6-0.1-2.5,0H406z"/>
				<path class="st3" d="M224.8,598.9V708c-6.9,1.2-13.5,3.5-19.6,7.1V604.3C212.1,604,218.7,602.1,224.8,598.9z"/>
				<path class="st3" d="M268.8,575v143.3c-5.9-4.3-12.6-7.4-19.6-9.2V575H268.8z"/>
				<rect x="293.4" y="575" class="st3" width="19.6" height="161.6"/>
				<rect x="337.4" y="575" class="st3" width="19.6" height="161.6"/>
				<path class="st3" d="M401.1,604.3v70.9l-19.6,19.5v-95.8C387.6,602.1,394.2,604,401.1,604.3z"/>
				<circle class="st2" cx="403.5" cy="557.8" r="17"/>
				<circle class="st2" cx="202.8" cy="557.8" r="17"/>
			</g>
		</g>
		<g>
			<defs>
				<circle id="SVGID_00000165229517393605439200000017473208114991302543_" cx="500" cy="500" r="500"/>
			</defs>
			<clipPath id="SVGID_00000016777489016242944260000018437863331273935033_">
				<use xlink:href="#SVGID_00000165229517393605439200000017473208114991302543_"  style="overflow:visible;"/>
			</clipPath>
			
				<g id="Layer_2_00000090267188532556143530000018291396114446845609_" style="clip-path:url(#SVGID_00000016777489016242944260000018437863331273935033_);">
				<circle class="st2" cx="706.6" cy="650" r="244.8"/>
				<polygon class="st3" points="872.7,761.4 801.1,832.9 773.4,805.2 817.2,761.4 773.4,717.6 801.1,689.8 804.5,693.3 
					844.5,733.2 858.4,747.2 				"/>
				<path class="st3" d="M687,762.6c0,3.3-0.3,6.6-1,9.8c-0.7,3.4-1.7,6.7-3.1,9.8c-0.4,0.8-0.8,1.6-1.2,2.5
					c-1.3,2.7-2.8,5.2-4.6,7.5c-16.2,21.7-47,26.1-68.6,9.8c-21.7-16.2-26.1-47-9.8-68.6c2.8-3.8,6.2-7.1,9.9-9.9
					c5.8-4.4,12.5-7.4,19.6-8.9c8.1-1.6,16.5-1.2,24.5,1.2c7.3,2.4,14,6.4,19.5,11.8c1.8,1.7,3.4,3.6,4.9,5.5c2.3,3,4.2,6.3,5.7,9.8
					c0.4,0.8,0.8,1.6,1,2.5c0.9,2.4,1.6,5,2.1,7.5C686.6,756.2,687,759.4,687,762.6z"/>
				<path class="st3" d="M696,752.8c-0.5-3.3-1.4-6.6-2.6-9.8h-10.5c-1.5-3.5-3.4-6.8-5.7-9.8c-1.5-2-3.2-3.8-5-5.5
					c-5.5-5.4-12.2-9.5-19.6-11.8c-25.8-8.2-53.4,6.1-61.5,31.9c-8.2,25.8,6.1,53.4,31.9,61.5c19.9,6.3,41.5-0.7,54-17.3
					c1.8-2.4,3.3-4.9,4.6-7.5c0.4-0.8,0.8-1.6,1.2-2.5h10.5c1.1-3.2,2-6.5,2.6-9.8c0.5-3.2,0.8-6.5,0.8-9.8
					C696.8,759.2,696.5,756,696,752.8z M664,792c-14.8,13-37,13-51.8,0c-1.3-1.1-2.5-2.3-3.5-3.5c-13.1-14.8-13.1-36.9,0-51.7
					c1.1-1.3,2.3-2.5,3.5-3.5c4.6-4,10.1-7,16.1-8.6c3.2-0.8,6.5-1.2,9.8-1.2c9.5,0,18.7,3.5,25.9,9.8c1.7,1.5,3.2,3.1,4.6,4.9
					c1.3,1.5,2.4,3.2,3.4,4.9c1.1,1.9,2.1,3.8,2.8,5.9c0.5,1.2,0.9,2.5,1.2,3.8c0.8,3.2,1.2,6.5,1.2,9.8s-0.4,6.6-1.2,9.8
					c-0.7,2.7-1.6,5.4-2.9,7.8c-0.3,0.7-0.7,1.3-1.1,2C669.8,785.8,667.1,789.1,664,792z"/>
				<rect x="618.5" y="743" class="st3" width="230.1" height="39.2"/>
				<path class="st3" d="M844.5,733.2h-55.4l9.8,9.8h-116c-1.5-3.5-3.4-6.8-5.7-9.8h-68.5V792h68.5c1.8-2.4,3.3-4.9,4.6-7.5
					c0.4-0.8,0.8-1.6,1.2-2.5h113.5l-9.8,9.8H842l16.4-16.4v-28.3L844.5,733.2z M838.8,772.4H628.3v-19.6h210.5V772.4z"/>
				<path class="st3" d="M807,508c0.8-0.1,1.6-0.1,2.5,0l0,0H807z"/>
				<path class="st3" d="M843.7,544.7c0,20.3-16.4,36.7-36.7,36.7c-0.8,0.1-1.6,0.1-2.5,0c-7.1-0.4-13.9-2.9-19.6-7.3
					c-4.3-3.2-7.9-7.4-10.4-12.1c-1.7-3.1-2.9-6.4-3.5-9.8H642.1c-0.7,3.4-1.9,6.7-3.6,9.8c-3.2,6.2-8.2,11.3-14.2,14.7
					c-4.8,2.8-10.2,4.5-15.8,4.8c-0.8,0.1-1.6,0.1-2.5,0c-20.3,0-36.7-16.4-36.7-36.6c0-15.6,9.8-29.5,24.5-34.7l9.8-2h2.5h200.8
					c0.8-0.1,1.6-0.1,2.5,0l9.8,2C833.8,515.3,843.7,529.1,843.7,544.7z"/>
				<path class="st3" d="M809.5,508L809.5,508c-0.8-0.1-1.6-0.1-2.5,0H809.5z"/>
				<path class="st3" d="M628.3,585.8v109.1c-6.9,1.2-13.5,3.5-19.6,7.1V591.2C615.5,590.8,622.2,589,628.3,585.8z"/>
				<path class="st3" d="M672.2,561.9v143.3c-5.9-4.3-12.6-7.4-19.6-9.2V561.9H672.2z"/>
				<rect x="696.8" y="561.9" class="st3" width="19.6" height="161.6"/>
				<rect x="740.9" y="561.9" class="st3" width="19.6" height="161.6"/>
				<path class="st3" d="M804.5,591.2v70.9L785,681.6v-95.8C791,589,797.7,590.8,804.5,591.2z"/>
				<circle class="st2" cx="807" cy="544.7" r="17"/>
				<circle class="st2" cx="606.2" cy="544.7" r="17"/>
			</g>
		</g>
		<g>
			<defs>
				<circle id="SVGID_00000056399320499287244070000000031169378875616436_" cx="500" cy="500" r="500"/>
			</defs>
			<clipPath id="SVGID_00000028286654464987222990000007058143320908192642_">
				<use xlink:href="#SVGID_00000056399320499287244070000000031169378875616436_"  style="overflow:visible;"/>
			</clipPath>
			
				<g id="Layer_2_00000129164237140695552310000009469043824894506679_" style="clip-path:url(#SVGID_00000028286654464987222990000007058143320908192642_);">
				<circle class="st6" cx="211.8" cy="365.8" r="181.8"/>
				<line class="st7" x1="165.3" y1="335.8" x2="162.7" y2="340.9"/>
				<line class="st7" x1="144.6" y1="376.5" x2="142" y2="381.6"/>
				<line class="st7" x1="285" y1="381.6" x2="282.5" y2="376.5"/>
				<circle class="st3" cx="211.9" cy="364.3" r="127.2"/>
				<circle class="st6" cx="211.9" cy="364.3" r="109.7"/>
				<polyline class="st3" points="244.6,294.2 244.9,294.4 228.1,365.5 201,353 				"/>
				<polyline class="st3" points="179.4,434.3 179.2,434.1 196,363 223.1,375.5 				"/>
				<polygon class="st3" points="213.4,365.6 213.3,365.5 213.3,365.5 				"/>
				<polygon class="st3" points="213.4,365.6 213.3,365.5 213.3,365.5 				"/>
			</g>
		</g>
	</g>
	<g id="Layer_2_00000067953540062981206560000017416814214993176737_">
		<circle class="st8" cx="784.1" cy="296.8" r="149"/>
		<rect x="712.7" y="221.9" class="st8" width="33.6" height="164.3"/>
		<rect x="754" y="195.8" class="st8" width="43.6" height="190.4"/>
		<rect x="754" y="196.1" class="st3" width="43.6" height="25.6"/>
		<rect x="754" y="234.8" class="st3" width="43.6" height="107.8"/>
		<rect x="754" y="356.9" class="st3" width="43.6" height="29.2"/>
		
			<rect x="810.4" y="237.1" transform="matrix(0.9826 -0.1857 0.1857 0.9826 -43.08 160.1007)" class="st8" width="45.4" height="145.9"/>
		
			<rect x="798.3" y="238.2" transform="matrix(0.9826 -0.1857 0.1857 0.9826 -31.3606 156.6982)" class="st3" width="45" height="15.2"/>
		
			<rect x="810" y="266.3" transform="matrix(0.9826 -0.1857 0.1857 0.9826 -42.7756 159.9603)" class="st3" width="45" height="84.1"/>
		
			<rect x="822.2" y="363.2" transform="matrix(0.9826 -0.1857 0.1857 0.9826 -54.4835 163.3419)" class="st3" width="45" height="18.7"/>
	</g>
	<g id="Layer_2_00000095299605833608961310000006309993212487071900_">
		<circle class="st2" cx="500" cy="244.8" r="244.8"/>
		<path class="st3" d="M480.4,357.5c0,3.3-0.3,6.6-1,9.8c-0.7,3.4-1.7,6.7-3.1,9.8c-0.4,0.8-0.8,1.6-1.2,2.5
			c-1.3,2.7-2.8,5.2-4.6,7.5c-16.2,21.7-47,26.1-68.6,9.8s-26.1-47-9.8-68.6c2.8-3.8,6.2-7.1,9.9-9.9c5.8-4.4,12.5-7.4,19.6-8.9
			c8.1-1.6,16.5-1.2,24.5,1.2c7.3,2.4,14,6.4,19.5,11.8c1.8,1.7,3.4,3.6,4.9,5.5c2.3,3,4.2,6.3,5.7,9.8c0.4,0.8,0.8,1.6,1,2.5
			c0.9,2.4,1.6,5,2.1,7.5C480,351,480.3,354.2,480.4,357.5z"/>
		<path class="st3" d="M489.4,347.7c-0.5-3.3-1.4-6.6-2.6-9.8h-10.5c-1.5-3.5-3.4-6.8-5.7-9.8c-1.5-2-3.2-3.8-5-5.5
			c-5.5-5.4-12.2-9.5-19.6-11.8c-25.8-8.2-53.4,6.1-61.5,31.9c-8.2,25.8,6.1,53.4,31.9,61.5c19.9,6.3,41.5-0.7,54-17.3
			c1.8-2.4,3.3-4.9,4.6-7.5c0.4-0.8,0.8-1.6,1.2-2.5h10.5c1.1-3.2,2-6.5,2.6-9.8c0.5-3.2,0.8-6.5,0.8-9.8
			C490.1,354.1,489.9,350.9,489.4,347.7z M457.4,386.9c-14.8,13-37,13-51.8,0c-1.3-1.1-2.5-2.3-3.5-3.5c-13.1-14.8-13.1-36.9,0-51.7
			c1.1-1.3,2.3-2.5,3.5-3.5c4.6-4,10.1-7,16.1-8.6c3.2-0.8,6.5-1.2,9.8-1.2c9.5,0,18.7,3.5,25.9,9.8c1.7,1.5,3.2,3.1,4.6,4.9
			c1.3,1.5,2.4,3.2,3.4,4.9c1.1,1.9,2.1,3.8,2.8,5.9c0.5,1.2,0.9,2.5,1.2,3.8c0.8,3.2,1.2,6.5,1.2,9.8s-0.4,6.6-1.2,9.8
			c-0.7,2.7-1.6,5.4-2.9,7.8c-0.3,0.7-0.7,1.3-1.1,2C463.2,380.6,460.5,384,457.4,386.9z"/>
		<path class="st3" d="M600.4,102.9c0.8-0.1,1.6-0.1,2.5,0l0,0H600.4z"/>
		<path class="st3" d="M637.1,139.6c0,20.3-16.4,36.7-36.7,36.7c-0.8,0.1-1.6,0.1-2.5,0c-7.1-0.4-13.9-2.9-19.6-7.3
			c-4.3-3.2-7.9-7.4-10.4-12.1c-1.7-3.1-2.9-6.4-3.5-9.8H435.5c-0.7,3.4-1.9,6.7-3.6,9.8c-3.2,6.2-8.2,11.3-14.2,14.7
			c-4.8,2.8-10.2,4.5-15.8,4.8c-0.8,0.1-1.6,0.1-2.5,0c-20.3,0-36.7-16.4-36.7-36.6c0-15.6,9.8-29.5,24.5-34.7l9.8-2h2.5h200.8
			c0.8-0.1,1.6-0.1,2.5,0l9.8,2C627.2,110.1,637.1,124,637.1,139.6z"/>
		<path class="st3" d="M602.8,102.9L602.8,102.9c-0.8-0.1-1.6-0.1-2.5,0H602.8z"/>
		<path class="st3" d="M421.7,180.6v109.1c-6.9,1.2-13.5,3.5-19.6,7.1V186C408.9,185.7,415.6,183.8,421.7,180.6z"/>
		<path class="st3" d="M465.6,156.7V300c-5.9-4.3-12.6-7.4-19.6-9.2V156.7H465.6z"/>
		<rect x="490.2" y="156.7" class="st3" width="19.6" height="161.6"/>
		<rect x="534.3" y="156.7" class="st3" width="19.6" height="161.6"/>
		<path class="st3" d="M597.9,186v70.9l-19.6,19.5v-95.8C584.4,183.8,591.1,185.7,597.9,186z"/>
		<circle class="st2" cx="600.4" cy="139.6" r="17"/>
		<circle class="st2" cx="399.6" cy="139.6" r="17"/>
	</g>
	<path class="st3" d="M744.4,233c-3.6,14.8-10.6,28.6-20.4,40.2c0,0-43.3,58.2-58.2,72.7s-39.9,21.6-61.8,25.4
		c-29.2,8.7-55.6,25-76.4,47.3c-4.4,5.8-8.5,11.9-12.2,18.2h24.3v10.8h-6.3v18.2h16.2V553h-98.3v-87.6h16.1v-18.2H461v-10.8h36.2
		c32.5-45.9,69.5-88.5,110.3-127.2c0,0,75.7-65.4,112.6-75.7C731.4,229.9,743.1,229.9,744.4,233z"/>
</g>
</svg>
