<svg id="Layer_1" data-name="Layer 1" xmlns="http://www.w3.org/2000/svg" viewBox="0 0 40 39.96"><g id="Doc_-_legislation_-_create" data-name="Doc - legislation - create"><rect width="39.96" height="39.96" style="fill:#e0bc80"/><polygon points="35.45 19.98 31.79 23.52 23.64 31.42 19.98 34.96 4.51 19.98 19.98 5 35.45 19.98" style="fill:#5c2334"/><rect x="20.57" y="8.76" width="3.42" height="11.02" transform="translate(-3.56 19.94) rotate(-45)" style="fill:#fff"/><rect x="12.49" y="16.81" width="3.51" height="11.02" transform="translate(-11.61 16.61) rotate(-45)" style="fill:#fff"/><rect x="24.78" y="20.44" width="3.2" height="11.87" transform="translate(-10.93 26.38) rotate(-45)" style="fill:#fff"/><polygon points="33.57 31.3 31.97 32.9 31.3 33.57 31.3 33.57 30.04 32.3 31.97 30.37 32.3 30.04 33.57 31.3" style="fill:#fff"/><polygon points="24.19 18.38 22.82 19.75 19.75 22.82 18.38 24.19 12.57 18.38 18.38 12.57 24.19 18.38" style="fill:#fff"/><polygon points="40 0.06 40 19.18 21.19 0.06 40 0.06" style="fill:#c66e4e"/><rect x="33.38" y="1.73" width="1.6" height="8.32" style="fill:#fff"/><rect x="30.02" y="5.09" width="8.32" height="1.6" style="fill:#fff"/></g></svg>