<svg id="Layer_1" data-name="Layer 1" xmlns="http://www.w3.org/2000/svg" viewBox="0 0 40 40"><g id="Doc_-_amend" data-name="Doc - amend"><rect width="40" height="40" style="fill:#e0bc80"/><path d="M34.46,12.76l-4.77,4.77a10,10,0,0,0-7.08-7.18l4.72-4.72Z" style="fill:#fff"/><path d="M19.92,20.23l-11,11L7.05,29.36c.18-.52,5-13.78,6.87-15.11,1.57-1.36,5.48,5.14,6,5.92Z" style="fill:#fff"/><path d="M25.8,26.11C24.43,28,11.2,32.8,10.69,33L8.93,31.24l-.11-.11,11-11h.07C20.62,20.6,27.12,24.5,25.8,26.11Z" style="fill:#fff"/><circle cx="20" cy="20" r="8.4" style="fill:#fff"/><line x1="8" y1="32" x2="19.8" y2="20.2" style="fill:none;stroke:#e0bc80;stroke-miterlimit:10;stroke-width:1.600000023841858px"/><circle cx="20" cy="20" r="2.4" style="fill:#e0bc80"/></g></svg>