<svg id="Layer_1" data-name="Layer 1" xmlns="http://www.w3.org/2000/svg" viewBox="0 0 40 40"><g id="Navigation_-_timeline" data-name="Navigation - timeline"><circle cx="20" cy="20" r="20" style="fill:#c66e4e"/><polygon points="33.56 29.1 27.72 34.94 25.46 32.68 29.04 29.1 25.46 25.52 27.72 23.26 28 23.54 31.26 26.8 32.4 27.94 33.56 29.1" style="fill:#fff"/><path d="M18.4,29.2a4.26,4.26,0,0,1-.08.8,4.63,4.63,0,0,1-.25.8L18,31a3.73,3.73,0,0,1-.37.6,4,4,0,1,1-6.4-4.8A4.17,4.17,0,0,1,12,26a3.81,3.81,0,0,1,1.6-.72,4,4,0,0,1,3.6,1.06,3.87,3.87,0,0,1,.86,1.26.72.72,0,0,1,.09.2,4.5,4.5,0,0,1,.17.6A4.26,4.26,0,0,1,18.4,29.2Z" style="fill:#fff"/><path d="M19.13,28.4a3.78,3.78,0,0,0-.21-.8h-.86a3.73,3.73,0,0,0-.86-1.25,4,4,0,0,0-3.6-1.07A3.94,3.94,0,0,0,12,26a4,4,0,0,0,4.8,6.4h0a4.33,4.33,0,0,0,.8-.8A4.81,4.81,0,0,0,18,31l.09-.2H19a5.54,5.54,0,0,0,.21-.8,5.29,5.29,0,0,0,.06-.8A3.57,3.57,0,0,0,19.13,28.4Zm-2.61,3.2a3.19,3.19,0,0,1-4.23,0,2,2,0,0,1-.29-.29,3.2,3.2,0,0,1,0-4.22,2,2,0,0,1,.29-.29A3.15,3.15,0,0,1,14.4,26a3.1,3.1,0,0,1,1.2.24,3.06,3.06,0,0,1,.91.56,2.52,2.52,0,0,1,.4.4,2.21,2.21,0,0,1,.28.4,2.65,2.65,0,0,1,.23.48,3,3,0,0,1,.1.32,3.06,3.06,0,0,1,.08.8,3.58,3.58,0,0,1-.1.8,3.81,3.81,0,0,1-.24.64l-.09.16A3.13,3.13,0,0,1,16.52,31.6Z" style="fill:#fff"/><rect x="12.8" y="27.6" width="18.8" height="3.2" style="fill:#fff"/><path d="M31.26,26.8H26.74l.8.8H18.06a3.77,3.77,0,0,0-.46-.8H12v4.8h5.6A4.81,4.81,0,0,0,18,31l.09-.2h9.27l-.8.8h4.52l1.34-1.34V27.94ZM30.8,30H13.6V28.4H30.8Z" style="fill:#fff"/><path d="M28.2,8.4Z" style="fill:#fff"/><path d="M31.2,11.4a3,3,0,0,1-3,3H28a3,3,0,0,1-2.45-1.6,2.84,2.84,0,0,1-.29-.8H14.74a2.84,2.84,0,0,1-.29.8A3,3,0,0,1,13.29,14a2.91,2.91,0,0,1-1.29.4h-.2a3,3,0,0,1-1-5.82l.8-.18H28.4l.8.16A3,3,0,0,1,31.2,11.4Z" style="fill:#fff"/><path d="M28.4,8.4" style="fill:#fff"/><path d="M13.6,14.75v8.92a4.87,4.87,0,0,0-1.6.57v-9A3.78,3.78,0,0,0,13.6,14.75Z" style="fill:#fff"/><path d="M17.2,12.8V24.51a4.52,4.52,0,0,0-1.6-.75v-11Z" style="fill:#fff"/><rect x="19.2" y="12.8" width="1.6" height="13.2" style="fill:#fff"/><rect x="22.8" y="12.8" width="1.6" height="13.2" style="fill:#fff"/><path d="M28,15.2V21l-1.6,1.6V14.75A3.73,3.73,0,0,0,28,15.2Z" style="fill:#fff"/><circle cx="28.2" cy="11.4" r="1.39" style="fill:#c66e4e"/><circle cx="11.8" cy="11.4" r="1.39" style="fill:#c66e4e"/></g></svg>