<svg id="Layer_1" data-name="Layer 1" xmlns="http://www.w3.org/2000/svg" viewBox="0 0 40 40"><g id="Person_-_attendance_v2" data-name="Person - attendance v2"><circle cx="20" cy="20" r="20" style="fill:#afa5aa"/><path d="M17,25.86l-2.26,2.26L13,26.43V20.26l.1-.52.14-.8c.06-.2.12-.4.2-.6l1.09-1.09,2.25,2.28-1.94,1.95-1.13,1.13,1.13,1.13Z" style="fill:#fff"/><polygon points="24.83 21.17 26.78 23.13 26.78 27.65 22.56 23.44 24.83 21.17" style="fill:#fff"/><path d="M26.8,20.26v.6l-2-2-4.5,4.58,6.5,6.48v.23H15l4.29-4.29L16,22.61l3.08-3.08L15.24,15.7a7,7,0,0,1,2.46-1.46,4.58,4.58,0,0,0,4.4,0,6.82,6.82,0,0,1,3.12,2.16,4.46,4.46,0,0,1,.33.43,7,7,0,0,1,1,2.13l.21,1.14Z" style="fill:#fff"/><path d="M24.51,10.21a4.58,4.58,0,0,1-1.45,3.35l-.22.2a3.47,3.47,0,0,1-.72.48,4.58,4.58,0,0,1-4.4,0,3.47,3.47,0,0,1-.72-.48,2.09,2.09,0,0,1-.22-.2,4.34,4.34,0,0,1-.7-.84,4.6,4.6,0,1,1,8.45-2.51Z" style="fill:#fff"/><g id="Arrow"><polygon points="35.64 19.64 27.2 28.07 26.78 27.65 22.56 23.44 24.83 21.17 27.2 23.54 33.37 17.37 35.64 19.64" style="fill:#fff"/><polygon points="35.64 19.64 27.2 28.07 26.78 27.65 22.56 23.44 24.83 21.17 27.2 23.54 33.37 17.37 35.64 19.64" style="fill:#fff"/></g><polygon points="16.97 25.86 14.71 28.12 13.02 26.43 12.6 26.01 11.46 24.88 9.2 22.61 8.07 21.48 6.12 19.53 8.38 17.27 10.34 19.22 11.47 20.35 13.02 21.91 14.86 23.74 16.97 25.86" style="fill:#fff"/><polygon points="16.97 25.86 14.71 28.12 13.02 26.43 12.6 26.01 11.46 24.88 10.34 26.01 8.07 23.74 9.2 22.61 8.07 21.48 6.12 19.53 8.38 17.27 10.34 19.22 11.47 20.35 12.6 19.22 14.86 21.48 13.73 22.61 14.86 23.74 16.97 25.86" style="fill:#fff"/><polygon points="16.81 19.53 14.86 21.48 13.73 22.61 11.46 24.88 10.34 26.01 8.22 28.12 5.96 25.86 8.07 23.74 9.2 22.61 11.47 20.35 12.6 19.22 13.46 18.36 14.55 17.27 16.81 19.53" style="fill:#fff"/><polygon points="14.86 21.48 13.73 22.61 14.86 23.74 13.02 25.58 12.6 26.01 11.46 24.88 10.34 26.01 8.22 28.12 5.96 25.86 8.07 23.74 9.2 22.61 8.07 21.48 10.34 19.22 11.47 20.35 12.6 19.22 13.46 18.36 14.55 17.27 16.81 19.53 14.86 21.48" style="fill:#fff"/></g></svg>