<svg id="Layer_1" data-name="Layer 1" xmlns="http://www.w3.org/2000/svg" viewBox="0 0 40 40"><g id="Navigation_-_connecting_links" data-name="Navigation - connecting links"><circle cx="20" cy="20" r="20" style="fill:#c66e4e"/><polygon points="26.68 19.6 22.26 24.02 20.54 22.3 23.24 19.6 20.54 16.9 19.88 16.24 14.48 10.84 5.71 19.6 14.48 28.36 17.18 25.66 18.9 27.38 14.8 31.48 2.92 19.6 14.8 7.72 26.68 19.6" style="fill:#fff"/><path d="M24.8,7.72l-4.22,4.22,1.6,1.6,2.7-2.7,8.76,8.76-8.76,8.76L16.11,19.6l2.8-2.8-1.6-1.6-4.4,4.4,4.4,4.4.57.56,1.72,1.72,1,1,4.22,4.22L36.68,19.6Z" style="fill:#fff"/></g></svg>