<svg id="Layer_1" data-name="Layer 1" xmlns="http://www.w3.org/2000/svg" viewBox="0 0 40 40"><g id="Navigation_-_library_view" data-name="Navigation - library view"><circle cx="20" cy="20" r="20" style="fill:#c66e4e"/><polyline points="7.6 14.8 20 6.4 32.4 14.8" style="fill:none;stroke:#fff;stroke-miterlimit:10;stroke-width:3.200000047683716px"/><path d="M19.2,19.2V31h0c-.24-1.23-2.64-2.2-5.6-2.2S8.26,29.8,8,31H8V19.2a1.1,1.1,0,0,1,.08-.4c.44-1.13,2.74-2,5.52-2s5.08.87,5.52,2A1.34,1.34,0,0,1,19.2,19.2Z" style="fill:#fff"/><path d="M32,19.4V31.2h0C31.76,30,29.36,29,26.4,29s-5.34,1-5.6,2.2h0V19.4a1.1,1.1,0,0,1,.08-.4c.44-1.13,2.74-2,5.52-2s5.08.87,5.52,2A1.1,1.1,0,0,1,32,19.4Z" style="fill:#fff"/></g></svg>