<svg id="Layer_1" data-name="Layer 1" xmlns="http://www.w3.org/2000/svg" viewBox="0 0 40 39.96"><g id="Doc_-_petition_-_create" data-name="Doc - petition - create"><rect width="39.96" height="39.96" style="fill:#e0bc80"/><circle cx="19.98" cy="19.98" r="14.99" style="fill:#afa5aa"/><path d="M19.63,26.57l.07.07.06-.07Z" style="fill:#fff"/><polygon points="13.39 26.57 19.63 26.57 19.7 26.64 19.76 26.57 26.57 26.57 26.57 20.8 29.77 17.61 29.77 29.77 10.19 29.77 10.19 10.19 29.77 10.19 29.77 14.07 27.01 11.32 24.94 13.39 13.39 13.39 13.39 26.57" style="fill:#fff"/><g id="Arrow"><polygon points="19.76 26.57 19.7 26.64 19.63 26.57 19.76 26.57" style="fill:#fff"/><g id="Arrow-2"><path d="M19.63,26.57l.07.07.06-.07Z" style="fill:#fff"/><polygon points="29.27 15.84 29 16.11 26.57 18.54 20.14 24.98 19.92 25.19 14.39 19.66 16.65 17.4 19.92 20.67 27.01 13.58 29.27 15.84" style="fill:#fff"/><polygon points="19.76 26.57 19.7 26.64 19.63 26.57 19.76 26.57" style="fill:#fff"/><polygon points="19.76 26.57 19.7 26.64 19.63 26.57 19.76 26.57" style="fill:#fff"/></g></g><polygon points="40 0.06 40 19.18 21.19 0.06 40 0.06" style="fill:#c66e4e"/><rect x="33.38" y="1.73" width="1.6" height="8.32" style="fill:#fff"/><rect x="30.02" y="5.09" width="8.32" height="1.6" style="fill:#fff"/></g></svg>