<svg id="Layer_1" data-name="Layer 1" xmlns="http://www.w3.org/2000/svg" viewBox="0 0 40 40"><g id="Doc_amend_addition" data-name="Doc amend addition"><circle id="Guide" cx="17.81" cy="18.39" r="14.5" style="fill:none;stroke:#fff;stroke-miterlimit:10;stroke-width:0.36503010988235474px"/><rect width="36.5" height="36.5" style="fill:#e0bc80"/><rect width="36.5" height="36.5" style="fill:#e0bc80"/><path d="M31.45,11.64,27.1,16a9.12,9.12,0,0,0-6.47-6.57l4.31-4.31Z" style="fill:#fff"/><path d="M18.19,18.46l-10,10L6.48,26.75C6.65,26.28,11,14.2,12.75,13c1.43-1.23,5,4.69,5.43,5.4Z" style="fill:#fff"/><path d="M23.54,23.83c-1.25,1.69-13.35,6.1-13.79,6.26l-1.56-1.6-.1-.1,10-10h.06C18.82,18.8,24.75,22.35,23.54,23.83Z" style="fill:#fff"/><circle cx="18.25" cy="18.25" r="7.67" style="fill:#fff"/><line x1="7.3" y1="29.2" x2="18.07" y2="18.43" style="fill:none;stroke:#e0bc80;stroke-miterlimit:10;stroke-width:1.460120439529419px"/><circle cx="18.25" cy="18.25" r="2.19" style="fill:#e0bc80"/><circle cx="31.68" cy="31.68" r="8.32" style="fill:#c66e4e"/><polygon points="31.78 25.65 33.58 29.3 37.6 29.88 34.69 32.72 35.38 36.73 31.78 34.84 28.17 36.73 28.86 32.72 25.95 29.88 29.97 29.3 31.78 25.65" style="fill:#fff"/></g></svg>