<svg id="Layer_1" data-name="Layer 1" xmlns="http://www.w3.org/2000/svg" viewBox="0 0 40 40"><g id="Doc_-_petition_-_amend" data-name="Doc - petition - amend"><rect width="40" height="40" style="fill:#e0bc80"/><circle cx="20" cy="20" r="15" style="fill:#afa5aa"/><path d="M19.65,26.6l.07.06.06-.06Z" style="fill:#fff"/><polygon points="13.4 26.6 19.65 26.6 19.72 26.66 19.78 26.6 26.6 26.6 26.6 20.82 29.8 17.62 29.8 29.8 10.2 29.8 10.2 10.2 29.8 10.2 29.8 14.09 27.04 11.33 24.97 13.4 13.4 13.4 13.4 26.6" style="fill:#fff"/><g id="Arrow"><polygon points="19.78 26.6 19.72 26.66 19.65 26.6 19.78 26.6" style="fill:#fff"/><g id="Arrow-2"><path d="M19.65,26.6l.07.06.06-.06Z" style="fill:#fff"/><polygon points="29.3 15.86 29.03 16.13 26.6 18.56 20.16 25 19.94 25.22 14.4 19.68 16.67 17.42 19.94 20.69 27.04 13.59 29.3 15.86" style="fill:#fff"/><polygon points="19.78 26.6 19.72 26.66 19.65 26.6 19.78 26.6" style="fill:#fff"/><polygon points="19.78 26.6 19.72 26.66 19.65 26.6 19.78 26.6" style="fill:#fff"/></g></g><polygon points="40 0 40 19.14 21.17 0 40 0" style="fill:#c66e4e"/><path d="M35.1,4.35,31.34,8.12l-.64-.64c.06-.18,1.7-4.73,2.35-5.2s1.88,1.76,2,2Z" style="fill:#fff"/><path d="M37.15,6.32h0a1.68,1.68,0,0,1-.48.36h-.08l-.08.05h0C35.07,7.4,33.6,8,32.11,8.58H32l-.4-.4-.07-.07L31.39,8h0l1.79-1.78,1.45-1.46.52-.51h0l.7.44C36.47,5.23,37.36,5.94,37.15,6.32Z" style="fill:#fff"/><circle cx="35.13" cy="4.27" r="2.88" style="fill:#fff"/><path d="M35.31,4.58,31.56,8.34l-.07-.07-.43-.4h0l1.8-1.8,2-2,.23.23h0Z" style="fill:#c66e4e"/><circle cx="35.13" cy="4.27" r="0.82" style="fill:#c66e4e"/></g></svg>