<svg id="Layer_1" data-name="Layer 1" xmlns="http://www.w3.org/2000/svg" viewBox="0 0 40 40"><g id="Doc_-_message_-_amend" data-name="Doc - message - amend"><rect width="40" height="40" style="fill:#e0bc80"/><circle cx="20" cy="20" r="15" style="fill:#afa5aa"/><polygon points="29.35 12.89 20.16 19.78 10.73 12.89 29.35 12.89" style="fill:#fff"/><polygon points="30.01 14.4 30.01 27.91 9.99 27.91 9.99 14.34 19.85 21.53 20.18 21.77 21.52 20.76 30.01 14.4" style="fill:#fff"/><polygon points="40 0 40 19.14 21.17 0 40 0" style="fill:#c66e4e"/><path d="M35.1,4.35,31.34,8.12l-.65-.64c.07-.18,1.71-4.73,2.36-5.2s1.88,1.76,2,2Z" style="fill:#fff"/><path d="M37.15,6.32h0a1.92,1.92,0,0,1-.48.37h-.16a43.59,43.59,0,0,1-4.4,1.86H32l-.4-.4-.07-.06-.15-.16h0l1.79-1.78,1.45-1.46.52-.51h0a4,4,0,0,1,.7.45C36.47,5.23,37.36,5.94,37.15,6.32Z" style="fill:#fff"/><circle cx="35.13" cy="4.27" r="2.88" style="fill:#fff"/><path d="M35.31,4.58,31.56,8.34l-.08-.07a5.33,5.33,0,0,1-.42-.4h0l1.8-1.8,1.94-2L35,4.3h0Z" style="fill:#c66e4e"/><circle cx="35.13" cy="4.27" r="0.82" style="fill:#c66e4e"/></g></svg>