<svg id="Layer_1" data-name="Layer 1" xmlns="http://www.w3.org/2000/svg" viewBox="0 0 40 40"><g id="Search"><circle cx="20" cy="20" r="20" style="fill:#c66e4e"/><g id="Guide"><path d="M24.05,11.2a4.4,4.4,0,1,1-4.4,4.4,4.4,4.4,0,0,1,4.4-4.4h0m0-3.2a7.6,7.6,0,1,0,7.6,7.6h0A7.6,7.6,0,0,0,24.05,8Z" style="fill:#fff"/></g><path d="M19.33,22.93l-5.6,5.6a7.65,7.65,0,0,1-2.34-2.19l5.6-5.6A7.65,7.65,0,0,0,19.33,22.93Z" style="fill:#fff"/><path d="M13.13,29.13l-1.8,1.8L9.07,28.67l1.73-1.73A7.39,7.39,0,0,0,13.13,29.13Z" style="fill:#fff"/></g></svg>