<svg id="Layer_1" data-name="Layer 1" xmlns="http://www.w3.org/2000/svg" viewBox="0 0 40 40"><g id="Doc_-_amend_-_add" data-name="Doc - amend - add"><rect width="40" height="40" style="fill:#e0bc80"/><path d="M21.2,0,27,5.89l7.08,7.2,5.92,6V0ZM38.62,20.6l-6-6L25.56,7.4,19.75,1.51,18.34,0H0V40H40V22Z" style="fill:#e0bc80"/><path d="M32.66,14.56l-3,3a10,10,0,0,0-7.08-7.18l3-3Z" style="fill:#fff"/><path d="M19.92,20.24l-11,11L7.05,29.37c.18-.51,5-13.77,6.87-15.11,1.57-1.35,5.48,5.14,6,5.92Z" style="fill:#fff"/><path d="M25.8,26.11C24.43,28,11.2,32.8,10.69,33L8.93,31.24l-.11-.11,11-11h.07C20.62,20.6,27.12,24.5,25.8,26.11Z" style="fill:#fff"/><circle cx="20" cy="20" r="8.4" style="fill:#fff"/><line x1="8" y1="32" x2="19.8" y2="20.2" style="fill:none;stroke:#e0bc80;stroke-miterlimit:10;stroke-width:1.5999999046325684px"/><circle cx="20" cy="20" r="2.4" style="fill:#e0bc80"/><polygon points="40 0 40 19.14 21.17 0 40 0" style="fill:#c66e4e"/><polyline points="37.2 2 37.23 7.84 31.4 6.92" style="fill:none;stroke:#fff;stroke-miterlimit:10;stroke-width:1.5999999046325684px"/></g></svg>