<?xml version="1.0" encoding="utf-8"?>
<!-- Generator: Adobe Illustrator 26.0.1, SVG Export Plug-In . SVG Version: 6.00 Build 0)  -->
<svg version="1.1" id="Layer_1" xmlns="http://www.w3.org/2000/svg" xmlns:xlink="http://www.w3.org/1999/xlink" x="0px" y="0px"
	 viewBox="0 0 40 40" style="enable-background:new 0 0 40 40;" xml:space="preserve">
<g id="Doc_-_background_position_paper_v2">
	<path style="fill:#FFFFFF;" d="M10.3,21.7l0.1,0.1v-0.3L10.3,21.7z"/>
	<rect style="fill:#E0BC80;" width="40" height="40"/>
	<rect x="10.1" y="8.7" style="fill:#FFFFFF;" width="20.2" height="26.8"/>
	<polyline style="fill:none;stroke:#E0BC80;stroke-width:1.5982;stroke-miterlimit:10;" points="31,14.6 24.3,14.6 24.3,8.5 	"/>
	<line style="fill:none;stroke:#E0BC80;stroke-width:4.3952;stroke-miterlimit:10;" x1="23.1" y1="4.4" x2="38.1" y2="19.4"/>
	<path style="fill:#FFFFFF;" d="M18.4,22.8c-0.5,0-1-0.2-1.4-0.6c-0.8-0.8-0.8-2,0-2.7c0.8-0.8,2-0.8,2.7,0c0.8,0.8,0.8,2,0,2.7
		C19.4,22.6,18.9,22.8,18.4,22.8z"/>
	<path style="fill:#E0BC80;" d="M18.4,19.6c0.7,0,1.3,0.6,1.3,1.3c0,0.4-0.1,0.7-0.4,0.9c-0.5,0.5-1.4,0.5-1.9-0.1
		c-0.5-0.5-0.5-1.3,0-1.8C17.7,19.7,18.1,19.6,18.4,19.6 M18.4,18.4c-1.4,0-2.5,1.1-2.5,2.5s1.1,2.5,2.5,2.5s2.5-1.1,2.5-2.5
		c0-0.7-0.3-1.3-0.7-1.8C19.7,18.7,19.1,18.4,18.4,18.4z"/>
	<path style="fill:#FFFFFF;" d="M15.4,19.9c-1.3,0-2.4-1.1-2.4-2.4s1.1-2.4,2.4-2.4c0.6,0,1.2,0.3,1.7,0.7c0.9,0.9,0.9,2.4,0,3.4
		C16.7,19.7,16.1,19.9,15.4,19.9z"/>
	<path style="fill:#E0BC80;" d="M15.4,15.8c1,0,1.8,0.8,1.8,1.8s-0.8,1.8-1.8,1.8s-1.8-0.8-1.8-1.8c0-0.5,0.2-0.9,0.5-1.3
		C14.5,15.9,15,15.7,15.4,15.8 M15.4,14.6c-0.8,0-1.5,0.3-2.1,0.9c-1.2,1.2-1.2,3,0,4.2s3,1.2,4.2,0s1.2-3,0-4.2
		C17,14.9,16.2,14.5,15.4,14.6z"/>
	<path style="fill:#FFFFFF;" d="M9.5,16.7c-1.1,0-2.1-0.6-2.7-1.6c-0.3,0.1-0.6,0.2-0.9,0.2H5.8c-1.6,0-2.9-1.2-3-2.8
		c0-0.7,0.2-1.4,0.6-1.9C3.1,10.2,3,9.7,3,9.3C2.8,7.6,4.1,6.2,5.7,6.1l0,0H6h0.2C6.5,4.9,7.5,4,8.8,3.9c0.1,0,0.1,0,0.2,0
		c0.8,0,1.6,0.3,2.2,0.9c0.4-0.2,0.8-0.3,1.2-0.4h0.2c1.4,0,2.6,0.9,2.9,2.3c1.6,0.2,2.8,1.7,2.6,3.3c-0.1,0.9-0.6,1.7-1.4,2.2
		c0,0.2,0.1,0.3,0.1,0.5c0.1,1.6-1.1,3.1-2.8,3.2l0,0h-0.2c-0.5,0-0.9-0.1-1.3-0.3c-0.6,0.6-1.4,0.9-2.2,1h-0.1c-0.2,0-0.3,0-0.5,0
		L9.5,16.7z"/>
	<path style="fill:#E0BC80;" d="M9,4.5c0.8,0,1.6,0.4,2.1,1.2c0.4-0.4,0.9-0.6,1.4-0.6h0.2c1.3,0,2.3,1,2.4,2.2h0.2
		c1.3,0,2.4,1.1,2.4,2.4c0,1-0.6,1.9-1.6,2.3c0.1,0.3,0.2,0.6,0.2,0.8c0.1,1.3-0.9,2.5-2.2,2.6l0,0h-0.2c-0.5,0-1-0.2-1.4-0.5
		c-0.5,0.7-1.3,1.1-2.2,1.2h-0.1c-0.2,0-0.3,0-0.5,0H9.5c-1.1,0-2.1-0.7-2.4-1.8c-0.4,0.2-0.8,0.4-1.2,0.4H5.8
		c-1.3,0-2.4-1.1-2.4-2.4c0-0.6,0.3-1.2,0.7-1.7c-0.3-0.4-0.5-0.9-0.5-1.3C3.5,7.9,4.5,6.8,5.8,6.7l0,0H6c0.2,0,0.4,0,0.7,0.1
		c0-1.2,1-2.2,2.2-2.3H9 M9,3.3c-0.1,0-0.2,0-0.2,0C7.4,3.4,6.2,4.2,5.7,5.5c-2,0.2-3.5,1.9-3.3,3.9c0,0.4,0.1,0.8,0.3,1.2
		c-1,1.7-0.4,3.9,1.3,4.9C4.5,15.8,5.2,16,5.8,16H6c0.2,0,0.4,0,0.6-0.1c0.7,0.9,1.8,1.5,2.9,1.4h0.1c0.2,0,0.4,0,0.5,0h0.1
		c0.8-0.1,1.6-0.4,2.3-0.9c0.4,0.1,0.8,0.2,1.2,0.2H14c2-0.1,3.5-1.8,3.3-3.8l0,0c0-0.1,0-0.1,0-0.2c1.6-1.2,1.9-3.4,0.7-5
		c-0.5-0.7-1.2-1.2-2.1-1.3C15.4,4.9,14,4,12.5,4h-0.2c-0.4,0-0.8,0.1-1.1,0.3C10.6,3.6,9.8,3.3,9,3.3L9,3.3z"/>
	<polygon style="fill:#C66E4E;" points="40,0.1 40,19.2 21.2,0.1 	"/>
	<rect x="33.4" y="1.7" style="fill:#FFFFFF;" width="1.6" height="8.3"/>
	<rect x="30.1" y="5.1" style="fill:#FFFFFF;" width="8.3" height="1.6"/>
</g>
</svg>
