<svg id="Layer_1" data-name="Layer 1" xmlns="http://www.w3.org/2000/svg" viewBox="0 0 40 40"><g id="Doc_-_legislation_-_referred" data-name="Doc - legislation - referred"><rect width="40" height="40" style="fill:#e0bc80"/><polygon points="35.48 20 31.82 23.54 23.66 31.45 20 34.99 4.52 20 20 5.01 35.48 20" style="fill:#5c2334"/><rect x="20.6" y="8.78" width="3.42" height="11.03" transform="translate(-3.57 19.96) rotate(-45)" style="fill:#fff"/><rect x="12.5" y="16.82" width="3.51" height="11.03" transform="translate(-11.62 16.62) rotate(-45)" style="fill:#fff"/><rect x="24.8" y="20.46" width="3.2" height="11.88" transform="translate(-10.93 26.4) rotate(-45)" style="fill:#fff"/><polygon points="33.6 31.34 32 32.93 31.34 33.6 31.33 33.6 30.07 32.33 32 30.4 32.33 30.07 33.6 31.34" style="fill:#fff"/><polygon points="24.22 18.4 22.84 19.78 19.78 22.84 18.4 24.22 12.58 18.4 18.4 12.58 24.22 18.4" style="fill:#fff"/><polygon points="40 0 40 19.14 21.17 0 40 0" style="fill:#c66e4e"/><polyline points="37.08 1.93 37.11 7.84 31.27 6.92" style="fill:none;stroke:#fff;stroke-miterlimit:10;stroke-width:1.600000023841858px"/></g></svg>