<svg id="Layer_1" data-name="Layer 1" xmlns="http://www.w3.org/2000/svg" viewBox="0 0 40 40"><g id="Navigation_-_specific_person" data-name="Navigation - specific person"><circle cx="20" cy="20" r="20" style="fill:#c66e4e"/><path d="M26.8,20.26v9.89H13V20.26l.24-1.3a7.09,7.09,0,0,1,1-2.14,3.39,3.39,0,0,1,.33-.42,6.79,6.79,0,0,1,3.11-2.16,4.58,4.58,0,0,0,4.4,0A6.82,6.82,0,0,1,25.2,16.4a4.46,4.46,0,0,1,.33.43,7,7,0,0,1,1,2.13l.21,1.14Z" style="fill:#fff"/><path d="M24.51,10.21a4.58,4.58,0,0,1-1.45,3.35l-.22.2a3.47,3.47,0,0,1-.72.48,4.58,4.58,0,0,1-4.4,0,3.47,3.47,0,0,1-.72-.48,2.09,2.09,0,0,1-.22-.2,4.34,4.34,0,0,1-.7-.84,4.6,4.6,0,1,1,8.45-2.51Z" style="fill:#fff"/></g></svg>