<?xml version="1.0" encoding="utf-8"?>
<!-- Generator: Adobe Illustrator 26.0.1, SVG Export Plug-In . SVG Version: 6.00 Build 0)  -->
<svg version="1.1" id="Layer_1" xmlns="http://www.w3.org/2000/svg" xmlns:xlink="http://www.w3.org/1999/xlink" x="0px" y="0px"
	 viewBox="0 0 40 40" style="enable-background:new 0 0 40 40;" xml:space="preserve">
<g id="Clock">
	<g>
		<g>
			<g>
				<defs>
					<rect id="SVGID_1_" x="5" width="29.5" height="40"/>
				</defs>
				<clipPath id="SVGID_00000022525397214963051810000006340419434814700964_">
					<use xlink:href="#SVGID_1_"  style="overflow:visible;"/>
				</clipPath>
				<g style="clip-path:url(#SVGID_00000022525397214963051810000006340419434814700964_);">
					<g>
						<g>
							<g>
								<defs>
									<rect id="SVGID_00000113334148149575081940000007549124242728534416_" x="-0.2" width="40" height="40"/>
								</defs>
								<clipPath id="SVGID_00000163784066839711544420000015973997255273649595_">
									<use xlink:href="#SVGID_00000113334148149575081940000007549124242728534416_"  style="overflow:visible;"/>
								</clipPath>
								<g style="clip-path:url(#SVGID_00000163784066839711544420000015973997255273649595_);">
									<path style="fill:#2E2E3A;" d="M19.5,0h0.6c0,0,0.1,0,0.2,0c0.3,0,0.6,0,0.8,0c2,0.2,4,0.8,5.8,1.9c1,0.6,2,1.4,2.9,2.3
										c0.5,0.5,1,1.1,1.4,1.7c2.1,2.8,3.3,6.3,3.4,9.8v0.1V17v0.1c0,0.1,0,0.2,0,0.2c0,0.3,0,0.6-0.1,0.9
										c-0.1,0.8-0.2,1.6-0.4,2.4c-0.2,0.7-0.4,1.3-0.6,2c-0.4,1.2-1,2.4-1.5,3.6c-0.6,1.2-1.3,2.4-2.1,3.5
										c-0.6,0.8-1.1,1.6-1.8,2.4c-0.4,0.5-0.9,1.1-1.4,1.6c-0.3,0.4-0.7,0.7-1,1.1c-0.4,0.4-0.8,0.8-1.2,1.2
										c-0.5,0.5-1,1-1.6,1.4c-0.8,0.8-1.7,1.4-2.6,2.2c-0.1,0.1-0.3,0.2-0.4,0.3l0,0l0,0l-0.5-0.4c-1.1-0.9-2.2-1.8-3.3-2.8
										c-0.7-0.6-1.4-1.3-2.1-2c-0.4-0.4-0.7-0.8-1.1-1.1s-0.6-0.8-1-1.1s-0.7-0.9-1-1.3c-0.5-0.7-1-1.4-1.5-2.1
										c-0.8-1.2-1.4-2.4-2-3.7c-0.4-1-0.8-1.9-1.2-2.9c-0.2-0.4-0.3-0.9-0.4-1.4c-0.4-1.3-0.6-2.6-0.6-3.9c0-0.1,0-0.2,0-0.2
										v-1.2v-0.1c0-0.2,0-0.4,0-0.6c0-0.4,0.1-0.8,0.1-1.2c0.3-2,0.9-4,1.8-5.7C7.6,7,8.2,6,9.1,5c0.4-0.5,0.9-1,1.4-1.4
										c1.2-1,2.5-1.9,3.9-2.5c0.9-0.4,1.9-0.7,2.9-0.9c0.4-0.1,0.9-0.1,1.3-0.2C18.9,0.1,19.2,0,19.5,0C19.4,0,19.4,0,19.5,0"/>
								</g>
							</g>
						</g>
					</g>
					<g>
						<g>
							<g>
								<defs>
									<rect id="SVGID_00000008138397555991536660000008087033157622529201_" x="-0.2" width="40" height="40"/>
								</defs>
								<clipPath id="SVGID_00000146460036064511300670000002943404388133364621_">
									<use xlink:href="#SVGID_00000008138397555991536660000008087033157622529201_"  style="overflow:visible;"/>
								</clipPath>
								<g style="clip-path:url(#SVGID_00000146460036064511300670000002943404388133364621_);">
									<path style="fill:#2E2E3A;" d="M28.2,13.1c0,4.6-3.8,8.4-8.4,8.4s-8.4-3.8-8.4-8.4s3.8-8.4,8.4-8.4S28.2,8.4,28.2,13.1
										L28.2,13.1"/>
									<path style="fill:#FFFFFF;" d="M26.9,13.1c0,3.9-3.2,7.1-7.1,7.1s-7.1-3.2-7.1-7.1S15.9,6,19.8,6l0,0
										C23.7,6,26.9,9.2,26.9,13.1"/>
									<polygon style="fill:#2E2E3A;" points="20.5,8.2 20.5,14.5 19.1,14 19.1,8.2 									"/>
									<polygon style="fill:#2E2E3A;" points="19.1,13.2 19.4,12.6 20.5,13.1 23.4,14.3 22.9,15.6 20.5,14.5 19.1,14 									"/>
								</g>
							</g>
						</g>
					</g>
				</g>
			</g>
		</g>
	</g>
</g>
</svg>
