<svg id="Layer_1" data-name="Layer 1" xmlns="http://www.w3.org/2000/svg" viewBox="0 0 40 40"><g id="Doc_-_petition_-_blank" data-name="Doc - petition - blank"><rect width="40" height="40" style="fill:#e0bc80"/><circle cx="20" cy="20" r="15" style="fill:#afa5aa"/><polygon points="13.4 26.6 19.65 26.6 19.72 26.66 19.78 26.6 26.6 26.6 26.6 20.82 29.8 17.62 29.8 29.8 10.2 29.8 10.2 10.2 29.8 10.2 29.8 14.09 27.04 11.33 24.97 13.4 13.4 13.4 13.4 26.6" style="fill:#fff"/><g id="Arrow"><polygon points="19.78 26.6 19.72 26.66 19.65 26.6 19.78 26.6" style="fill:#fff"/><g id="Arrow-2"><path d="M19.65,26.6l.07.06.06-.06Z" style="fill:#fff"/><polygon points="29.3 15.86 29.03 16.13 26.6 18.56 20.16 25 19.94 25.22 14.4 19.68 16.67 17.42 19.94 20.69 27.04 13.59 29.3 15.86" style="fill:#fff"/><polygon points="19.78 26.6 19.72 26.66 19.65 26.6 19.78 26.6" style="fill:#fff"/><polygon points="19.78 26.6 19.72 26.66 19.65 26.6 19.78 26.6" style="fill:#fff"/></g></g></g></svg>