<?xml version="1.0" encoding="utf-8"?>
<!-- Generator: Adobe Illustrator 26.0.1, SVG Export Plug-In . SVG Version: 6.00 Build 0)  -->
<svg version="1.1" id="Layer_1" xmlns="http://www.w3.org/2000/svg" xmlns:xlink="http://www.w3.org/1999/xlink" x="0px" y="0px"
	 viewBox="0 0 40 40" style="enable-background:new 0 0 40 40;" xml:space="preserve">
<g>
	<g id="Doc_-_blank">
		<rect y="-0.2" style="fill:#E0BC80;" width="40" height="40.4"/>
		<path style="fill:#FFFFFF;" d="M11.1,39.1l0.1,0.1V39L11.1,39.1z"/>
		<path style="fill:#FFFFFF;" d="M21.8,12c2.4,0,4.4,2,4.4,4.4s-2,4.4-4.4,4.4s-4.4-2-4.4-4.4l0,0C17.5,13.9,19.4,12,21.8,12z"/>
		<path style="fill:#FFFFFF;" d="M6.4,20.4c2.6,2.4,6.6,2.2,9-0.4c0.3-0.4,0.6-0.8,0.9-1.2c0.9,1.7,2.6,2.9,4.5,3.2
			c2,0.3,3.7-0.3,5.3-1.6c0,0.3,0,0.5,0,0.7c0,2.7,0,5.3,0,8c0.1,1.3-1,2.5-2.3,2.5c-0.1,0-0.1,0-0.2,0c-5,0-9.9,0-14.9,0
			c-1.3,0-2.5-1-2.5-2.4c0-0.1,0-0.1,0-0.2c0-2.7,0-5.3,0-8C6.3,20.8,6.4,20.6,6.4,20.4z"/>
		<path style="fill:#FFFFFF;" d="M10.8,12c2.4,0,4.4,2,4.4,4.4s-2,4.4-4.4,4.4s-4.4-2-4.4-4.4l0,0C6.4,13.9,8.4,12,10.8,12z"/>
		<path style="fill:#FFFFFF;" d="M35.9,22.8c0,1.7,0,3.4,0,5.1c0,0.9-0.4,1.2-1.3,0.8c-2.4-1-4.9-2-7.3-3.1
			c-0.2-0.1-0.4-0.3-0.3-0.5c0-1.6,0-3.1,0-4.7c0-0.2,0.1-0.5,0.3-0.5c2.5-1,4.9-2.1,7.4-3.1c0.8-0.3,1.2,0,1.2,0.8
			C35.9,19.4,35.9,21.1,35.9,22.8z"/>
	</g>
	<g id="Doc_-_petition_-_amend">
		<polygon style="fill:#C66E4E;" points="40,-0.2 40,18.9 21.2,-0.2 		"/>
		<polyline style="fill:none;stroke:#FFFFFF;stroke-width:1.6;stroke-miterlimit:10;" points="37.4,1.6 37.5,7.5 31.6,6.6 		"/>
	</g>
</g>
</svg>
