<?xml version="1.0" encoding="utf-8"?>
<!-- Generator: Adobe Illustrator 26.0.1, SVG Export Plug-In . SVG Version: 6.00 Build 0)  -->
<svg version="1.1" id="Layer_1" xmlns="http://www.w3.org/2000/svg" xmlns:xlink="http://www.w3.org/1999/xlink" x="0px" y="0px"
	 viewBox="0 0 40 40" style="enable-background:new 0 0 40 40;" xml:space="preserve">
<style type="text/css">
	.st0{fill:#FFFFFF;}
	.st1{fill:#E0BC80;}
</style>
<g id="Doc_-_petition_-_amend">
	<path class="st0" d="M10.3,21.7l0.1,0.1v-0.3L10.3,21.7z"/>
	<rect class="st1" width="40" height="40"/>
	<g id="Media">
		<path class="st0" d="M21.3,12.6c2.4,0,4.4,2,4.4,4.4s-2,4.4-4.4,4.4s-4.4-2-4.4-4.4l0,0C16.9,14.5,18.9,12.6,21.3,12.6z"/>
		<path class="st0" d="M5.8,21c2.6,2.4,6.6,2.2,9-0.4c0.3-0.4,0.6-0.8,0.9-1.2c0.9,1.7,2.6,2.9,4.5,3.2c2,0.3,3.8-0.3,5.3-1.6
			c0,0.3,0,0.5,0,0.7c0,2.7,0,5.3,0,8c0.1,1.3-1,2.5-2.3,2.5c-0.1,0-0.1,0-0.2,0c-5,0-9.9,0-14.9,0c-1.3,0-2.5-1-2.5-2.4
			c0-0.1,0-0.1,0-0.2c0-2.7,0-5.3,0-8C5.8,21.4,5.8,21.2,5.8,21z"/>
		<path class="st0" d="M10.3,12.6c2.4,0,4.4,2,4.4,4.4s-2,4.4-4.4,4.4s-4.4-2-4.4-4.4l0,0C5.9,14.5,7.8,12.6,10.3,12.6z"/>
		<path class="st0" d="M35.4,23.4c0,1.7,0,3.4,0,5.1c0,0.9-0.4,1.2-1.3,0.8c-2.5-1-4.9-2-7.3-3.1c-0.2-0.1-0.4-0.3-0.3-0.5
			c0-1.6,0-3.1,0-4.7c0-0.2,0.1-0.5,0.4-0.5c2.5-1,4.9-2.1,7.4-3.1c0.8-0.3,1.2,0,1.2,0.8C35.4,19.9,35.4,21.7,35.4,23.4z"/>
	</g>
</g>
</svg>
