<svg id="Layer_1" data-name="Layer 1" xmlns="http://www.w3.org/2000/svg" xmlns:xlink="http://www.w3.org/1999/xlink" viewBox="0 0 40 39.98"><defs><clipPath id="clip-path"><circle cx="20" cy="20" r="20" style="fill:none"/></clipPath></defs><g id="Navigation_-_Quill_logo" data-name="Navigation - Quill logo"><ellipse cx="20" cy="19.99" rx="20" ry="19.99" style="fill:#c66e4e"/><g style="clip-path:url(#clip-path)"><path d="M39,6.59A4.79,4.79,0,0,1,37.52,7.7c-.32.18-.7.37-.7.37-.2.09-.4.19-.72.32s-.86.37-1.29.51c-1.08.34-1.94.4-3.12.69a17,17,0,0,0-9,5.6,18.19,18.19,0,0,0-1.44,2.14h2.88v1.24h-.75v2.12H25.3V31H13.71V20.69h1.9V18.57h-.72V17.29h4.29q2.88-4.06,6.12-7.82c2.44-2.82,4.6-5,6.05-6.41l.78-.75a7.74,7.74,0,0,1,1.3-1.08C35,.41,39.77,5.21,39,6.59Z" style="fill:#fff"/></g><path d="M31.07,3.34" style="fill:#fff"/></g></svg>