<svg id="Layer_1" data-name="Layer 1" xmlns="http://www.w3.org/2000/svg" viewBox="0 0 40 40">
  <g id="Doc_-_rules_-_referred" data-name="Doc - rules - referred">
    <rect width="40" height="40" style="fill: #e0bc80"/>
    <polygon points="20 4.8 6.78 12.4 6.78 27.59 20 35.18 33.21 27.59 33.21 12.4 20 4.8" style="fill: #307294"/>
    <path d="M28.62,18.7a8.82,8.82,0,0,0-5.42-6.82,8.73,8.73,0,0,0-11.83,6.81,8.17,8.17,0,0,0-.1,1.31,8,8,0,0,0,.1,1.29,8.81,8.81,0,0,0,1.8,4.14,9.68,9.68,0,0,0,1.39,1.4,9.25,9.25,0,0,0,2.24,1.29,8.89,8.89,0,0,0,1.9.51,8.65,8.65,0,0,0,2.59,0,9.14,9.14,0,0,0,1.91-.51,8.76,8.76,0,0,0,2.24-1.29,9.13,9.13,0,0,0,1.39-1.39,8.8,8.8,0,0,0,1.8-4.15A9.32,9.32,0,0,0,28.72,20,8,8,0,0,0,28.62,18.7ZM20,26.13A6.13,6.13,0,1,1,26.12,20h0A6.12,6.12,0,0,1,20,26.13Z" style="fill: #fff"/>
    <path d="M13.2,20a7,7,0,0,0,.12,1.29H9.07A11.15,11.15,0,0,1,9,20a11.34,11.34,0,0,1,.08-1.3h4.26A6.31,6.31,0,0,0,13.2,20Z" style="fill: #fff"/>
    <path d="M31,20a9.31,9.31,0,0,1-.08,1.29H26.67A7.05,7.05,0,0,0,26.8,20a6.3,6.3,0,0,0-.13-1.3h4.25A9.45,9.45,0,0,1,31,20Z" style="fill: #fff"/>
    <path d="M21.29,9.08v4.25a6.64,6.64,0,0,0-2.59,0V9.08A11.22,11.22,0,0,1,21.29,9.08Z" style="fill: #fff"/>
    <path d="M21.29,26.68v4.25a11.22,11.22,0,0,1-2.59,0V26.68A7,7,0,0,0,21.29,26.68Z" style="fill: #fff"/>
    <path d="M17.78,13.58a6.79,6.79,0,0,0-2.24,1.29l-1-1.69-1.15-2a10.6,10.6,0,0,1,2.24-1.29l1.16,2Z" style="fill: #fff"/>
    <path d="M26.58,28.82a10.64,10.64,0,0,1-2.24,1.3l-1.15-2-1-1.69a6.79,6.79,0,0,0,2.24-1.29l1,1.69Z" style="fill: #fff"/>
    <path d="M14.86,15.55a6.64,6.64,0,0,0-1.29,2.23l-1.69-1-2-1.15A10.91,10.91,0,0,1,11.2,13.4l2,1.15Z" style="fill: #fff"/>
    <path d="M30.11,24.35a10.6,10.6,0,0,1-1.29,2.24l-2-1.15-1.7-1a6.46,6.46,0,0,0,1.3-2.24l1.69,1Z" style="fill: #fff"/>
    <path d="M14.86,24.45l-1.69,1-2,1.15a10.64,10.64,0,0,1-1.3-2.24l2-1.16,1.69-1A6.59,6.59,0,0,0,14.86,24.45Z" style="fill: #fff"/>
    <path d="M30.11,15.65l-2,1.15-1.69,1a7,7,0,0,0-1.3-2.24l1.68-1,2-1.15A11.13,11.13,0,0,1,30.11,15.65Z" style="fill: #fff"/>
    <path d="M17.78,26.43l-1,1.69-1.15,2a10.26,10.26,0,0,1-2.24-1.31l1.15-2,1-1.69A6.64,6.64,0,0,0,17.78,26.43Z" style="fill: #fff"/>
    <path d="M26.58,11.18l-1.16,2-1,1.69a6.73,6.73,0,0,0-2.25-1.29l1-1.7,1.15-2A11,11,0,0,1,26.58,11.18Z" style="fill: #fff"/>
    <polygon points="40 0 40 19.14 21.17 0 40 0" style="fill: #c66e4e"/>
    <polyline points="37.08 1.94 37.11 7.84 31.27 6.92" style="fill: none;stroke: #fff;stroke-miterlimit: 10;stroke-width: 1.5998400449752808px"/>
  </g>
</svg>
