<?xml version="1.0" encoding="utf-8"?>
<!-- Generator: Adobe Illustrator 26.0.1, SVG Export Plug-In . SVG Version: 6.00 Build 0)  -->
<!DOCTYPE svg PUBLIC "-//W3C//DTD SVG 1.1//EN" "http://www.w3.org/Graphics/SVG/1.1/DTD/svg11.dtd" [
	<!ENTITY st0 "fill:#FFFFFF;">
	<!ENTITY st1 "fill:#E0BC80;">
	<!ENTITY st2 "fill:#C66E4E;">
	<!ENTITY st3 "fill:none;stroke:#FFFFFF;stroke-width:1.5999;stroke-miterlimit:10;">
]>
<svg version="1.1" id="Layer_1" xmlns="http://www.w3.org/2000/svg" xmlns:xlink="http://www.w3.org/1999/xlink" x="0px" y="0px"
	 viewBox="0 0 40 40" style="enable-background:new 0 0 40 40;" xml:space="preserve">
<g>
	<g id="Doc_-_blank">
		<path style="&st0;" d="M19,10.5h1.7c0.6,0,1.2,0,1.8,0c0.5,0,0.9-0.2,1.1-0.7c0.2-0.4,0-0.9-0.4-1.1c-0.1,0-0.2-0.1-0.3-0.1
			c-0.3-0.1-0.4-0.4-0.1-0.6c0.3-0.2,0.5-0.3,0.8-0.4c0.7-0.2,1.4-0.1,2,0.3C25.7,8,25.8,8,25.9,8.1c0.2,0.2,0.2,0.4-0.1,0.5
			c-0.2,0.1-0.3,0.1-0.4,0.2c-0.3,0.2-0.5,0.6-0.3,1s0.5,0.6,0.9,0.6h3.4h0.3v0.3c0,1.1,0,2.3,0,3.4c0,0.1,0,0.2,0,0.3
			c-0.1,0.1-0.2,0.2-0.3,0.3c-0.2,0.1-0.3,0-0.4-0.2l0,0c0-0.1-0.1-0.2-0.1-0.3c-0.1-0.4-0.6-0.6-1-0.5c-0.1,0-0.3,0.1-0.4,0.2
			c-0.4,0.4-0.6,0.9-0.6,1.5c-0.2,0.8,0,1.6,0.5,2.2c0.2,0.2,0.4,0.3,0.6,0.4c0.3,0.1,0.7,0,0.8-0.3v-0.1c0-0.1,0.1-0.3,0.2-0.4
			c0.1-0.2,0.4-0.2,0.6-0.1c0.1,0.1,0.2,0.2,0.2,0.4c0,1.2,0,2.3,0,3.5v0.1c-0.1,0-0.2,0-0.3,0c-1.1,0-2.2,0-3.3,0
			c-0.2,0-0.4,0-0.6,0.1C25.3,21.3,25,21.6,25,22s0.2,0.7,0.5,0.9l0.2,0.1c0.3,0.1,0.4,0.4,0.1,0.6S25.1,24,24.7,24
			c-0.6,0.1-1.2,0-1.8-0.3c-0.1,0-0.2-0.1-0.2-0.2c-0.2-0.2-0.2-0.4,0.1-0.5c0.3-0.1,0.6-0.3,0.7-0.5c0.2-0.5,0-1-0.5-1.2
			c-0.1-0.1-0.2-0.1-0.4-0.1c-1.2,0-2.4,0-3.5,0c-0.3,0-0.3,0-0.3-0.3c0-1.1,0-2.2,0-3.3c0-0.1,0-0.3,0.1-0.4s0.2-0.2,0.3-0.2
			c0.1,0,0.3,0.1,0.4,0.2s0.1,0.2,0.1,0.3c0.1,0.4,0.5,0.6,0.9,0.5c0.1,0,0.3-0.1,0.4-0.3c0.2-0.3,0.4-0.6,0.5-0.9
			c0.3-0.9,0.2-1.8-0.2-2.6c-0.2-0.3-0.5-0.6-0.8-0.6c-0.3-0.1-0.6,0.1-0.7,0.4c-0.1,0.2-0.1,0.3-0.2,0.4c-0.1,0.1-0.2,0.2-0.3,0.2
			c-0.1,0-0.2-0.1-0.3-0.2c0,0,0-0.1,0-0.2C19,13,19,11.7,19,10.5z"/>
		<path style="&st0;" d="M7.7,21.2c0-1.2,0-2.3,0-3.5c0-0.2,0-0.3-0.1-0.5c-0.1-0.4-0.4-0.7-0.8-0.7c-0.4-0.1-0.8,0.2-1,0.6
			c0,0.1,0,0.1-0.1,0.2c-0.1,0.3-0.3,0.4-0.5,0.1c-0.6-0.8-0.7-2-0.2-2.9c0.1-0.1,0.1-0.2,0.2-0.3C5.4,14,5.6,14,5.7,14.3
			S6,14.9,6.3,15c0.5,0.2,1-0.1,1.2-0.6c0-0.1,0.1-0.2,0-0.3c0-1.2,0-2.3,0-3.5v-0.3c0.1,0,0.1,0,0.2,0c1.1,0,2.3,0,3.4,0
			c0.1,0,0.3,0,0.4,0.1c0.1,0.1,0.2,0.2,0.2,0.3s-0.1,0.3-0.2,0.4c-0.1,0.1-0.2,0.1-0.3,0.1c-0.4,0.1-0.6,0.6-0.5,1
			c0,0.1,0.1,0.3,0.3,0.4c0.3,0.2,0.6,0.4,0.9,0.5c0.8,0.3,1.7,0.3,2.4-0.1c0.4-0.1,0.7-0.5,0.8-0.9c0.1-0.3,0-0.7-0.4-0.8
			c-0.1-0.1-0.3-0.1-0.4-0.2c-0.2-0.1-0.3-0.3-0.2-0.5c0-0.1,0.1-0.2,0.3-0.2c0.1,0,0.2,0,0.2,0h3.6h0.1c0,0.1,0,0.2,0,0.3
			c0,1.1,0,2.2,0,3.3c0,0.2,0.1,0.4,0.1,0.6c0.1,0.3,0.4,0.5,0.7,0.5c0.4,0,0.7-0.2,0.9-0.5c0.1-0.1,0.1-0.3,0.2-0.4
			c0-0.1,0.2-0.1,0.2-0.1c0.2,0.1,0.3,0.2,0.4,0.3c0.5,0.9,0.5,1.9,0,2.8c-0.1,0.1-0.2,0.2-0.3,0.2c-0.1,0.1-0.2,0.1-0.3,0
			c0,0,0-0.1-0.1-0.1c0-0.1-0.1-0.2-0.1-0.3c-0.2-0.4-0.6-0.6-1-0.5c-0.5,0.1-0.8,0.5-0.8,1c0,0.7,0,1.3,0,2c0,0.5,0,1,0,1.4
			c0,0.2,0,0.3-0.2,0.3c-1.2,0-2.3,0-3.5,0c-0.3,0-0.5-0.1-0.5-0.4c0-0.2,0.1-0.4,0.3-0.4c0.4-0.1,0.7-0.3,0.7-0.7
			c0-0.4-0.2-0.7-0.5-0.9c-1-0.6-2.7-0.7-3.6,0.1c-0.2,0.1-0.3,0.3-0.4,0.5c-0.2,0.3-0.1,0.7,0.3,0.9c0.1,0,0.1,0.1,0.2,0.1
			c0.2,0.1,0.4,0.1,0.5,0.3c0.1,0.1,0.1,0.3-0.1,0.4h-0.1c-0.1,0-0.2,0.1-0.3,0.1H7.4C7.8,21.2,7.7,21.2,7.7,21.2z"/>
		<path style="&st0;" d="M7.7,32.4v-1.5c0-0.7,0-1.3,0-2c0-0.1,0-0.1,0-0.2c0-0.3,0.1-0.5,0.3-0.5c0.2,0,0.4,0.1,0.5,0.4
			c0,0.1,0,0.1,0.1,0.2c0.1,0.4,0.6,0.6,1,0.5c0.1,0,0.2-0.1,0.3-0.2c0.4-0.4,0.6-0.9,0.6-1.4c0.2-0.7,0-1.5-0.3-2.2
			c-0.2-0.3-0.5-0.6-0.8-0.6c-0.3-0.1-0.6,0.1-0.7,0.3c-0.1,0.2-0.1,0.3-0.2,0.5c-0.1,0.2-0.2,0.3-0.4,0.2c-0.1-0.1-0.3-0.1-0.3-0.3
			c-0.1-0.1-0.1-0.2-0.1-0.3c0-1.2,0-2.3,0-3.5c0,0,0-0.1,0-0.2H8c1.1,0,2.2,0,3.2,0c0.2,0,0.4,0,0.6-0.1c0.3-0.1,0.5-0.4,0.5-0.7
			c0-0.4-0.2-0.7-0.5-0.9c-0.1,0-0.2-0.1-0.2-0.1c-0.3-0.1-0.4-0.4-0.1-0.6c0.2-0.2,0.5-0.3,0.8-0.4c0.7-0.2,1.5-0.1,2.1,0.3
			c0.1,0,0.2,0.1,0.2,0.2c0.2,0.2,0.2,0.4-0.1,0.5c-0.4,0.1-0.7,0.3-0.8,0.7c-0.1,0.5,0.2,1,0.7,1.1c0.1,0,0.2,0,0.3,0
			c1.1,0,2.3,0,3.4,0h0.3c0,0.1,0,0.1,0,0.2c0,1.2,0,2.4,0,3.6c0,0.2-0.1,0.3-0.2,0.5c-0.1,0.1-0.4,0-0.5-0.1s-0.1-0.2-0.2-0.4
			c-0.1-0.4-0.6-0.6-1-0.5c-0.1,0-0.3,0.1-0.4,0.3c-0.3,0.4-0.6,0.9-0.6,1.4c-0.1,0.7,0,1.5,0.3,2.2c0.2,0.3,0.5,0.6,0.9,0.6
			c0.3,0,0.5-0.1,0.6-0.4c0-0.2,0.1-0.3,0.2-0.4s0.2-0.2,0.4-0.2c0.1,0,0.2,0.1,0.3,0.2c0.1,0.1,0.1,0.2,0.1,0.3c0,1.2,0,2.3,0,3.5
			v0.1H18c-1.1,0-2.2,0-3.3,0c-0.2,0-0.5,0.1-0.7,0.2c-0.3,0.1-0.5,0.4-0.4,0.8c0,0.3,0.2,0.7,0.5,0.8c0.1,0,0.2,0.1,0.3,0.1
			c0.3,0.1,0.4,0.4,0.1,0.6c-0.3,0.2-0.6,0.3-0.9,0.4c-0.7,0.2-1.4,0.1-2-0.3c-0.1,0-0.2-0.1-0.3-0.2c-0.2-0.3-0.2-0.4,0.1-0.5
			c0.4-0.1,0.7-0.3,0.8-0.7c0.1-0.5-0.2-1-0.7-1.1c-0.1,0-0.2,0-0.3,0c-1.2,0-2.3,0-3.5,0l0,0V32.4z"/>
	</g>
	<g id="Doc_-_petition_-_amend">
		<rect style="&st1;" width="40" height="40"/>
		<path style="&st0;" d="M19,10.5h1.7c0.6,0,1.2,0,1.8,0c0.5,0,0.9-0.2,1.1-0.7c0.2-0.4,0-0.9-0.4-1.1c-0.1,0-0.2-0.1-0.3-0.1
			c-0.3-0.1-0.4-0.4-0.1-0.6c0.3-0.2,0.5-0.3,0.8-0.4c0.7-0.2,1.4-0.1,2,0.3C25.7,8,25.8,8,25.9,8.1c0.2,0.2,0.2,0.4-0.1,0.5
			c-0.2,0.1-0.3,0.1-0.4,0.2c-0.3,0.2-0.5,0.6-0.3,1s0.5,0.6,0.9,0.6h3.4h0.3v0.3c0,1.1,0,2.3,0,3.4c0,0.1,0,0.2,0,0.3
			c-0.1,0.1-0.2,0.2-0.3,0.3c-0.2,0.1-0.3,0-0.4-0.2l0,0c0-0.1-0.1-0.2-0.1-0.3c-0.1-0.4-0.6-0.6-1-0.5c-0.1,0-0.3,0.1-0.4,0.2
			c-0.4,0.4-0.6,0.9-0.6,1.5c-0.2,0.8,0,1.6,0.5,2.2c0.2,0.2,0.4,0.3,0.6,0.4c0.3,0.1,0.7,0,0.8-0.3v-0.1c0-0.1,0.1-0.3,0.2-0.4
			c0.1-0.2,0.4-0.2,0.6-0.1c0.1,0.1,0.2,0.2,0.2,0.4c0,1.2,0,2.3,0,3.5v0.1c-0.1,0-0.2,0-0.3,0c-1.1,0-2.2,0-3.3,0
			c-0.2,0-0.4,0-0.6,0.1C25.3,21.3,25,21.6,25,22s0.2,0.7,0.5,0.9l0.2,0.1c0.3,0.1,0.4,0.4,0.1,0.6S25.1,24,24.7,24
			c-0.6,0.1-1.2,0-1.8-0.3c-0.1,0-0.2-0.1-0.2-0.2c-0.2-0.2-0.2-0.4,0.1-0.5c0.3-0.1,0.6-0.3,0.7-0.5c0.2-0.5,0-1-0.5-1.2
			c-0.1-0.1-0.2-0.1-0.4-0.1c-1.2,0-2.4,0-3.5,0c-0.3,0-0.3,0-0.3-0.3c0-1.1,0-2.2,0-3.3c0-0.1,0-0.3,0.1-0.4s0.2-0.2,0.3-0.2
			c0.1,0,0.3,0.1,0.4,0.2s0.1,0.2,0.1,0.3c0.1,0.4,0.5,0.6,0.9,0.5c0.1,0,0.3-0.1,0.4-0.3c0.2-0.3,0.4-0.6,0.5-0.9
			c0.3-0.9,0.2-1.8-0.2-2.6c-0.2-0.3-0.5-0.6-0.8-0.6c-0.3-0.1-0.6,0.1-0.7,0.4c-0.1,0.2-0.1,0.3-0.2,0.4c-0.1,0.1-0.2,0.2-0.3,0.2
			c-0.1,0-0.2-0.1-0.3-0.2c0,0,0-0.1,0-0.2C19,13,19,11.7,19,10.5z"/>
		<path style="&st0;" d="M7.7,21.2c0-1.2,0-2.3,0-3.5c0-0.2,0-0.3-0.1-0.5c-0.1-0.4-0.4-0.7-0.8-0.7c-0.4-0.1-0.8,0.2-1,0.6
			c0,0.1,0,0.1-0.1,0.2c-0.1,0.3-0.3,0.4-0.5,0.1c-0.6-0.8-0.7-2-0.2-2.9c0.1-0.1,0.1-0.2,0.2-0.3C5.4,14,5.6,14,5.7,14.3
			S6,14.9,6.3,15c0.5,0.2,1-0.1,1.2-0.6c0-0.1,0.1-0.2,0-0.3c0-1.2,0-2.3,0-3.5v-0.3c0.1,0,0.1,0,0.2,0c1.1,0,2.3,0,3.4,0
			c0.1,0,0.3,0,0.4,0.1c0.1,0.1,0.2,0.2,0.2,0.3s-0.1,0.3-0.2,0.4c-0.1,0.1-0.2,0.1-0.3,0.1c-0.4,0.1-0.6,0.6-0.5,1
			c0,0.1,0.1,0.3,0.3,0.4c0.3,0.2,0.6,0.4,0.9,0.5c0.8,0.3,1.7,0.3,2.4-0.1c0.4-0.1,0.7-0.5,0.8-0.9c0.1-0.3,0-0.7-0.4-0.8
			c-0.1-0.1-0.3-0.1-0.4-0.2c-0.2-0.1-0.3-0.3-0.2-0.5c0-0.1,0.1-0.2,0.3-0.2c0.1,0,0.2,0,0.2,0h3.6h0.1c0,0.1,0,0.2,0,0.3
			c0,1.1,0,2.2,0,3.3c0,0.2,0.1,0.4,0.1,0.6c0.1,0.3,0.4,0.5,0.7,0.5c0.4,0,0.7-0.2,0.9-0.5c0.1-0.1,0.1-0.3,0.2-0.4
			c0-0.1,0.2-0.1,0.2-0.1c0.2,0.1,0.3,0.2,0.4,0.3c0.5,0.9,0.5,1.9,0,2.8c-0.1,0.1-0.2,0.2-0.3,0.2c-0.1,0.1-0.2,0.1-0.3,0
			c0,0,0-0.1-0.1-0.1c0-0.1-0.1-0.2-0.1-0.3c-0.2-0.4-0.6-0.6-1-0.5c-0.5,0.1-0.8,0.5-0.8,1c0,0.7,0,1.3,0,2c0,0.5,0,1,0,1.4
			c0,0.2,0,0.3-0.2,0.3c-1.2,0-2.3,0-3.5,0c-0.3,0-0.5-0.1-0.5-0.4c0-0.2,0.1-0.4,0.3-0.4c0.4-0.1,0.7-0.3,0.7-0.7
			c0-0.4-0.2-0.7-0.5-0.9c-1-0.6-2.7-0.7-3.6,0.1c-0.2,0.1-0.3,0.3-0.4,0.5c-0.2,0.3-0.1,0.7,0.3,0.9c0.1,0,0.1,0.1,0.2,0.1
			c0.2,0.1,0.4,0.1,0.5,0.3c0.1,0.1,0.1,0.3-0.1,0.4h-0.1c-0.1,0-0.2,0.1-0.3,0.1H7.4C7.8,21.2,7.7,21.2,7.7,21.2z"/>
		<path style="&st0;" d="M7.7,32.4v-1.5c0-0.7,0-1.3,0-2c0-0.1,0-0.1,0-0.2c0-0.3,0.1-0.5,0.3-0.5c0.2,0,0.4,0.1,0.5,0.4
			c0,0.1,0,0.1,0.1,0.2c0.1,0.4,0.6,0.6,1,0.5c0.1,0,0.2-0.1,0.3-0.2c0.4-0.4,0.6-0.9,0.6-1.4c0.2-0.7,0-1.5-0.3-2.2
			c-0.2-0.3-0.5-0.6-0.8-0.6c-0.3-0.1-0.6,0.1-0.7,0.3c-0.1,0.2-0.1,0.3-0.2,0.5c-0.1,0.2-0.2,0.3-0.4,0.2c-0.1-0.1-0.3-0.1-0.3-0.3
			c-0.1-0.1-0.1-0.2-0.1-0.3c0-1.2,0-2.3,0-3.5c0,0,0-0.1,0-0.2H8c1.1,0,2.2,0,3.2,0c0.2,0,0.4,0,0.6-0.1c0.3-0.1,0.5-0.4,0.5-0.7
			c0-0.4-0.2-0.7-0.5-0.9c-0.1,0-0.2-0.1-0.2-0.1c-0.3-0.1-0.4-0.4-0.1-0.6c0.2-0.2,0.5-0.3,0.8-0.4c0.7-0.2,1.5-0.1,2.1,0.3
			c0.1,0,0.2,0.1,0.2,0.2c0.2,0.2,0.2,0.4-0.1,0.5c-0.4,0.1-0.7,0.3-0.8,0.7c-0.1,0.5,0.2,1,0.7,1.1c0.1,0,0.2,0,0.3,0
			c1.1,0,2.3,0,3.4,0h0.3c0,0.1,0,0.1,0,0.2c0,1.2,0,2.4,0,3.6c0,0.2-0.1,0.3-0.2,0.5c-0.1,0.1-0.4,0-0.5-0.1s-0.1-0.2-0.2-0.4
			c-0.1-0.4-0.6-0.6-1-0.5c-0.1,0-0.3,0.1-0.4,0.3c-0.3,0.4-0.6,0.9-0.6,1.4c-0.1,0.7,0,1.5,0.3,2.2c0.2,0.3,0.5,0.6,0.9,0.6
			c0.3,0,0.5-0.1,0.6-0.4c0-0.2,0.1-0.3,0.2-0.4s0.2-0.2,0.4-0.2c0.1,0,0.2,0.1,0.3,0.2c0.1,0.1,0.1,0.2,0.1,0.3c0,1.2,0,2.3,0,3.5
			v0.1H18c-1.1,0-2.2,0-3.3,0c-0.2,0-0.5,0.1-0.7,0.2c-0.3,0.1-0.5,0.4-0.4,0.8c0,0.3,0.2,0.7,0.5,0.8c0.1,0,0.2,0.1,0.3,0.1
			c0.3,0.1,0.4,0.4,0.1,0.6c-0.3,0.2-0.6,0.3-0.9,0.4c-0.7,0.2-1.4,0.1-2-0.3c-0.1,0-0.2-0.1-0.3-0.2c-0.2-0.3-0.2-0.4,0.1-0.5
			c0.4-0.1,0.7-0.3,0.8-0.7c0.1-0.5-0.2-1-0.7-1.1c-0.1,0-0.2,0-0.3,0c-1.2,0-2.3,0-3.5,0l0,0V32.4z"/>
		<polygon style="&st2;" points="40,0 40,19.1 21.2,0 		"/>
		<polyline style="&st3;" points="37.1,1.9 37.1,7.8 31.3,6.9 		"/>
	</g>
</g>
</svg>
