<svg id="Layer_1" data-name="Layer 1" xmlns="http://www.w3.org/2000/svg" viewBox="0 0 40 40"><g id="Doc_-_legislation_-_blank" data-name="Doc - legislation - blank"><rect width="40" height="40" style="fill:#e0bc80"/><polygon points="35.48 20 31.82 23.54 23.66 31.45 20 34.99 4.52 20 20 5.01 35.48 20" style="fill:#5c2334"/><rect x="21.4" y="9.57" width="3.42" height="11.03" transform="translate(-3.9 20.76) rotate(-45)" style="fill:#fff"/><rect x="13.3" y="17.64" width="3.51" height="11.03" transform="translate(-11.96 17.43) rotate(-45)" style="fill:#fff"/><rect x="25.6" y="21.26" width="3.2" height="11.88" transform="translate(-11.27 27.2) rotate(-45)" style="fill:#fff"/><polygon points="34.4 32.14 32.8 33.73 32.14 34.4 32.13 34.4 30.87 33.13 32.8 31.2 33.13 30.87 34.4 32.14" style="fill:#fff"/><polygon points="25.02 19.2 23.64 20.57 20.57 23.64 19.2 25.02 13.38 19.2 19.2 13.38 25.02 19.2" style="fill:#fff"/></g></svg>