<?xml version="1.0" encoding="utf-8"?>
<!-- Generator: Adobe Illustrator 26.0.1, SVG Export Plug-In . SVG Version: 6.00 Build 0)  -->
<svg version="1.1" id="Layer_1" xmlns="http://www.w3.org/2000/svg" xmlns:xlink="http://www.w3.org/1999/xlink" x="0px" y="0px"
	 viewBox="0 0 40 40" style="enable-background:new 0 0 40 40;" xml:space="preserve">
<g id="Clock">
	<g>
		<g>
			<g>
				<defs>
					<rect id="SVGID_1_" x="5.1" width="29.5" height="40"/>
				</defs>
				<clipPath id="SVGID_00000004548567095953612560000000254818135333453729_">
					<use xlink:href="#SVGID_1_"  style="overflow:visible;"/>
				</clipPath>
				<g style="clip-path:url(#SVGID_00000004548567095953612560000000254818135333453729_);">
					<g>
						<g>
							<g>
								<defs>
									<rect id="SVGID_00000022560868237278013850000015236233369031876997_" x="-0.1" width="40" height="40"/>
								</defs>
								<clipPath id="SVGID_00000157303773135877066720000008027265951292265376_">
									<use xlink:href="#SVGID_00000022560868237278013850000015236233369031876997_"  style="overflow:visible;"/>
								</clipPath>
								<g style="clip-path:url(#SVGID_00000157303773135877066720000008027265951292265376_);">
									<path style="fill:#2E2E3A;" d="M19.5,0h0.6c0,0,0.1,0,0.2,0c0.3,0,0.6,0,0.8,0c0.6,0.1,1.2,0.2,1.8,0.3
										c1.4,0.3,2.7,0.9,4,1.6c1,0.6,2,1.4,2.9,2.3c0.5,0.5,1,1.1,1.4,1.7c0.6,0.8,1.1,1.6,1.6,2.5c0.5,1,0.9,2,1.2,3.1
										c0.4,1.4,0.6,2.8,0.6,4.2v0.1V17v0.1c0,0.1,0,0.2,0,0.2c0,0.3,0,0.6-0.1,0.9c-0.1,0.8-0.2,1.6-0.4,2.4
										c-0.2,0.7-0.4,1.3-0.6,2c-0.4,1.2-0.9,2.4-1.5,3.6c-0.6,1.2-1.3,2.4-2.1,3.5c-0.6,0.8-1.1,1.6-1.8,2.4
										c-0.4,0.5-0.9,1.1-1.4,1.6c-0.3,0.4-0.7,0.7-1,1.1c-0.4,0.4-0.8,0.8-1.2,1.2c-0.5,0.5-1,1-1.6,1.4
										c-0.8,0.8-1.7,1.5-2.6,2.2c-0.1,0.1-0.3,0.2-0.4,0.3l0,0h-0.1l-0.5-0.4c-1.1-0.9-2.2-1.8-3.3-2.8c-0.7-0.6-1.4-1.3-2.1-2
										c-0.4-0.4-0.7-0.7-1-1.1s-0.6-0.8-1-1.1s-0.7-0.9-1-1.3c-0.5-0.7-1-1.4-1.5-2.1c-0.8-1.2-1.4-2.4-2-3.7
										c-0.4-1-0.8-1.9-1.2-2.9c-0.2-0.5-0.3-1-0.5-1.4c-0.4-1.3-0.6-2.6-0.6-3.9c0-0.1,0-0.2,0-0.2v-1.2v-0.1c0-0.2,0-0.4,0-0.6
										c0-0.4,0.1-0.8,0.1-1.2c0.3-2,0.9-4,1.8-5.7C7.7,7,8.3,5.9,9.2,5c0.4-0.5,0.9-1,1.4-1.4c1.2-1,2.5-1.9,3.9-2.5
										c0.9-0.4,1.9-0.7,2.9-0.9C17.9,0.1,18.3,0,18.7,0C19,0,19.2-0.1,19.5,0L19.5,0"/>
								</g>
							</g>
						</g>
					</g>
				</g>
			</g>
		</g>
	</g>
</g>
</svg>
