<?xml version="1.0" encoding="utf-8"?>
<!-- Generator: Adobe Illustrator 26.0.1, SVG Export Plug-In . SVG Version: 6.00 Build 0)  -->
<!DOCTYPE svg PUBLIC "-//W3C//DTD SVG 1.1//EN" "http://www.w3.org/Graphics/SVG/1.1/DTD/svg11.dtd" [
	<!ENTITY st0 "fill:#FFFFFF;">
	<!ENTITY st1 "fill:#E0BC80;">
	<!ENTITY st2 "fill:#C66E4E;">
]>
<svg version="1.1" id="Layer_1" xmlns="http://www.w3.org/2000/svg" xmlns:xlink="http://www.w3.org/1999/xlink" x="0px" y="0px"
	 viewBox="0 0 40 40" style="enable-background:new 0 0 40 40;" xml:space="preserve">
<g id="Doc_-_petition_-_amend">
	<path style="&st0;" d="M10.3,21.7l0.1,0.1v-0.3L10.3,21.7z"/>
	<rect style="&st1;" width="40" height="40"/>
	<polygon style="&st2;" points="40,0 40,19.1 21.2,0 	"/>
	<rect x="33.4" y="1.3" style="&st0;" width="1.6" height="8.3"/>
	<rect x="30.1" y="4.7" style="&st0;" width="8.3" height="1.6"/>
	<path style="&st0;" d="M17.4,10.1h1.7c0.6,0,1.2,0,1.8,0c0.5,0,0.9-0.2,1.1-0.7c0.2-0.4,0-0.9-0.4-1.1c-0.1,0-0.2-0.1-0.3-0.1
		c-0.3-0.1-0.4-0.4-0.1-0.6s0.5-0.3,0.8-0.4c0.7-0.2,1.4-0.1,2,0.3c0.1,0,0.2,0.1,0.2,0.2c0.2,0.2,0.2,0.4-0.1,0.5
		c-0.2,0.1-0.3,0.1-0.4,0.2c-0.3,0.2-0.5,0.6-0.3,1s0.5,0.6,0.9,0.6h3.4H28v0.3c0,1.1,0,2.3,0,3.4c0,0.1,0,0.2,0,0.3
		c-0.1,0.1-0.2,0.2-0.3,0.3c-0.2,0.1-0.3,0-0.4-0.2l0,0c0-0.1-0.1-0.2-0.1-0.3c-0.1-0.4-0.6-0.6-1-0.5c-0.1,0-0.3,0.1-0.4,0.2
		c-0.4,0.4-0.6,0.9-0.6,1.5c-0.2,0.8,0,1.6,0.5,2.2c0.2,0.2,0.4,0.3,0.6,0.4c0.3,0.1,0.7,0,0.8-0.3v-0.1c0-0.1,0.1-0.3,0.2-0.4
		c0.1-0.2,0.4-0.2,0.6-0.1c0.1,0.1,0.2,0.2,0.2,0.4c0,1.2,0,2.3,0,3.5v0.1c-0.1,0-0.2,0-0.3,0c-1.1,0-2.2,0-3.3,0
		c-0.2,0-0.4,0-0.6,0.1c-0.3,0.1-0.6,0.4-0.6,0.8s0.2,0.7,0.5,0.9l0.2,0.1c0.3,0.1,0.4,0.4,0.1,0.6s-0.7,0.4-1.1,0.4
		c-0.6,0.1-1.2,0-1.8-0.3c-0.1,0-0.2-0.1-0.2-0.2c-0.2-0.2-0.2-0.4,0.1-0.5c0.3-0.1,0.5-0.3,0.7-0.5c0.2-0.5,0-1-0.5-1.2
		c-0.1-0.1-0.2-0.1-0.4-0.1c-1.2,0-2.4,0-3.5,0c-0.3,0-0.3,0-0.3-0.3c0-1.1,0-2.2,0-3.3c0-0.1,0-0.3,0.1-0.4s0.2-0.2,0.3-0.2
		c0.1,0,0.3,0.1,0.4,0.2S18,17,18,17.1c0.1,0.4,0.5,0.6,0.9,0.5c0.1,0,0.3-0.1,0.4-0.3c0.2-0.3,0.4-0.6,0.5-0.9
		c0.3-0.9,0.2-1.8-0.2-2.6c-0.2-0.3-0.5-0.6-0.8-0.6c-0.3-0.1-0.6,0.1-0.7,0.4C18,13.8,18,13.9,17.9,14c-0.1,0.1-0.2,0.2-0.3,0.2
		c-0.1,0-0.2-0.1-0.3-0.2c-0.1-0.1-0.1-0.2-0.1-0.3C17.4,12.6,17.4,11.3,17.4,10.1z"/>
	<path style="&st0;" d="M6.1,20.8c0-1.2,0-2.3,0-3.5c0-0.2,0-0.3-0.1-0.5c-0.1-0.4-0.4-0.7-0.8-0.7c-0.4-0.1-0.8,0.2-1,0.6
		c0,0.1,0,0.1-0.1,0.2C4,17.2,3.8,17.3,3.6,17c-0.6-0.8-0.7-2-0.2-2.9c0.1-0.1,0.1-0.2,0.2-0.3C4,13.6,4.1,13.7,4.3,14
		c0.1,0.3,0.3,0.6,0.6,0.7c0.5,0.2,1-0.1,1.2-0.6c0-0.1,0.1-0.2,0-0.3c0-1.2,0-2.3,0-3.5V10c0.1,0,0.1,0,0.2,0h3.4
		c0.1,0,0.3,0,0.4,0.1c0.1,0.1,0.2,0.2,0.2,0.3s-0.1,0.3-0.2,0.4c-0.1,0.1-0.2,0.1-0.3,0.1c-0.4,0.1-0.6,0.6-0.5,1
		c0,0.1,0.1,0.3,0.3,0.4c0.3,0.2,0.6,0.4,0.9,0.5c0.8,0.3,1.7,0.3,2.4-0.1c0.4-0.1,0.7-0.5,0.8-0.9c0.1-0.3,0-0.7-0.4-0.8
		c-0.1-0.1-0.3-0.1-0.4-0.2c-0.2-0.1-0.3-0.3-0.2-0.5c0-0.1,0.1-0.2,0.3-0.2c0.1,0,0.2,0,0.2,0l3.6-0.1h0.1c0,0.1,0,0.2,0,0.3
		c0,1.1,0,2.2,0,3.3c0,0.2,0.1,0.4,0.1,0.6c0.1,0.3,0.4,0.5,0.7,0.5c0.4,0,0.7-0.2,0.9-0.5c0.1-0.1,0.1-0.3,0.2-0.4
		c0-0.1,0.2-0.1,0.2-0.1c0.2,0.1,0.3,0.2,0.4,0.3c0.5,0.9,0.5,1.9,0,2.8c-0.1,0.1-0.2,0.2-0.3,0.2c-0.1,0.1-0.2,0.1-0.3,0
		c0,0,0-0.1-0.1-0.1c0-0.1-0.1-0.2-0.1-0.3c-0.2-0.4-0.6-0.6-1-0.5c-0.5,0.1-0.8,0.5-0.8,1c0,0.7,0,1.3,0,2c0,0.5,0,1,0,1.4
		c0,0.2,0,0.3-0.2,0.3c-1.2,0-2.3,0-3.5,0c-0.3,0-0.5-0.1-0.5-0.4c0-0.2,0.1-0.4,0.3-0.4c0.4-0.1,0.7-0.3,0.7-0.7
		c0-0.4-0.2-0.7-0.5-0.9c-1-0.6-2.7-0.7-3.6,0.1c-0.2,0.1-0.3,0.3-0.4,0.5c-0.2,0.3-0.1,0.7,0.3,0.9c0.1,0,0.1,0.1,0.2,0.1
		c0.2,0.1,0.4,0.1,0.5,0.3c0.1,0.1,0.1,0.3-0.1,0.4H9.9c-0.1,0-0.2,0.1-0.3,0.1L6.1,20.8C6.2,20.8,6.1,20.8,6.1,20.8z"/>
	<path style="&st0;" d="M6.1,32v-1.5c0-0.7,0-1.3,0-2c0-0.1,0-0.1,0-0.2c0-0.3,0.1-0.5,0.3-0.5c0.2,0,0.4,0.1,0.5,0.4
		c0,0.1,0,0.1,0.1,0.2c0.1,0.4,0.6,0.6,1,0.5c0.1,0,0.2-0.1,0.3-0.2c0.4-0.4,0.6-0.9,0.6-1.4c0.2-0.7,0-1.5-0.3-2.2
		c-0.2-0.3-0.5-0.5-0.8-0.6s-0.6,0.1-0.7,0.3C7,25,7,25.1,6.9,25.3s-0.2,0.3-0.4,0.2c-0.1-0.1-0.3-0.1-0.3-0.3
		c-0.1-0.1-0.1-0.2-0.1-0.3c0-1.2,0-2.3,0-3.5c0,0,0-0.1,0-0.2h0.3c1.1,0,2.2,0,3.2,0c0.2,0,0.4,0,0.6-0.1c0.3-0.1,0.5-0.4,0.5-0.7
		c0-0.4-0.2-0.7-0.5-0.9c-0.1,0-0.2-0.1-0.2-0.1c-0.3-0.1-0.4-0.4-0.1-0.6c0.2-0.2,0.5-0.3,0.8-0.4c0.7-0.2,1.5-0.1,2.1,0.3
		c0.1,0,0.2,0.1,0.2,0.2c0.2,0.2,0.2,0.4-0.1,0.5c-0.4,0.1-0.7,0.3-0.8,0.7c-0.1,0.5,0.2,1,0.7,1.1c0.1,0,0.2,0,0.3,0
		c1.1,0,2.3,0,3.4,0c0.1,0,0.2,0,0.3,0c0,0.1,0,0.1,0,0.2c0,1.2,0,2.4,0,3.6c0,0.2-0.1,0.3-0.2,0.5c-0.1,0.1-0.4,0-0.5-0.1
		S16,25.2,15.9,25c-0.1-0.4-0.6-0.6-1-0.5c-0.1,0-0.3,0.1-0.4,0.3c-0.3,0.4-0.6,0.9-0.6,1.4c-0.2,0.7,0,1.5,0.3,2.2
		c0.2,0.3,0.5,0.6,0.9,0.6c0.3,0,0.5-0.1,0.6-0.4c0-0.2,0.1-0.3,0.2-0.4c0.1-0.1,0.2-0.2,0.4-0.2c0.1,0,0.2,0.1,0.3,0.2
		c0.1,0.1,0.1,0.2,0.1,0.3c0,1.2,0,2.3,0,3.5v0.1h-0.3c-1.1,0-2.2,0-3.3,0c-0.2,0-0.5,0.1-0.7,0.2c-0.3,0.1-0.5,0.4-0.4,0.8
		c0,0.3,0.2,0.7,0.5,0.8c0.1,0,0.2,0.1,0.3,0.1c0.3,0.1,0.4,0.4,0.1,0.6c-0.3,0.2-0.6,0.3-0.9,0.4c-0.7,0.2-1.4,0.1-2-0.3
		c-0.1,0-0.2-0.1-0.3-0.2c-0.2-0.3-0.2-0.4,0.1-0.5c0.4-0.1,0.7-0.3,0.8-0.7c0.1-0.5-0.2-1-0.7-1.1c-0.1,0-0.2,0-0.3,0
		c-1.2,0-2.3,0-3.5,0L6.1,32z"/>
</g>
</svg>
