<svg id="Layer_1" data-name="Layer 1" xmlns="http://www.w3.org/2000/svg" viewBox="0 0 40 40"><g id="Small_-_committee_session_v2" data-name="Small - committee session v2"><circle cx="20" cy="20" r="20" style="fill:#5c5346"/><polygon points="34.22 18.24 34.22 20.28 33.14 20.28 33.14 30.64 31.08 30.64 31.08 28.64 9.23 28.64 9.23 30.64 7.17 30.64 7.17 20.28 6.13 20.28 6.13 18.24 34.22 18.24" style="fill:#fff"/><rect x="6.13" y="18.22" width="28.09" height="0.02" style="fill:#fff"/><polygon points="15.81 16.64 19.55 16.64 19.55 16.64 15.81 16.64" style="fill:#fff"/><polygon points="20.7 16.64 24.44 16.64 24.44 16.64 20.7 16.64" style="fill:#fff"/><path d="M22.94,10.72a2.73,2.73,0,0,1-.45,1.52,2.86,2.86,0,0,1-.42.5l-.13.12a2.57,2.57,0,0,1-.44.29,2.74,2.74,0,0,1-2.66,0,2.57,2.57,0,0,1-.44-.29l-.14-.12a2.59,2.59,0,0,1-.42-.51,2.77,2.77,0,1,1,4.42-3.34,2.46,2.46,0,0,1,.22.34,2.74,2.74,0,0,1,.46,1.52Z" style="fill:#fff"/><path d="M14.88,10.8a2.74,2.74,0,1,1-2.74-2.74,2.7,2.7,0,0,1,1.58.5A2.73,2.73,0,0,1,14.88,10.8Z" style="fill:#fff"/><path d="M31.14,10.8A2.73,2.73,0,1,1,30,8.55a2.72,2.72,0,0,1,1.15,2.25Z" style="fill:#fff"/><polygon points="16.04 16.64 19.58 16.64 19.58 16.64 16.04 16.64" style="fill:#fff"/><path d="M24.21,16.64H16l.09-.46.06-.32a4.08,4.08,0,0,1,.59-1.27v-.06a1.33,1.33,0,0,1,.14-.19,4.07,4.07,0,0,1,1.83-1.28,2.71,2.71,0,0,0,2.62,0,4.1,4.1,0,0,1,1.84,1.28h0l.12.17.05.06a4.59,4.59,0,0,1,.59,1.27l.06.32.06.36Z" style="fill:#fff"/><polygon points="20.66 16.64 24.2 16.64 24.2 16.64 20.66 16.64" style="fill:#fff"/><polygon points="16.04 16.64 19.58 16.64 19.58 16.64 16.04 16.64" style="fill:#fff"/><polygon points="20.66 16.64 24.2 16.64 24.2 16.64 20.66 16.64" style="fill:#fff"/><path d="M16,16.64H8.06a3.79,3.79,0,0,1,3.79-3.78h.38A3.78,3.78,0,0,1,16,16.18Z" style="fill:#fff"/><path d="M32.28,16.64h-8a3.53,3.53,0,0,1,0-.46A3.79,3.79,0,0,1,28,12.86h.37a3.8,3.8,0,0,1,3.87,3.71Z" style="fill:#fff"/><circle cx="20" cy="28" r="8.15" style="fill:#5c5346"/><circle cx="20" cy="28" r="6.85" style="fill:#fff"/><polygon points="20.65 23.27 20.65 29.41 19.35 28.87 19.35 23.27 20.65 23.27" style="fill:#5c5346"/><polygon points="19.35 28.16 19.6 27.56 20.65 28 23.51 29.19 23.01 30.4 20.65 29.41 19.35 28.87 19.35 28.16" style="fill:#5c5346"/></g></svg>