<svg id="Layer_1" data-name="Layer 1" xmlns="http://www.w3.org/2000/svg" viewBox="0 0 40 40"><g id="Doc_-_legislation_-_amend" data-name="Doc - legislation - amend"><rect width="40" height="40" style="fill:#e0bc80"/><polygon points="35.48 20 31.82 23.54 23.66 31.45 20 34.99 4.52 20 20 5.01 35.48 20" style="fill:#5c2334"/><rect x="20.6" y="8.78" width="3.42" height="11.03" transform="translate(-3.57 19.96) rotate(-45)" style="fill:#fff"/><rect x="12.5" y="16.82" width="3.51" height="11.03" transform="translate(-11.62 16.62) rotate(-45)" style="fill:#fff"/><rect x="24.8" y="20.46" width="3.2" height="11.88" transform="translate(-10.93 26.4) rotate(-45)" style="fill:#fff"/><polygon points="33.6 31.34 32 32.93 31.34 33.6 31.33 33.6 30.07 32.33 32 30.4 32.33 30.07 33.6 31.34" style="fill:#fff"/><polygon points="24.22 18.4 22.84 19.78 19.78 22.84 18.4 24.22 12.58 18.4 18.4 12.58 24.22 18.4" style="fill:#fff"/><polygon points="40 0 40 19.14 21.17 0 40 0" style="fill:#c66e4e"/><path d="M35.1,4.35,31.34,8.12l-.64-.64c.06-.18,1.7-4.73,2.35-5.2s1.88,1.76,2,2Z" style="fill:#fff"/><path d="M37.15,6.32h0a1.68,1.68,0,0,1-.48.36h-.08l-.08.05h0C35.07,7.4,33.6,8,32.11,8.58H32l-.4-.4-.07-.07L31.39,8h0l1.79-1.78,1.45-1.46.52-.51h0l.7.44C36.47,5.23,37.36,5.94,37.15,6.32Z" style="fill:#fff"/><circle cx="35.13" cy="4.27" r="2.88" style="fill:#fff"/><path d="M35.31,4.58,31.56,8.34l-.07-.07-.43-.4h0l1.8-1.8,2-2,.23.23h0Z" style="fill:#c66e4e"/><circle cx="35.13" cy="4.27" r="0.82" style="fill:#c66e4e"/></g></svg>