<svg id="Layer_1" data-name="Layer 1" xmlns="http://www.w3.org/2000/svg" viewBox="0 0 40 40"><g id="Navigation_-_issue" data-name="Navigation - issue"><circle cx="20" cy="20" r="20" style="fill:#c66e4e"/><path d="M34.15,18.43v-.06h0L34,18.2c-.4-.52-1.36-1.83-2.14-2.8A11.22,11.22,0,0,0,29.3,13a4.84,4.84,0,0,0-1.85-.83,3.71,3.71,0,0,0-3.75,1,.32.32,0,0,1-.27.07c-.6-.06-1.2-.12-1.81-.2a.71.71,0,0,1-.36-.17,1.9,1.9,0,0,0-2.69,0h0a1,1,0,0,1-.49.23c-.47.07-1,.1-1.43.17a.41.41,0,0,1-.4-.14,3,3,0,0,0-1.88-1,4.84,4.84,0,0,0-3.12.59c-1.14.66-4.64,4.84-4.84,5.11L8,16.9c2.17-1,6.51-.11,6.51-.11L15.68,19a5.45,5.45,0,0,1,1.12,2.11l1.43,2.69s.08-.31.18-.75a15.92,15.92,0,0,0,.47-2.83,11,11,0,0,0-.4-3.17.37.37,0,0,1,.11-.43c.16-.15.29-.35.44-.51a.31.31,0,0,1,.2-.11,2,2,0,0,0,1.56-.11,3.45,3.45,0,0,0,.45.56.74.74,0,0,1,.22.87,14.36,14.36,0,0,0,.12,5.58c.11.56.2.91.2.91l1.37-2.46a5.48,5.48,0,0,1,1.47-2.66h0l.88-1.57,1.36.22A5.71,5.71,0,0,1,28.54,17a5.52,5.52,0,0,1,3.24,1l2.37.4Zm-14.27-3a1.28,1.28,0,1,1,1.28-1.28h0a1.28,1.28,0,0,1-1.28,1.28Z" style="fill:#fff"/><path d="M11.48,15.6A6.9,6.9,0,1,0,18.4,23v-.4A7,7,0,0,0,11.48,15.6Zm0,12.51A5.54,5.54,0,1,1,17,22.52a5.54,5.54,0,0,1-5.52,5.59Z" style="fill:#fff"/><path d="M34.16,18.44h0v-.11L34,18.2a7,7,0,0,0-12.4,4.4v.25a7,7,0,1,0,12.57-4.4Zm-5.63,9.65A5.55,5.55,0,0,1,23,22.56h0a5.19,5.19,0,0,1,.15-1.24,5.48,5.48,0,0,1,1.47-2.66h0a5.66,5.66,0,0,1,2.24-1.35,5.35,5.35,0,0,1,1.68-.3,5.54,5.54,0,0,1,0,11.08Z" style="fill:#fff"/><path d="M8.1,24.18a4,4,0,0,1,1.2-4.6,4.07,4.07,0,0,1,5-.16,4.82,4.82,0,0,0-6,3.25v0a4.87,4.87,0,0,0-.19,1.47Z" style="fill:#fff"/><path d="M25.1,24.24a4.1,4.1,0,0,1,6.23-4.81,4.86,4.86,0,0,0-6,3.25,5.09,5.09,0,0,0-.21,1.55Z" style="fill:#fff"/></g></svg>