<svg id="Layer_1" data-name="Layer 1" xmlns="http://www.w3.org/2000/svg" viewBox="0 0 40 40"><rect id="Protect_shape" data-name="Protect shape" y="0.2" width="40" height="39.8" style="fill:none"/><g id="Procedure_-_procedural_motion" data-name="Procedure - procedural motion"><polygon points="20 0 2.6 9.95 2.6 29.85 20 39.8 37.4 29.85 37.4 9.95 20 0" style="fill:#307294"/><path d="M30.44,18.31A9.33,9.33,0,0,0,29.8,16a12.16,12.16,0,0,0-1.56-2.71,8.86,8.86,0,0,0-1.68-1.67,10.54,10.54,0,0,0-5-2.19,10.2,10.2,0,0,0-3.12,0,10.59,10.59,0,0,0-9,10.47,10,10,0,0,0,.12,1.55,10.76,10.76,0,0,0,2.2,5,9.83,9.83,0,0,0,1.68,1.67,10.19,10.19,0,0,0,2.72,1.55,11.74,11.74,0,0,0,2.32.64,10.2,10.2,0,0,0,3.12,0,10.6,10.6,0,0,0,8.28-6.57,11.65,11.65,0,0,0,.64-2.31,10,10,0,0,0,.12-1.55C30.56,19.38,30.52,18.87,30.44,18.31ZM20,27.31a7.4,7.4,0,1,1,7.44-7.4A7.4,7.4,0,0,1,20,27.31Z" style="fill:#fff"/><path d="M11.76,19.9a6.75,6.75,0,0,0,.16,1.55H6.76a10,10,0,0,1-.08-1.55,10.59,10.59,0,0,1,.08-1.59h5.16A7.09,7.09,0,0,0,11.76,19.9Z" style="fill:#fff"/><path d="M33.32,19.9a10,10,0,0,1-.08,1.55H28.1a8.08,8.08,0,0,0,0-3.1h5.16A6.69,6.69,0,0,1,33.32,19.9Z" style="fill:#fff"/><path d="M21.56,6.73v5.13a8.19,8.19,0,0,0-3.12,0V6.73A13.57,13.57,0,0,1,21.56,6.73Z" style="fill:#fff"/><path d="M21.56,27.94v5.13a13.57,13.57,0,0,1-3.12,0V27.94A8.19,8.19,0,0,0,21.56,27.94Z" style="fill:#fff"/><path d="M17.32,12.14a8.76,8.76,0,0,0-2.72,1.55l-1.2-2L12,9.27a12.42,12.42,0,0,1,2.72-1.55l1.38,2.39Z" style="fill:#fff"/><path d="M28,30.53a12.42,12.42,0,0,1-2.72,1.55l-1.4-2.43-1.2-2A8.76,8.76,0,0,0,25.4,26.1l1.2,2Z" style="fill:#fff"/><path d="M13.8,14.53a8.12,8.12,0,0,0-1.56,2.7L10.2,16,7.8,14.65a14,14,0,0,1,1.56-2.71l2.44,1.39Z" style="fill:#fff"/><path d="M32.28,25.15a12.16,12.16,0,0,1-1.56,2.71l-2.44-1.39-2-1.2a8.12,8.12,0,0,0,1.56-2.7l2,1.19Z" style="fill:#fff"/><path d="M13.76,25.27l-2,1.2-2.4,1.39A12.16,12.16,0,0,1,7.8,25.15l2.4-1.39,2-1.19A8.58,8.58,0,0,0,13.76,25.27Z" style="fill:#fff"/><path d="M32.24,14.65,29.84,16l-2,1.19a8.58,8.58,0,0,0-1.56-2.7l2-1.2,2.4-1.39A12.26,12.26,0,0,1,32.24,14.65Z" style="fill:#fff"/><path d="M17.32,27.66l-1.2,2-1.4,2.39A12.42,12.42,0,0,1,12,30.5l1.4-2.39,1.2-2A8.76,8.76,0,0,0,17.32,27.66Z" style="fill:#fff"/><path d="M28,9.27l-1.4,2.39-1.2,2a8,8,0,0,0-2.72-1.55l1.2-2,1.4-2.39A11.46,11.46,0,0,1,28,9.27Z" style="fill:#fff"/></g></svg>