<?xml version="1.0" encoding="utf-8"?>
<!-- Generator: Adobe Illustrator 26.0.1, SVG Export Plug-In . SVG Version: 6.00 Build 0)  -->
<!DOCTYPE svg PUBLIC "-//W3C//DTD SVG 1.1//EN" "http://www.w3.org/Graphics/SVG/1.1/DTD/svg11.dtd" [
	<!ENTITY st0 "fill:#E0BC80;">
	<!ENTITY st1 "fill:#FFFFFF;">
	<!ENTITY st2 "fill:#C66E4E;">
]>
<svg version="1.1" id="Layer_1" xmlns="http://www.w3.org/2000/svg" xmlns:xlink="http://www.w3.org/1999/xlink" x="0px" y="0px"
	 viewBox="0 0 40 40" style="enable-background:new 0 0 40 40;" xml:space="preserve">
<g>
	<g id="Doc_-_blank">
		<rect style="&st0;" width="40" height="40"/>
		<path style="&st1;" d="M11.1,38.9l0.1,0.1v-0.3L11.1,38.9z"/>
		<polygon style="&st1;" points="16,24.6 15.6,24.6 15.6,24.6 15.6,24.6 15.6,24.6 		"/>
		<path style="&st1;" d="M21.8,12.1c2.4,0,4.4,1.9,4.4,4.4c0,2.4-2,4.4-4.4,4.4s-4.4-1.9-4.4-4.4l0,0C17.5,14,19.4,12.1,21.8,12.1z"
			/>
		<path style="&st1;" d="M6.4,20.4c2.6,2.4,6.6,2.2,9-0.4c0.3-0.4,0.6-0.8,0.9-1.2c0.9,1.7,2.6,2.9,4.5,3.2c2,0.3,3.7-0.3,5.3-1.6
			c0,0.3,0,0.5,0,0.7c0,2.6,0,5.3,0,7.9c0.1,1.3-1,2.4-2.3,2.5c-0.1,0-0.1,0-0.2,0c-5,0-9.9,0-14.9,0c-1.3,0-2.5-1-2.5-2.3
			c0-0.1,0-0.1,0-0.2c0-2.6,0-5.3,0-7.9C6.3,20.8,6.4,20.6,6.4,20.4z"/>
		<path style="&st1;" d="M10.8,12.1c2.4,0,4.4,1.9,4.4,4.4c0,2.4-2,4.4-4.4,4.4S6.4,19,6.4,16.5l0,0C6.4,14,8.4,12.1,10.8,12.1z"/>
		<path style="&st1;" d="M35.9,22.8c0,1.7,0,3.4,0,5c0,0.9-0.4,1.2-1.3,0.8c-2.4-1-4.9-2-7.3-3c-0.2-0.1-0.4-0.3-0.3-0.5
			c0-1.5,0-3.1,0-4.6c0-0.2,0.1-0.5,0.3-0.5c2.5-1,4.9-2.1,7.4-3.1c0.8-0.3,1.2,0,1.2,0.8C35.9,19.4,35.9,21.1,35.9,22.8z"/>
	</g>
	<g id="Doc_-_petition_-_amend">
		<polygon style="&st2;" points="40,0 40,18.9 21.2,0 		"/>
		<path style="&st1;" d="M35.1,4.2l-3.8,3.7l-0.6-0.6c0.1-0.2,1.7-4.7,2.4-5.1C33.5,1.7,34.9,3.9,35.1,4.2L35.1,4.2z"/>
		<path style="&st1;" d="M37.1,6.1L37.1,6.1L37.1,6.1c-0.2,0.2-0.3,0.3-0.5,0.4h-0.1h-0.1l0,0c-1.4,0.8-2.9,1.4-4.4,2h-0.1l-0.4-0.4
			L31.4,8l-0.2-0.1l0,0L33,6.1l1.5-1.4L35,4.1l0,0l0,0c0.1,0.1,0.4,0.2,0.7,0.4C36.4,5,37.3,5.7,37.1,6.1z"/>
		<ellipse style="&st1;" cx="35.1" cy="4.1" rx="2.9" ry="2.9"/>
		<path style="&st2;" d="M35.3,4.4l-3.8,3.7L31.4,8c-0.2-0.1-0.3-0.3-0.4-0.4l0,0l1.8-1.8l2-1.9L35,4.1l0,0L35.3,4.4z"/>
		<ellipse style="&st2;" cx="35.1" cy="4.1" rx="0.8" ry="0.8"/>
	</g>
</g>
</svg>
