<svg id="Layer_1" data-name="Layer 1" xmlns="http://www.w3.org/2000/svg" viewBox="0 0 40 40"><g id="Navigation_-_committee" data-name="Navigation - committee"><circle cx="20" cy="20" r="20" style="fill:#c66e4e"/><polygon points="34.04 18.4 34.04 20.44 32.97 20.44 32.97 30.8 30.91 30.8 30.91 28.8 9.06 28.8 9.06 30.8 7 30.8 7 20.44 5.96 20.44 5.96 18.4 34.04 18.4" style="fill:#fff"/><rect x="5.96" y="18.38" width="28.09" height="0.02" style="fill:#fff"/><polygon points="15.64 16.8 19.38 16.8 19.38 16.8 15.64 16.8" style="fill:#fff"/><polygon points="20.52 16.8 24.26 16.8 24.26 16.8 20.52 16.8" style="fill:#fff"/><path d="M22.77,10.88a2.66,2.66,0,0,1-.45,1.52,2.74,2.74,0,0,1-.4.5l-.14.12a1.8,1.8,0,0,1-.43.29,2.74,2.74,0,0,1-2.66,0,1.8,1.8,0,0,1-.43-.29l-.14-.12a2.59,2.59,0,0,1-.44-.5,2.77,2.77,0,1,1,5.09-1.52Z" style="fill:#fff"/><path d="M14.7,11A2.72,2.72,0,1,1,12,8.26a2.68,2.68,0,0,1,1.57.51A2.74,2.74,0,0,1,14.7,11Z" style="fill:#fff"/><path d="M31,11a2.74,2.74,0,1,1-2.73-2.75A2.74,2.74,0,0,1,31,11Z" style="fill:#fff"/><polygon points="15.87 16.8 19.41 16.8 19.41 16.8 15.87 16.8" style="fill:#fff"/><path d="M24,16.8H15.87l.09-.45L16,16a3.93,3.93,0,0,1,.59-1.26v-.07l.14-.18a4,4,0,0,1,1.84-1.28,2.73,2.73,0,0,0,2.63,0A4,4,0,0,1,23,14.48h0l.13.16v.07A4,4,0,0,1,23.89,16l.06.33.07.35Z" style="fill:#fff"/><polygon points="20.5 16.8 24.04 16.8 24.04 16.8 20.5 16.8" style="fill:#fff"/><polygon points="15.87 16.8 19.41 16.8 19.41 16.8 15.87 16.8" style="fill:#fff"/><polygon points="20.5 16.8 24.04 16.8 24.04 16.8 20.5 16.8" style="fill:#fff"/><path d="M15.84,16.8H7.9A3.78,3.78,0,0,1,11.66,13h.4a3.8,3.8,0,0,1,3.75,3.32Z" style="fill:#fff"/><path d="M32.1,16.8H24.16a3.53,3.53,0,0,1,0-.46A3.79,3.79,0,0,1,27.94,13h.4a3.78,3.78,0,0,1,3.76,3.8Z" style="fill:#fff"/></g></svg>