<svg id="Layer_1" data-name="Layer 1" xmlns="http://www.w3.org/2000/svg" viewBox="0 0 40 40">
  <g id="Doc_-_rules_-_amend" data-name="Doc - rules - amend">
    <rect width="40" height="40" style="fill: #e0bc80"/>
    <polygon points="20 4.8 6.78 12.4 6.78 27.59 20 35.18 33.22 27.59 33.22 12.4 20 4.8" style="fill: #307294"/>
    <path d="M28.63,18.7a8.82,8.82,0,0,0-1.83-4.14A8.71,8.71,0,0,0,11.88,16.8a9,9,0,0,0-.6,3.2,9.32,9.32,0,0,0,.09,1.29,9,9,0,0,0,1.8,4.14,10.22,10.22,0,0,0,1.39,1.4,8.76,8.76,0,0,0,2.24,1.29,9.14,9.14,0,0,0,1.91.51,8.65,8.65,0,0,0,2.59,0,8.89,8.89,0,0,0,1.9-.51,8.32,8.32,0,0,0,2.24-1.29,8.63,8.63,0,0,0,3.2-5.54,8.88,8.88,0,0,0,0-2.59ZM20,26.13A6.13,6.13,0,1,1,26.13,20h0A6.12,6.12,0,0,1,20,26.13Z" style="fill: #fff"/>
    <path d="M13.2,20a7.05,7.05,0,0,0,.13,1.29H9.07A10.91,10.91,0,0,1,9,20a9.45,9.45,0,0,1,.08-1.3h4.25A7.07,7.07,0,0,0,13.2,20Z" style="fill: #fff"/>
    <path d="M31,20a11.17,11.17,0,0,1-.08,1.29H26.68a7,7,0,0,0,0-2.59h4.25A11.33,11.33,0,0,1,31,20Z" style="fill: #fff"/>
    <path d="M21.3,9.08v4.25a6.64,6.64,0,0,0-2.59,0V9.08A10.21,10.21,0,0,1,21.3,9.08Z" style="fill: #fff"/>
    <path d="M21.3,26.68v4.25a11.22,11.22,0,0,1-2.59,0V26.68A7,7,0,0,0,21.3,26.68Z" style="fill: #fff"/>
    <path d="M17.78,13.58a6.64,6.64,0,0,0-2.23,1.29l-1-1.69-1.15-2a10.64,10.64,0,0,1,2.24-1.3l1.15,2Z" style="fill: #fff"/>
    <path d="M26.59,28.82a10.64,10.64,0,0,1-2.24,1.3l-1.15-2-1-1.69a6.79,6.79,0,0,0,2.24-1.29l1,1.69Z" style="fill: #fff"/>
    <path d="M14.87,15.55a6.64,6.64,0,0,0-1.29,2.23l-1.7-1-2-1.15A11.39,11.39,0,0,1,11.2,13.4l2,1.15Z" style="fill: #fff"/>
    <path d="M30.12,24.35a10.64,10.64,0,0,1-1.3,2.24l-2-1.15-1.69-1a7,7,0,0,0,1.3-2.24l1.69,1Z" style="fill: #fff"/>
    <path d="M14.87,24.45l-1.7,1-2,1.15a10.6,10.6,0,0,1-1.29-2.24l2-1.16,1.68-1A6.62,6.62,0,0,0,14.87,24.45Z" style="fill: #fff"/>
    <path d="M30.12,15.65l-2,1.15-1.69,1a7,7,0,0,0-1.3-2.24l1.67-1,2-1.15A10.72,10.72,0,0,1,30.12,15.65Z" style="fill: #fff"/>
    <path d="M17.78,26.43l-1,1.69-1.15,2a10.72,10.72,0,0,1-2.24-1.32l1.15-2,1-1.69A6.87,6.87,0,0,0,17.78,26.43Z" style="fill: #fff"/>
    <path d="M26.58,11.18l-1.15,2-1,1.69a6.73,6.73,0,0,0-2.25-1.29l1-1.7,1.16-2A10.64,10.64,0,0,1,26.58,11.18Z" style="fill: #fff"/>
    <polygon points="40 0 40 19.14 21.17 0 40 0" style="fill: #c66e4e"/>
    <path d="M35.1,4.35,31.34,8.12l-.65-.64c.07-.18,1.71-4.73,2.36-5.2s1.88,1.76,2,2Z" style="fill: #fff"/>
    <path d="M37.15,6.32h0a1.92,1.92,0,0,1-.48.37h-.16a43.59,43.59,0,0,1-4.4,1.86H32l-.4-.4-.07-.06-.15-.16h0l1.79-1.78,1.45-1.46.52-.51h0a4.64,4.64,0,0,1,.7.45C36.47,5.23,37.36,5.94,37.15,6.32Z" style="fill: #fff"/>
    <circle cx="35.13" cy="4.27" r="2.88" style="fill: #fff"/>
    <path d="M35.31,4.58,31.56,8.34l-.08-.07a5.33,5.33,0,0,1-.42-.4h0l1.8-1.8,1.94-2,.2.23h0Z" style="fill: #c66e4e"/>
    <circle cx="35.13" cy="4.27" r="0.82" style="fill: #c66e4e"/>
  </g>
</svg>
