<svg id="Layer_1" data-name="Layer 1" xmlns="http://www.w3.org/2000/svg" viewBox="0 0 40 40">
  <g id="Rules_Icon" data-name="Rules Icon">
    <rect width="40" height="40" style="fill: #e0bc80"/>
    <path d="M20,5.05,7,12.52V27.46l13,7.47,13-7.47V12.52Z" style="fill: #307294"/>
    <path d="M28.62,18.7a8.72,8.72,0,0,0-16.74-1.9,8.8,8.8,0,0,0-.51,1.89A9.5,9.5,0,0,0,11.28,20a9.32,9.32,0,0,0,.09,1.29,8.81,8.81,0,0,0,1.8,4.14,9.68,9.68,0,0,0,1.39,1.4,9.22,9.22,0,0,0,2.24,1.28,8.3,8.3,0,0,0,1.91.52,8.58,8.58,0,0,0,2.58,0,8.8,8.8,0,0,0,4.15-1.8,8.37,8.37,0,0,0,1.39-1.4,8.73,8.73,0,0,0,1.81-4.14,9.36,9.36,0,0,0,0-2.59ZM20,26.13a6.14,6.14,0,1,1,.05,0Z" style="fill: #fff"/>
    <path d="M13.2,20a2.6,2.6,0,0,0,.13,1H9a4.18,4.18,0,0,1,0-1c0-.43,0-.87.07-2h4.26A14.7,14.7,0,0,0,13.2,20Z" style="fill: #fff"/>
    <path d="M31,20a4.18,4.18,0,0,1,0,1H26.7a2.6,2.6,0,0,0,.13-1,15.91,15.91,0,0,0-.12-2H31Z" style="fill: #fff"/>
    <path d="M21,9.06v4.25a2.81,2.81,0,0,0-1-.13c-.43,0-.86.05-2,.13V9.06A12.54,12.54,0,0,1,21,9.06Z" style="fill: #fff"/>
    <path d="M22,26.67v4.26a13.68,13.68,0,0,1-3,0V26.67a2.6,2.6,0,0,0,1,.13C20.43,26.8,20.87,26.76,22,26.67Z" style="fill: #fff"/>
    <path d="M17.78,13.58a6.64,6.64,0,0,0-2.23,1.29l-1-1.69-1.15-2a10.83,10.83,0,0,1,2.23-1.3l1.16,2Z" style="fill: #fff"/>
    <path d="M26.58,28.82a10.83,10.83,0,0,1-2.23,1.3l-1.16-2-1-1.69a6.46,6.46,0,0,0,2.24-1.3l1,1.7Z" style="fill: #fff"/>
    <path d="M14.87,15.55a6.84,6.84,0,0,0-1.3,2.23l-1.69-1-2-1.15A10.91,10.91,0,0,1,11.2,13.4l2,1.15Z" style="fill: #fff"/>
    <path d="M30.12,24.35a11.67,11.67,0,0,1-1.3,2.24l-2-1.16-1.69-1a6.79,6.79,0,0,0,1.29-2.24l1.7,1Z" style="fill: #fff"/>
    <path d="M14.87,24.45l-1.7,1-2,1.15a11.45,11.45,0,0,1-1.3-2.25l2-1.15,1.69-1A6.78,6.78,0,0,0,14.87,24.45Z" style="fill: #fff"/>
    <path d="M30.11,15.65l-2,1.15-1.69,1a6.46,6.46,0,0,0-1.3-2.24l1.68-1,2-1.15A11.13,11.13,0,0,1,30.11,15.65Z" style="fill: #fff"/>
    <path d="M17.78,26.43l-1,1.68-1.15,2a10.26,10.26,0,0,1-2.24-1.31l1.15-2,1-1.69A6.87,6.87,0,0,0,17.78,26.43Z" style="fill: #fff"/>
    <path d="M26.58,11.18l-1.15,2-1,1.69a6.79,6.79,0,0,0-2.24-1.29l1-1.7,1.15-2A11.37,11.37,0,0,1,26.58,11.18Z" style="fill: #fff"/>
    <path d="M40,0V19.14L21.17,0Z" style="fill: #c66e4e"/>
    <rect x="33" y="2" width="2" height="8" style="fill: #fff"/>
    <rect x="30" y="5" width="8" height="2" style="fill: #fff"/>
  </g>
</svg>
