<?xml version="1.0" encoding="utf-8"?>
<!-- Generator: Adobe Illustrator 26.0.2, SVG Export Plug-In . SVG Version: 6.00 Build 0)  -->
<svg version="1.1" id="Doc_-_blank" xmlns="http://www.w3.org/2000/svg" xmlns:xlink="http://www.w3.org/1999/xlink" x="0px"
	 y="0px" viewBox="0 0 40 40" style="enable-background:new 0 0 40 40;" xml:space="preserve">
<style type="text/css">
	.st0{fill:#E0BC80;}
	.st1{fill:#FFFFFF;stroke:#000000;stroke-miterlimit:10;}
	.st2{fill:#FFFFFF;stroke:#000000;stroke-width:0.7427;stroke-miterlimit:10;}
	.st3{fill:#FFFFFF;stroke:#000000;stroke-width:0.6371;stroke-miterlimit:10;}
	.st4{stroke:#000000;stroke-width:0.6371;stroke-miterlimit:10;}
	.st5{fill:#FFFFFF;stroke:#000000;stroke-width:0.6328;stroke-miterlimit:10;}
	.st6{stroke:#000000;stroke-width:0.7533;stroke-miterlimit:10;}
	.st7{stroke:#000000;stroke-width:0.3528;stroke-miterlimit:10;}
	.st8{stroke:#000000;stroke-width:0.8702;stroke-miterlimit:10;}
	.st9{fill:#FFFFFF;stroke:#000000;stroke-width:0.4632;stroke-miterlimit:10;}
	.st10{fill:#FFFFFF;stroke:#000000;stroke-width:0.7533;stroke-miterlimit:10;}
	.st11{fill:#FFFFFF;stroke:#000000;stroke-width:0.8702;stroke-miterlimit:10;}
	.st12{stroke:#000000;stroke-width:0.4632;stroke-miterlimit:10;}
</style>
<g>
	<rect class="st0" width="40" height="40"/>
	<rect x="3.4" y="3.4" class="st1" width="32.8" height="2.3"/>
	<rect x="3.4" y="7" class="st2" width="18.1" height="2.3"/>
	<rect x="22.9" y="7" class="st3" width="13.3" height="2.3"/>
	<rect x="3.4" y="10.3" class="st4" width="13.3" height="2.3"/>
	<rect x="17.6" y="10.3" class="st3" width="13.3" height="2.3"/>
	<rect x="3.4" y="13.7" class="st5" width="13.1" height="2.3"/>
	<rect x="17.6" y="13.7" class="st6" width="18.6" height="2.3"/>
	<rect x="32.1" y="10.3" class="st7" width="4.1" height="2.3"/>
	<rect x="3.4" y="17" class="st8" width="24.9" height="2.3"/>
	<rect x="29.2" y="17" class="st9" width="7" height="2.3"/>
	<rect x="3.4" y="20.3" class="st2" width="18.1" height="2.3"/>
	<rect x="22.9" y="20.3" class="st3" width="13.3" height="2.3"/>
	<rect x="3.4" y="23.6" class="st3" width="13.3" height="2.3"/>
	<rect x="17.6" y="23.6" class="st3" width="13.3" height="2.3"/>
	<rect x="17.6" y="27" class="st10" width="18.6" height="2.3"/>
	<rect x="32.1" y="23.6" class="st7" width="4.1" height="2.3"/>
	<rect x="3.4" y="30.3" class="st11" width="24.9" height="2.3"/>
	<rect x="29.2" y="30.3" class="st12" width="7" height="2.3"/>
	<rect x="3.2" y="27" class="st4" width="13.3" height="2.3"/>
</g>
</svg>
