<svg id="Layer_1" data-name="Layer 1" xmlns="http://www.w3.org/2000/svg" viewBox="0 0 40 40"><g id="Doc_-_document_-_amend" data-name="Doc - document - amend"><path d="M10.27,21.73l.13.13V21.6Z" style="fill:#fff"/></g><g id="Doc_-_blank_-_amend" data-name="Doc - blank - amend"><rect width="40" height="40" style="fill:#e0bc80"/><polygon points="40 0 40 19.14 21.17 0 40 0" style="fill:#c66e4e"/><path d="M35.1,4.35,31.34,8.12l-.65-.64c.07-.18,1.71-4.73,2.36-5.2s1.88,1.76,2,2Z" style="fill:#fff"/><path d="M37.15,6.32h0a1.92,1.92,0,0,1-.48.37h-.16a43.59,43.59,0,0,1-4.4,1.86H32l-.4-.4-.07-.06-.15-.16h0l1.79-1.78,1.45-1.46.52-.51h0a4,4,0,0,1,.7.45C36.47,5.23,37.36,5.94,37.15,6.32Z" style="fill:#fff"/><circle cx="35.13" cy="4.27" r="2.88" style="fill:#fff"/><path d="M35.31,4.58,31.56,8.34l-.08-.07a5.33,5.33,0,0,1-.42-.4h0l1.8-1.8,1.94-2L35,4.3h0Z" style="fill:#c66e4e"/><circle cx="35.13" cy="4.27" r="0.82" style="fill:#c66e4e"/></g></svg>