<?xml version="1.0" encoding="utf-8"?>
<!-- Generator: Adobe Illustrator 26.0.1, SVG Export Plug-In . SVG Version: 6.00 Build 0)  -->
<!DOCTYPE svg PUBLIC "-//W3C//DTD SVG 1.1//EN" "http://www.w3.org/Graphics/SVG/1.1/DTD/svg11.dtd" [
	<!ENTITY st0 "fill:#E0BC80;">
	<!ENTITY st1 "fill:#FFFFFF;">
	<!ENTITY st2 "fill:#C66E4E;">
]>
<svg version="1.1" id="Layer_1" xmlns="http://www.w3.org/2000/svg" xmlns:xlink="http://www.w3.org/1999/xlink" x="0px" y="0px"
	 viewBox="0 0 40 40" style="enable-background:new 0 0 40 40;" xml:space="preserve">
<metadata><?xpacket begin="﻿" id="W5M0MpCehiHzreSzNTczkc9d"?>
<x:xmpmeta xmlns:x="adobe:ns:meta/" x:xmptk="Adobe XMP Core 7.1-c000 79.a8731b9, 2021/09/09-00:37:38        ">
   <rdf:RDF xmlns:rdf="http://www.w3.org/1999/02/22-rdf-syntax-ns#">
      <rdf:Description rdf:about=""
            xmlns:xmp="http://ns.adobe.com/xap/1.0/"
            xmlns:xmpGImg="http://ns.adobe.com/xap/1.0/g/img/"
            xmlns:xmpTPg="http://ns.adobe.com/xap/1.0/t/pg/"
            xmlns:stDim="http://ns.adobe.com/xap/1.0/sType/Dimensions#"
            xmlns:xmpG="http://ns.adobe.com/xap/1.0/g/"
            xmlns:dc="http://purl.org/dc/elements/1.1/">
         <xmp:CreatorTool>Adobe Illustrator 26.0 (Macintosh)</xmp:CreatorTool>
         <xmp:CreateDate>2021-12-06T00:17:26Z</xmp:CreateDate>
         <xmp:Thumbnails>
            <rdf:Alt>
               <rdf:li rdf:parseType="Resource">
                  <xmpGImg:width>256</xmpGImg:width>
                  <xmpGImg:height>256</xmpGImg:height>
                  <xmpGImg:format>JPEG</xmpGImg:format>
                  <xmpGImg:image>/9j/4AAQSkZJRgABAgEASABIAAD/7QAsUGhvdG9zaG9wIDMuMAA4QklNA+0AAAAAABAASAAAAAEA&#xA;AQBIAAAAAQAB/+4ADkFkb2JlAGTAAAAAAf/bAIQABgQEBAUEBgUFBgkGBQYJCwgGBggLDAoKCwoK&#xA;DBAMDAwMDAwQDA4PEA8ODBMTFBQTExwbGxscHx8fHx8fHx8fHwEHBwcNDA0YEBAYGhURFRofHx8f&#xA;Hx8fHx8fHx8fHx8fHx8fHx8fHx8fHx8fHx8fHx8fHx8fHx8fHx8fHx8fHx8f/8AAEQgBAAEAAwER&#xA;AAIRAQMRAf/EAaIAAAAHAQEBAQEAAAAAAAAAAAQFAwIGAQAHCAkKCwEAAgIDAQEBAQEAAAAAAAAA&#xA;AQACAwQFBgcICQoLEAACAQMDAgQCBgcDBAIGAnMBAgMRBAAFIRIxQVEGE2EicYEUMpGhBxWxQiPB&#xA;UtHhMxZi8CRygvElQzRTkqKyY3PCNUQnk6OzNhdUZHTD0uIIJoMJChgZhJRFRqS0VtNVKBry4/PE&#xA;1OT0ZXWFlaW1xdXl9WZ2hpamtsbW5vY3R1dnd4eXp7fH1+f3OEhYaHiImKi4yNjo+Ck5SVlpeYmZ&#xA;qbnJ2en5KjpKWmp6ipqqusra6voRAAICAQIDBQUEBQYECAMDbQEAAhEDBCESMUEFURNhIgZxgZEy&#xA;obHwFMHR4SNCFVJicvEzJDRDghaSUyWiY7LCB3PSNeJEgxdUkwgJChgZJjZFGidkdFU38qOzwygp&#xA;0+PzhJSktMTU5PRldYWVpbXF1eX1RlZmdoaWprbG1ub2R1dnd4eXp7fH1+f3OEhYaHiImKi4yNjo&#xA;+DlJWWl5iZmpucnZ6fkqOkpaanqKmqq6ytrq+v/aAAwDAQACEQMRAD8A6pnNu1dirsVdirsVdirs&#xA;VdirsVdirsVdirsVdirsVdiriK7HFWJeYfL3ocryzX9z1liH7HuP8n9WTjJzcOa9ix3JuS7FXYq7&#xA;FXYq7FXYq7FXYq7FXYq7FXYq7FXp+UupdirsVdirsVdirsVdirsVdirsVdirsVdirsVdirsVcRXY&#xA;4qxDzF5fNuzXdov+jneSMfsHxH+T+rLIlzcOa9jzY/knJdirsVdirsVdirsVZf5J/L298xf6XO5t&#xA;dLUkGalXkI6iMHw7sfxzIwacz36OHqtYMew3k9W03yF5SsIwsWmwysOslwomYkd/j5AfRmwjggOj&#xA;qJ6vJLqrXvkzyreoUn0q2HLq8cYifw+1HxbDLDA9ER1OSPKReaedvyvl0qCTUtIZrixjBaeB95Yl&#xA;7sCPtKO/ce+YWfS8O8eTs9LruM8Mubz/ADDdi7FXp+UupdirsVdirsVdirsVdirsVdirsVdirsVd&#xA;irsVdirsVdiriAQQRUHqMVYh5h8vG2LXdotbc7yRj9j3H+T+rLIyc3DmvY82P5JyXYq7FXYq7FUd&#xA;oelS6tq9pp0WzXMgQsN+K9Xb/YqCclCHFIBry5OCJl3PpCys7aytIbS2QR28CCOJB2VRTN3GIAoP&#xA;NSkZGzzWajqen6bbG5v7hLaAGnOQ0BJ7DxPsMEpCIsphCUjQFqOk6/o2rxu+m3cdyI9nCH4lr0qp&#xA;ow+7BDJGXIpyYpQ+oUjyAQQRUHYg5NrfPvn3QY9E8zXNrCvG1lpPbL2CSV+EeysCBmn1GPhnT0Wk&#xA;y8eME82O5S5L0/KXUuxV2KuxV2KuxV2KuxV2KuxV2KuxV2KuxV2KuxV2KuxV2KuIBBBFQeoxVh3m&#xA;LQDas11arW2bd0H7B/5pyyJc7DmvY80hyTkOxV2KuxV6Z+TWgiS5utbmWqwf6Pak/wA7CsjD5KQP&#xA;pOZ2jx7mTq+0stAQD1jNg6h43+cGtW15q9tY20/qrYownVd1WVzuK92AAr4ZrdZMGVDo7rs7EYxJ&#xA;I5ob8ore/fzWJoAwtooZBdtvx4sKIpPiXoR8sjpAeNn2gR4dHn0e25tHRPHPzoKf4hsgKcxaDl40&#xA;9R6Zrdb9Q9zuuzfoPvefZhuxen5S6l2KuxV2KuxV2KuxV2KuxV2KuxV2KuxV2KuxV2KuxV2KuxV2&#xA;KuZVZSrAFSKEHcEHFWG+YPL7WjG6tQTak/GnUoT/AMa5YC52HNxbHmkWSch2KtqrOwVQSzGigdST&#xA;ir6O8r6MujaDZ6cAOcUYMxHeVvic1/1jt7ZusUOGIDzOfJxzMmH/AJi/mKLISaPo8lb01W6ulP8A&#xA;deKIf5/E/s/PpjajUV6Y83N0ej4vVLko/l7+W6xqur67CHmccraylFQoP7cqnqx7KenffoNPpv4p&#xA;MtZrb9MPm9GtrS1tY/StoUgjrXhGoRan2UDM0ADk6yUiea6aaKGJ5pnEcUal5HY0CqoqST7Yk0oF&#xA;mg+ePOOvfp3zDdX61EBIjtgeoiQUX7/tfTmnzZOORL0emxeHABJcqb3p+UupdirsVdirsVdirsVd&#xA;irsVdirsVdirsVdirsVdirsVdirsVbxVrFXMqspVgCpFCDuCDirDPMOgtZubm3Wtox3Ub8Cf4eGW&#xA;RLnYc3FseaR5JyGWfllon6T81QO61t7EfWZfCqH92P8AgyD9GZGlhxT9zia7Lw4z3nZmf5i/mKLI&#xA;SaPo8lb01W6ulP8AdeKIf5/E/s/Ppk6jUV6Y83B0ej4vVLkpfl1+XRgMeta1HW5NHtLRx9juJJAf&#xA;2vAdvn0Gn09eqSdZrL9EOT0okAEk0A3JPSmZzrGMav8AmR5S0xnja7+tTp1ith6hr4c9o6/7LKJ6&#xA;mEerlY9Fkl0r3vMvOH5kanr8bWcKfU9NJq0SmryU6eo223fiB9+YObUme3IO10+ijj3O8mH5jOY7&#xA;FXp+UupdirsVdirsVdirsVdirsVdirsVdirsVdirsVdirsVVbWOKS5ijmf04mcB5PBSdzkoAEgHk&#xA;iR22eh6bp2l20KmzRGHaYUZm/wBlm8xYoRHpddOcjzRUsMMyFJUWRD1VgCPuOWmIPNiCQwvzRpWn&#xA;2UiPauFeQ/HbVrx2+0O4GanV4YwPp+Tm4JmXNIcwm9plV1KsAysKMp3BBxVhmv6A1kxuLcFrRjuO&#xA;pQnsfbwOWAufhzcWx5oHS9Z1PSpZJdPuHt5JUaKRkNKqwp/tHtlkZmPJsyY4zFSFst/LS38qJNca&#xA;trV5GlzZsGgt5zQCu/qiv22rsAOnXwzI0wh9UjycPWnJQjAbFkmu/nJpsHKLRrZruToLiascXzC/&#xA;bb/hcvyawD6d3FxdmyP1Gnnmu+cvMWtki+u29A9LaP4Ih/sR1/2Vcw8maUuZdli00IcgkmVN7sVd&#xA;irsVen5S6l2KuxV2KuxV2KuxV2KuxV2KuxV2KuxV2KuxV2KuxV2Ksi8ly3A1CSJSTAYy0g7Agih+&#xA;eZ2gJ4iOjj6kCmU6rJcRabcyW/8AfLGSlOo8SPkM2OYkQJHNxcYBkLeaszMxZiSx3JO5JzQkuyaw&#xA;K7FWmVXUqwDKwoyncEHFWF6/oL2MhngBNox+ZQnsfbwOWAufhzcWx5pLkm92KuxV2KuxV2KuxV6f&#xA;lLqXYq7FXYq7FUXpNtFc6jbwS1McjUahoaZbhiJTALCZqJLMP8IaN/LJ/wAGc2n5LG4n5iTv8IaN&#xA;/LJ/wZx/JY1/MSaPk/RiKcZB7h/7MfyWNfzEmG38EVveTQRP6kcblVfxAOanJERkQHMibFofIMma&#xA;6Po3l+5sIXWNZ5OI9UljyDkbggHbfNtgwYpRHVwsmSYKO/w3on/LKv3t/XLvyuPuYeNLvd/hvRP+&#xA;WVfvb+uP5XH3L40u9jfmTTbO21O1gt4/SjlVeYUnu5Fd65garFGMwBs5OGZMSSm3+CtK/wB+z/8A&#xA;BJ/zRmV+Qh3n8fBp/My8nf4K0r/fs/8AwSf80Y/kId5/HwX8zLyd/grSv9+z/wDBJ/zRj+Qh3n8f&#xA;BfzMvJNtP0yz0+Ix2ycQ27sd2Y+5zJxYowFBqnMy5orLGCUz+VtGmkMhiKFjUhGIFfl2zGlo8ZN0&#xA;3DPIKf8AhDRv5ZP+DOR/JY0/mJO/who38sn/AAZx/JY1/MSSTzPo1lp0du1sGBkLBuRr0A/rmHq8&#xA;EYAU3YchldsedEkRkdQyMKMp3BBzCcgGmFa9oL2LmeAFrRj8yhPY+3gcsBc/Dm4tjzSbJN7sVdir&#xA;sVdirsVen5S6l2KuxV2KuxVMPL//AB2bT/jIP1Zfpv7wNeX6S9FzeuudirFfOl3dpJBAjskDqWam&#xA;wZq0oflmt185AgdHL00RzYpmtcp2KoiwmuobuJrUkTFgEA7knofY5ZjkRIcPNjIAjd6bnQOsdirE&#xA;vNf/AB2rH/VT/k4c1ms/vI/jq5eD6Sy3Nm4jsVdirsVdirsVdirsVYx55/urT/Wf9QzXdocg5Wm6&#xA;sRzWOW06JIjI6hkYUZTuCDioNMJ17QnsJDNCC1o5+E9ShP7J/gcsBdhhy8Wx5pPkm52KuxV2KuxV&#xA;6flLqXYq7FXYq7FUw8v/APHZtP8AjIP1Zfpv7wNeX6S9FzeuudiqldWltdQmG4jEkZ7H9Y8MjOAk&#xA;KKYyINhjd55JBYtZ3FAekco6f7If0zXz0H80uTHU94QqeSdSLfHNCq+ILE/cVGVjQT7wz/MxTzSf&#xA;LNlp7iYkz3AGzsAAPdV7ZmYdJGBvmWjJmMtuib5lNLsVYv5hQyeY9NQd/Tr8vUNc12pF5Y/jq5WI&#xA;+gsjubq3tojLcSLHGNuTGm57ZnymIiy4wiTydbXVtcx+pbyLKnTkprvjGYkLBUxI5quSQ7FXYq7F&#xA;XYq0GU1oQadaY2rGfPP91af6z/qGa7tDkHK03ViOaxy3YqtkjjljaORQyMKMp3BBxSDTCdd0KSwk&#xA;9WKrWjHY9ShP7LfwOWA25+HNxbHmlGSbnYq7FXYq9Pyl1LsVdiqK02wlv7yO2j2Ln4m/lUdTlmLG&#xA;ZyoMZy4RaZ+Y9ATThFLbBmt2HFy29HHj88yNVpuCiOTVhy8XNDeWreaXWIGjUlYm5yN2AA75DSxJ&#xA;yCmWYgRL0HN2692KuxV2KuxV2KuxV2KpB5kiuILyy1OCIzC3JEqjw6jx8TvmFqgRKMwLpyMJBBie&#xA;qCnkuvMV/AiQNFYwHlIz7VrTl9PYDKZE55DaohmAMYO+6a3VtDpt1BeWyCKJ3WG6jQUQq+ytTpVW&#xA;pmTOAxyEhsORaoyMgQU3zKaXYq7FXYqxnzfq80HCygcozrzmZTQ8a0C196b5r9bmI9IcnT4wdyxv&#xA;TL+WyvYp0YhQw9QD9pa7j7swMWQwkC5M48QpNvNWr2V8LdLVzII+TM1CB8VNt6HtmTrM0Z1wtWDG&#xA;Y3bHswXIdirsVWyRxyxtHIoZGFGU7gg4pBphGu6HJp8pkjBa0c/A38p/lbLAbc/Fl4h5pTkm52Ku&#xA;xV6flLqXYq7FWUeR41M13KftKqKPkxJP/ERmx7PG5Li6k7BljKrqVYBlOxUioObMi3EWwwQQrxhj&#xA;WNTuQihR+GCMQOQSSTzX4UOxV2KuxV2KuxV2KuxV2KuxVLfMf/HFuadaLx+fNafjmPqv7stuH6gm&#xA;WZDU7FXYq7FWBea3La5OD+wEUf8AAA/xzS6w/vC5+D6Qk+Yrc7FXYq7FXYq7FVs0MU0TRSqHjcUZ&#xA;T0IwpBphGuaHLp8vqR1e1c/A/dT/ACtkwbc/Fl4velOSbnYq9Pyl1LsVdiqeeUb0W+p+i5olyvD/&#xA;AGQ3X+mZmiycM672jURuPuT3zH5gbTuMFuA1y45EtuFXoNvE5marU8Gw5tGHFxbnkgdC803U94lr&#xA;ecWEp4pIBxIbsDTbfplOn1cjKpdWeXAALDKs2TiuxV2KuxV2KuxV2KuxVI9fnvpru20uzk9F7gF5&#xA;JBUEKPcfI5h6mUjIQjtbfiAAMilIa/8AL2qRJNOZbSbdzvQrWhPE1ow67ZjXLBMWbiW7bJHYbpvN&#xA;fW+r3UFnaMZII3We6koQvFDVU3p1bMmWQZZCMeXMtIiYAkp3mY0OxV2KuxVhfnKxeO+W7A/dzqAx&#xA;8HUU/VTNTrsdS4u9zdPKxSQwxSTSpFGvKRyFVR3J2zCiCTQbyaRmqaNd6a0YuOJEoqrIaiopUbgd&#xA;K5bmwSx82EMglyQGUtjsVdirsVdiq2aGKaJopVDxuKMp6EYUg0wbW9El06bktWtXP7t/D/Jb3yYN&#xA;uwxZRIeaV5Jten5S6l2KuxVsEqQQaEbgjqDhVfNPNPIZJnaSQ9XYknb3OGUiTZQAByVNO/46Ft/x&#xA;lT/iQyWL6h70T5F6bnQOsdiqG1DUrOwh9W5fiDsqjdmPsMryZYwFllCBkdmOz+eDypBa/D2Z23P0&#xA;AfxzBl2h3ByRpu8tweePipPa/D3ZG3+4j+OMe0O8KdN3FPtO1ex1BSbeSrru0bbMPo/pmbizxnyc&#xA;eeMx5ozLWDsVSW6/5Suy/wCMD/8AG2Yk/wC/j7m+P92femGoaZZ38QjuU5BTVWBowPsRl+TFGYot&#xA;UJmPJ2n6ZZ2ERjtk4hjViTUk+5xx4owFBM5mXNFZYwdirsVdiqjd2lvdwNBcJzjbqP4g5GcBIUUx&#xA;kQbCW6f5X0+yuxco0julfTVyKCop2ArmPj0kYSsNs85kKQHnn+6tP9Z/1DKO0OQbNN1Yjmsct2Ku&#xA;xV2KuxV2KrJ4Ip4mhmUPG4oynCkEg2GD63okunS8lq9q5/dyeH+S3vkwbdhiyiQ82d5W652KuxV2&#xA;KuxVEaf/AL323/GVP+JDLMX1D3sZ8i9NzoHWOxVg3mNJ5NeKXRMULMqRyH7Ij2+IffU5p9UCcvq5&#xA;OdhoQ2ZTp+i6TbRKYIkkNP75qOT71/pmxxYIRGwcWeSR5ox7a3deLxIynqCoIy0xB6MLKSS2GnW+&#xA;t2j2DKlxzKz28ZqOHE1YgfZpmIccY5AY8+obxImJvkn+ZrjuxVJbr/lK7L/jA/8AxtmJP+/j7m+P&#xA;92fenWZbQ7FXYq7FXYq7FXYq7FWMeef7q0/1n/UM13aHIOVpurEc1jluxV2KuxV2KuxV2KrJ4Ip4&#xA;mhmUPG4oynCkEg2F+BDsVdirsVdiqJ04D6/b1IAEikk+ANcsxfUPexnyLN/8U6F/y1f8JJ/zTm3/&#xA;ADePv+9wfAn3O/xToX/LV/wkn/NOP5vH3/evgT7lG78xeXJoSkri4X/fZjY/dyAGQnqsRG+/wZRw&#xA;zBSXyreumsG3h5C1n5kRnfjQFlPz2pmLo8lZKHIt2ePps82VatJPHply8FRKsbFSOo26jNjmJEDX&#xA;OnFxgcQtA6fqnl23t09GWOIso57Ucmn7RpUnKcWbFEbEBnOEyd0T+n9G/wCWuP7zln5nH3sfCl3O&#xA;/T+jf8tcf3nH8zj718KXclkmpWE3ma0ljnQxJCys5NFBPLappmOcsTmBB2ptECIEUnf6QsP+WmL/&#xA;AINf65meLHvDRwHud+kLD/lpi/4Nf64+LHvC8B7nfpCw/wCWmL/g1/rj4se8LwHuRAIIqNwehybF&#xA;2KqL3tnGxSSeNGHVWdQfuJyByRHMhkInuW/pCw/5aYv+DX+uPix7wvAe536QsP8Alpi/4Nf64+LH&#xA;vC8B7mN+c7m3mitRDKkhDPXgwamw8M1+umCBRcnTgi7Ytmucp2KuxV2KuxV2KuxV2KuxV2KuxV2K&#xA;uxVsEg1GxHQ4qyyHyXayQpIblwXUMRQdxXNnHQAi7cQ6k3yX/wCCLX/lpk+4Yf5Pj3o/Mnud/gi1&#xA;/wCWmT7hj/J8e9fzJ7kz0rQLHTWZ4uTysKGRyCQPAUAGZGHTRx7jm1TymSZZkNaWSeWtEkdna1HJ&#xA;jU8WdR9ykDMc6XGejaM0u9b/AIW0L/ll/wCHk/5qwflMfd96+PPvd/hbQv8All/4eT/mrH8pj7vv&#xA;Xx596R+atI06xt4HtYvTZ3IY8maoA/yicw9ZhjADhDfgyGRNsbzAcl2KuxVmHkm5uHguIXJaGIqY&#xA;69i1agfdm00EiQR0Dh6kCwUz8x3Fxb6PPJASr/CpcdQGIBIzI1UjHGSGvCAZbvPSSTU7k9Tmjdg1&#xA;irsVdirsVdirsVdirsVdirsVdirsVdirsVdirsVdir1C0/3lh/4xr+oZ0UPpDq5c1XJIdirsVdir&#xA;sVdirsVY153/AN5bb/jIf1Zr+0PpDk6bmWH5q3MdiqL0u3tbi+ihupDFC5ozinhsKnpU5biiJSAJ&#xA;oMJkgWHodlY2tlAILZOCDc9yT4k5vMeMQFB18pGRsqskccsbRyKGRwQynoQckQCKKAaYH5j0yysL&#xA;tY7WTkGFXiJqUPbf39802qxRhKg52GZkN0ozFbnYq7FXYq7FXYq7FXYq7FXYq7FXYq7FXYq7FXYq&#xA;7FXqFp/vLD/xjX9QzoofSHVy5quSQ7FXYq7FXYq4kAEk0A3JOKrI54Za+nIr8djxINPuwCQPJJBD&#xA;HfO/+8tt/wAZD+rMDtD6Q5Gm5lh+atzHYq7FUda61qtqoWG5dVHRT8QHyDVGXQzzjyLCWOJ5hUm8&#xA;xa1KpV7pgD14hU/FQMlLU5D1QMMR0S4kkkk1J3JOUNjWBXYq7FXYq7FXYq7FXYq7FXYq7FXYq7FX&#xA;Yq7FXYq7FWZS+ZbRdCDQygXnprGIxXkr0oT8h1rm1Oqj4ex9VOGMJ49+TF7TUr20uPXhlYSE1epq&#xA;G/1geua6GWUTYLlSgCKL0Sxu0u7OG5TYSqGp4HuPoOb3HPiiD3uulGjSvk2LsVdirGPOOqsirp8R&#xA;oZBznI/lr8K/TTfNfrs1ekOVp4dWOaXfPY30VwtaKfjUd1P2h92YGLJwSBciceIUm3mfW7LUIbdL&#xA;YseBLOWFKbUAzJ1eeMwAGrDjMbtj2YLkOxV2KuxV2KuxV2KuxV2KuxV2KuxV2KuxV2KuxV2KuxV2&#xA;KuxV2KuxV2KuxV2Ks58myM+kFT0jlZV+VA362zcaE3j+Lg6gepPMzGh2KuxV575kkMmt3RPZgo+S&#xA;qBmj1RvIXYYR6QlmY7a7FXYq7FXYq7FXYq7FXYq7FXYq7FXYq7FXYq7FXYq7FXYq7FXYq7FXYq7F&#xA;XYqmWpaDf6fCk04UxvtVDXiSK0aoGX5dPKAstcMokaCW5Q2PQ/Ltm1rpECOKSODI4923H4UzeaWH&#xA;DAOvzSuSZZkNTsVdirBvN9qYdWMv7NwquD7gcSPwzT62FTvvc7TyuKTwQTTzJDCheVzRVHUnMWMT&#xA;I0G4kAWVW+068sZRHcx8GYVXcEEexGSyYpQNFEZiXJDZWydirsVdirsVdirsVdirsVdirsVdirsV&#xA;dirsVdirsVdirsVdirsVdirsVenX1nDe2sltMD6cg3I6gjcEZ0OSAmKLrIyMTYSSx8m28F0JZ5vX&#xA;jQ1SPjxBP+Vua5iY9CAbJtulqCRsyLM5x3Yq7FXYqg9U0q11K39KeoKmsci/aU5VmwjIKLOEzE7I&#xA;LRvLMOm3DXBmM8lCqfDxCg9e7b5Tg0gxm7tnkzGQpLvPX/Hl/wA9f+NMo7Q/h+P6GzTdWKZrXLdi&#xA;rsVdirsVdirsVdirsVdirsVdirsVdirsVdirsVdirsVdirsVdirsVeq50jqnYq7FXYq7FXYq7FXY&#xA;qxXz1/x4/wDPX/jTNb2h/D8f0OVpurFM1rluxV2KuxV2KuxV2KuxV2KuxV2KuxV2KuxV2KuxV2Ku&#xA;xV2KuxV2KuxV2KvVc6R1TsVdirsVdirsVdirsVYr56/48f8Anr/xpmt7Q/h+P6HK03Vima1y3Yq7&#xA;FXYq7FXYq7FXYq7FXYq7FXYq7FXYq7FXYq7FXYq7FXYq7FXYq7FUR+kL8bC5l/4Nv65Z4su8seAd&#xA;zv0hf/8ALTL/AMG39cfFl3leAdzv0hf/APLTL/wbf1x8WXeV4B3Mn8n6pdXBmtZ3aUIoeN2NSBWh&#xA;FTmw0WaUriXF1EANwmnmHUJrHTHmh2lZgiN1pXv+GZGpyGELHNrxQEpUWAz3NxOxeeVpGO9WJP68&#xA;0spmXMueIgclLIpdirsVdirsVdirsVdirsVdirsVdirsVdirsVdirsVdirsVdirsVdirsVdirsVd&#xA;irsVdiqI0+0F3eRWxkEQlbj6hFQPo9+mWY4cUgOVsZyoWz3SNFtdMiZYiXkenqSt1NOgA7DNzgwD&#xA;GNnAyZDJFXtnBeWz284rHIKGnUHqCPllmSAkKLGMiDYYNr2iDS5Iws3qpLUqCKMKU6/fmn1On8Mj&#xA;fm52LJxJTmM2uxV2KuxV2KuxV2KuxV2KuxV2KuxV2KuxV2KuxV2KuxV2KuxV2KuxV2KuxV2KuxV2&#xA;KuxVsEg1HXFU5s/NmrW6BGZZ1HT1QS3/AAQIP35lw1k4+bTLBEqk/nLVZF4xrHDX9pQSf+GJH4ZK&#xA;WumeVBA08UlnuJ7iUyzu0kh6sxqcxJSMjZbgAOSnkUuxV2KuxV2KuxV2KuxV2KuxV2KuxV2KuxV2&#xA;KuxV2KuxV2KuxV2KuxV2KuxV2KuxV2KuxV2KuxV2KuxV2KuxV2KuxV2KuxV2KuxV2KuxV2KuxV2K&#xA;uxV2KuxV2KuxV2KuxV2KuxV2KuxV2KuxV2KuxV2KuxV2KuxV2KuxV2KuxV2KuxV2KuxV2KuxV2Ku&#xA;xV2KuxV2KuxV2KuxV2KuxV2KuxV2KuxV2KuxV2KuxV2KuxV2KuxV2KuxV2KuxV2KuxV2KuxV2Kux&#xA;V2KuxV2KuxV2KuxV2KuxV2KuxV//2Q==</xmpGImg:image>
               </rdf:li>
            </rdf:Alt>
         </xmp:Thumbnails>
         <xmpTPg:MaxPageSize rdf:parseType="Resource">
            <stDim:w>40.000000</stDim:w>
            <stDim:h>40.000000</stDim:h>
            <stDim:unit>Pixels</stDim:unit>
         </xmpTPg:MaxPageSize>
         <xmpTPg:NPages>1</xmpTPg:NPages>
         <xmpTPg:HasVisibleTransparency>False</xmpTPg:HasVisibleTransparency>
         <xmpTPg:HasVisibleOverprint>False</xmpTPg:HasVisibleOverprint>
         <xmpTPg:PlateNames>
            <rdf:Seq>
               <rdf:li>Cyan</rdf:li>
               <rdf:li>Magenta</rdf:li>
               <rdf:li>Yellow</rdf:li>
               <rdf:li>Black</rdf:li>
            </rdf:Seq>
         </xmpTPg:PlateNames>
         <xmpTPg:SwatchGroups>
            <rdf:Seq>
               <rdf:li rdf:parseType="Resource">
                  <xmpG:groupName>Default Swatch Group</xmpG:groupName>
                  <xmpG:groupType>0</xmpG:groupType>
               </rdf:li>
            </rdf:Seq>
         </xmpTPg:SwatchGroups>
         <dc:format>image/svg+xml</dc:format>
      </rdf:Description>
   </rdf:RDF>
</x:xmpmeta>
                                                                                                    
                                                                                                    
                                                                                                    
                                                                                                    
                                                                                                    
                                                                                                    
                                                                                                    
                                                                                                    
                                                                                                    
                                                                                                    
                                                                                                    
                                                                                                    
                                                                                                    
                                                                                                    
                                                                                                    
                                                                                                    
                                                                                                    
                                                                                                    
                                                                                                    
                                                                                                    
                           
<?xpacket end="w"?>
	</metadata>
<g>
	<g id="Doc_-_blank">
		<rect style="&st0;" width="40" height="40"/>
		<path style="&st1;" d="M18.7,10.5h1.7c0.6,0,1.2,0,1.8,0c0.5,0,0.9-0.2,1.1-0.7c0.2-0.4,0-0.9-0.4-1.1c-0.1,0-0.2-0.1-0.3-0.1
			c-0.3-0.1-0.4-0.4-0.1-0.6c0.3-0.2,0.5-0.3,0.8-0.4c0.7-0.2,1.4-0.1,2,0.3C25.4,8,25.5,8,25.6,8.1c0.2,0.2,0.2,0.4-0.1,0.5
			c-0.2,0.1-0.3,0.1-0.4,0.2c-0.3,0.2-0.5,0.6-0.3,1s0.5,0.6,0.9,0.6h3.4h0.3v0.3c0,1.1,0,2.3,0,3.4c0,0.1,0,0.2,0,0.3
			c-0.1,0.1-0.2,0.2-0.3,0.3c-0.2,0-0.4-0.1-0.4-0.2l0,0c0-0.1-0.1-0.2-0.1-0.3c-0.1-0.4-0.6-0.6-1-0.5c-0.1,0-0.3,0.1-0.4,0.2
			c-0.4,0.4-0.6,0.9-0.6,1.5c-0.2,0.8,0,1.6,0.5,2.2c0.1,0.2,0.3,0.3,0.6,0.4c0.3,0.1,0.7,0,0.8-0.3v-0.1c0-0.1,0.1-0.3,0.2-0.4
			S28.9,17,29,17c0.1,0,0.2,0.1,0.3,0.2c0.1,0.1,0.1,0.2,0.1,0.3c0,1.2,0,2.3,0,3.5v0.1h-0.3c-1.1,0-2.2,0-3.3,0
			c-0.2,0-0.4,0-0.6,0.1c-0.3,0.1-0.6,0.4-0.6,0.8s0.2,0.7,0.5,0.9c0.1,0,0.2,0.1,0.2,0.1c0.3,0.1,0.4,0.4,0.1,0.6S24.7,24,24.3,24
			c-0.6,0.1-1.2,0-1.8-0.3c-0.1,0-0.2-0.1-0.2-0.2c-0.2-0.2-0.2-0.4,0.1-0.5c0.3-0.1,0.6-0.3,0.7-0.6c0.2-0.5,0-1-0.5-1.2
			c-0.1-0.1-0.2-0.1-0.4-0.1c-1.2,0-2.4,0-3.5,0c-0.3,0-0.3,0-0.3-0.3c0-1.1,0-2.2,0-3.3c0-0.1,0-0.3,0.1-0.4s0.2-0.2,0.3-0.2
			c0.1,0,0.3,0.1,0.4,0.2s0.1,0.2,0.1,0.3c0.1,0.4,0.5,0.6,0.9,0.5c0.1,0,0.3-0.1,0.4-0.3c0.2-0.3,0.4-0.6,0.5-0.9
			c0.3-0.9,0.2-1.8-0.2-2.6c-0.2-0.3-0.5-0.6-0.8-0.6c-0.3-0.1-0.6,0.1-0.7,0.4c-0.1,0.2-0.1,0.3-0.2,0.4c-0.1,0.1-0.2,0.2-0.3,0.2
			c-0.1,0-0.2-0.1-0.3-0.2c-0.1-0.1-0.1-0.2-0.1-0.3C18.7,13,18.7,11.8,18.7,10.5z"/>
		<path style="&st1;" d="M7.4,21.3c0-1.2,0-2.3,0-3.5c0-0.2,0-0.3-0.1-0.5c-0.1-0.4-0.4-0.7-0.8-0.7c-0.4-0.1-0.8,0.2-1,0.6
			l-0.1,0.2c-0.1,0.3-0.3,0.4-0.5,0.1s-0.3-0.6-0.4-0.9c-0.2-0.7-0.1-1.4,0.3-2c0-0.1,0.1-0.2,0.2-0.3c0.2-0.2,0.4-0.2,0.5,0.1
			s0.3,0.6,0.6,0.7c0.5,0.2,1-0.1,1.2-0.6c0-0.1,0.1-0.2,0-0.3c0-1.2,0-2.3,0-3.5v-0.3c0.1,0,0.1,0,0.2,0c1.1,0,2.3,0,3.4,0
			c0.1,0,0.3,0,0.4,0.1c0.1,0.1,0.2,0.2,0.2,0.3s-0.1,0.3-0.2,0.4c-0.1,0.1-0.2,0.1-0.3,0.1c-0.4,0.1-0.6,0.5-0.5,0.9
			c0,0.2,0.1,0.3,0.3,0.4c0.3,0.2,0.6,0.4,0.9,0.5c0.8,0.3,1.7,0.3,2.5-0.1c0.4-0.1,0.7-0.5,0.8-0.9c0.1-0.3-0.1-0.7-0.4-0.8
			c-0.1-0.1-0.3-0.1-0.4-0.2c-0.2-0.1-0.3-0.2-0.3-0.4s0.1-0.3,0.3-0.4c0.1,0,0.2,0,0.2,0c1.2,0,2.4,0,3.5,0H18c0,0.1,0,0.2,0,0.3
			c0,1.1,0,2.2,0,3.3c0,0.2,0.1,0.4,0.1,0.6c0.1,0.3,0.4,0.5,0.8,0.5s0.7-0.2,0.9-0.5c0.1-0.1,0.1-0.3,0.2-0.5
			c0-0.1,0.2-0.1,0.2-0.1c0.2,0.1,0.3,0.2,0.4,0.3c0.5,0.9,0.5,1.9,0,2.8c-0.1,0.1-0.2,0.2-0.3,0.2c-0.1,0.1-0.2,0.1-0.3,0
			c0,0,0-0.1-0.1-0.1c0-0.1-0.1-0.2-0.1-0.3c-0.2-0.4-0.6-0.6-1-0.5c-0.5,0.1-0.8,0.5-0.8,1c0,0.7,0,1.3,0,2c0,0.5,0,1,0,1.4
			c0,0.2,0,0.3-0.2,0.3c-1.2,0-2.3,0-3.5,0c-0.3,0-0.5-0.1-0.5-0.4c0-0.2,0.1-0.4,0.3-0.4c0.4-0.1,0.7-0.3,0.7-0.7
			c0-0.4-0.1-0.8-0.5-1c-1-0.6-2.7-0.7-3.6,0.1c-0.2,0.1-0.3,0.3-0.4,0.5c-0.2,0.3-0.1,0.7,0.3,0.9c0.1,0,0.1,0.1,0.2,0.1
			c0.2,0.1,0.4,0.1,0.5,0.3c0.1,0.1,0.1,0.3-0.1,0.4h-0.1c-0.1,0-0.2,0.1-0.3,0.1H7.2C7.5,21.3,7.5,21.3,7.4,21.3z"/>
		<path style="&st1;" d="M7.5,32.5V31c0-0.7,0-1.3,0-2v-0.2c0-0.3,0.1-0.5,0.3-0.5c0.2,0,0.4,0.1,0.5,0.4c0,0.1,0,0.1,0.1,0.2
			c0.1,0.4,0.6,0.6,1,0.5c0.1,0,0.2-0.1,0.3-0.2c0.4-0.4,0.6-0.9,0.7-1.4c0.2-0.7,0-1.5-0.3-2.2c-0.2-0.3-0.5-0.5-0.8-0.6
			s-0.6,0.1-0.7,0.3c-0.1,0.2-0.1,0.3-0.2,0.5C8.3,26,8.2,26.1,8,26c-0.1-0.1-0.3-0.1-0.3-0.3c-0.1-0.1-0.1-0.2-0.1-0.3
			c0-1.2,0-2.3,0-3.5v-0.1h0.3c1.1,0,2.2,0,3.2,0c0.2,0,0.4,0,0.6-0.1c0.3-0.1,0.5-0.4,0.5-0.8S12,20.2,11.7,20l-0.3-0.1
			c-0.3-0.1-0.4-0.4-0.1-0.6c0.2-0.2,0.5-0.3,0.8-0.4c0.7-0.2,1.5-0.1,2.1,0.2c0.1,0,0.2,0.1,0.2,0.2c0.2,0.2,0.2,0.4-0.1,0.5
			c-0.4,0.1-0.7,0.3-0.8,0.7c-0.1,0.5,0.2,1,0.7,1.1c0.1,0,0.2,0,0.3,0c1.1,0,2.3,0,3.4,0h0.3c0,0.1,0,0.1,0,0.2c0,1.2,0,2.4,0,3.6
			c0,0.2-0.1,0.3-0.2,0.5c-0.1,0.1-0.4,0-0.5-0.1s-0.1-0.2-0.2-0.4c-0.1-0.4-0.5-0.6-1-0.5c-0.2,0-0.3,0.1-0.4,0.3
			c-0.3,0.4-0.6,0.9-0.6,1.4c-0.2,0.7,0,1.5,0.3,2.2c0.2,0.3,0.5,0.6,0.9,0.6c0.3,0,0.5-0.1,0.6-0.4c0.1-0.2,0.1-0.3,0.2-0.4
			s0.2-0.2,0.4-0.2c0.1,0,0.2,0.1,0.3,0.2c0.1,0.1,0.1,0.2,0.1,0.3c0,1.2,0,2.3,0,3.5v0.1h-0.3c-1.1,0-2.2,0-3.3,0
			c-0.2,0-0.5,0.1-0.7,0.2c-0.3,0.1-0.5,0.4-0.5,0.8c0,0.3,0.2,0.7,0.5,0.8c0.1,0,0.2,0.1,0.3,0.1c0.3,0.1,0.4,0.4,0.1,0.6
			c-0.3,0.2-0.6,0.3-0.9,0.4c-0.7,0.2-1.4,0.1-2-0.3c-0.1,0-0.2-0.1-0.2-0.2c-0.2-0.3-0.2-0.4,0.1-0.5c0.4-0.1,0.7-0.3,0.8-0.7
			c0.1-0.5-0.2-1-0.6-1.1c-0.1,0-0.2,0-0.3,0c-1.2,0-2.3,0-3.5,0L7.5,32.5z"/>
	</g>
	<g id="Doc_-_collection">
		<polygon style="&st2;" points="40,0 40,19.1 21.2,0 		"/>
		<path style="&st1;" d="M35.1,4.3l-3.8,3.8l-0.6-0.6c0.1-0.2,1.7-4.7,2.4-5.2C33.6,1.8,34.9,4,35.1,4.3L35.1,4.3z"/>
		<path style="&st1;" d="M37.2,6.3L37.2,6.3L37.2,6.3c-0.2,0.2-0.3,0.3-0.5,0.4h-0.1c0,0,0,0-0.1,0l0,0c-1.4,0.7-2.9,1.3-4.4,1.9H32
			l-0.4-0.4l-0.1-0.1l-0.2-0.2l0,0l1.8-1.8l1.5-1.5l0.5-0.5l0,0l0,0c0.1,0,0.4,0.2,0.7,0.4C36.5,5.2,37.4,5.9,37.2,6.3z"/>
		<circle style="&st1;" cx="35.1" cy="4.3" r="2.9"/>
		<path style="&st2;" d="M35.3,4.6l-3.8,3.8l-0.1-0.1C31.2,8.2,31.1,8,31,7.9l0,0l1.8-1.8l2-2L35,4.3l0,0L35.3,4.6z"/>
		<circle style="&st2;" cx="35.1" cy="4.3" r="0.8"/>
	</g>
</g>
</svg>
