<svg id="Layer_1" data-name="Layer 1" xmlns="http://www.w3.org/2000/svg" viewBox="0 0 40 40"><g id="Navigation_-_delegation" data-name="Navigation - delegation"><circle cx="20" cy="20" r="20" style="fill:#c66e4e"/><path d="M24,12a3.92,3.92,0,0,1-.65,2.18,3.29,3.29,0,0,1-.61.73l-.19.17a3.65,3.65,0,0,1-.62.4,4,4,0,0,1-3.83,0,3.65,3.65,0,0,1-.62-.4,1.12,1.12,0,0,1-.2-.18,4.65,4.65,0,0,1-.61-.72A4,4,0,1,1,24,12Z" style="fill:#fff"/><path d="M13.09,15.46a4.58,4.58,0,0,1,1.11.6,5.93,5.93,0,0,0-.43.56,7,7,0,0,0-1.26,3v.31c0,.27,0,.53-.06.8v4.81a2.57,2.57,0,0,1-.4.08H7.2v-6A4.39,4.39,0,0,1,10,15.51l-.16-.11a2.89,2.89,0,1,1,4-.71l0,0a2.75,2.75,0,0,1-.68.68Z" style="fill:#fff"/><path d="M32.8,19.6v6H28a2.76,2.76,0,0,1-.4-.06V20.73a5.29,5.29,0,0,0-.06-.8,1.61,1.61,0,0,0,0-.31,7.18,7.18,0,0,0-1.26-3,6,6,0,0,0-.44-.56,4.31,4.31,0,0,1,1-.57.91.91,0,0,1-.16-.11,2.89,2.89,0,1,1,4-.71l0,0a3.13,3.13,0,0,1-.68.68l-.09.06A4.41,4.41,0,0,1,32.8,19.6Z" style="fill:#fff"/><path d="M12.4,25.52v.08H12A2.57,2.57,0,0,0,12.4,25.52Z" style="fill:#fff"/><path d="M14.24,19.6a5.81,5.81,0,0,1,.87-1.85c.09-.13.18-.25.28-.37a6,6,0,0,1,2.7-1.87,4,4,0,0,0,3.83,0,6,6,0,0,1,2.69,1.87c.1.12.19.24.28.37a5.81,5.81,0,0,1,.87,1.85l.18,1v8.7H14V20.73Z" style="fill:#fff"/></g></svg>