<?xml version="1.0" encoding="utf-8"?>
<!-- Generator: Adobe Illustrator 26.0.1, SVG Export Plug-In . SVG Version: 6.00 Build 0)  -->
<svg version="1.1" id="Doc_-_blank" xmlns="http://www.w3.org/2000/svg" xmlns:xlink="http://www.w3.org/1999/xlink" x="0px"
	 y="0px" viewBox="0 0 40 40" style="enable-background:new 0 0 40 40;" xml:space="preserve">
<rect y="0" style="fill:#E0BC80;" width="40" height="40"/>
<path style="fill:#FFFFFF;" d="M19.8,9.6h1.7c0.6,0,1.2,0,1.8,0c0.5,0,0.9-0.2,1.1-0.7c0.2-0.4,0-0.9-0.4-1.1
	c-0.1,0-0.2-0.1-0.3-0.1c-0.3-0.1-0.4-0.4-0.1-0.6c0.2-0.2,0.5-0.3,0.8-0.4c0.7-0.2,1.4-0.1,2,0.3c0.1,0.1,0.2,0.1,0.3,0.2
	c0.2,0.2,0.2,0.4-0.1,0.5c-0.2,0.1-0.3,0.1-0.4,0.2c-0.3,0.2-0.5,0.6-0.3,1c0.2,0.4,0.5,0.7,1,0.6h3.4h0.3v0.3c0,1.1,0,2.3,0,3.4
	c0,0.1,0,0.2,0,0.3c-0.1,0.1-0.2,0.2-0.3,0.3c-0.2,0-0.3,0-0.4-0.2c0-0.1-0.1-0.2-0.1-0.3c-0.1-0.4-0.6-0.6-1-0.5
	c-0.1,0-0.3,0.1-0.4,0.2c-0.4,0.4-0.6,0.9-0.6,1.5c-0.2,0.8,0,1.6,0.5,2.2c0.2,0.2,0.3,0.3,0.6,0.4c0.3,0.1,0.7,0,0.8-0.3
	c0,0,0-0.1,0-0.1c0-0.1,0.1-0.3,0.2-0.4c0.1-0.1,0.2-0.2,0.3-0.2c0.1,0,0.2,0.1,0.3,0.2c0.1,0.1,0.1,0.2,0.1,0.3c0,1.2,0,2.3,0,3.5
	c0,0,0,0.1,0,0.1h-0.3c-1.1,0-2.2,0-3.3,0c-0.2,0-0.4,0-0.6,0.1c-0.3,0.1-0.6,0.4-0.6,0.8c0,0.4,0.2,0.7,0.5,0.9
	c0.1,0,0.2,0.1,0.2,0.1c0.3,0.1,0.4,0.4,0.1,0.6c-0.3,0.2-0.7,0.4-1.1,0.4c-0.6,0.1-1.2,0-1.8-0.3c-0.1,0-0.2-0.1-0.3-0.2
	c-0.2-0.2-0.2-0.4,0.1-0.5c0.3-0.1,0.6-0.3,0.7-0.6c0.2-0.4,0-1-0.5-1.2c-0.1-0.1-0.2-0.1-0.4-0.1c-1.2,0-2.4,0-3.5,0
	c-0.3,0-0.3,0-0.3-0.3c0-1.1,0-2.2,0-3.3c0-0.1,0-0.3,0.1-0.4c0.1-0.1,0.2-0.2,0.3-0.2c0.1,0,0.3,0.1,0.4,0.2
	c0.1,0.1,0.1,0.2,0.1,0.3c0.1,0.4,0.5,0.6,0.9,0.5c0.1,0,0.3-0.1,0.4-0.3c0.2-0.3,0.4-0.6,0.5-0.9c0.3-0.9,0.2-1.8-0.2-2.6
	c-0.2-0.3-0.5-0.6-0.8-0.6c-0.3-0.1-0.6,0.1-0.7,0.4c-0.1,0.2-0.1,0.3-0.2,0.4c-0.1,0.1-0.2,0.2-0.3,0.2c-0.1,0-0.2-0.1-0.3-0.2
	c0-0.1-0.1-0.2-0.1-0.3C19.8,12.1,19.8,10.9,19.8,9.6z"/>
<path style="fill:#FFFFFF;" d="M8.5,20.4c0-1.2,0-2.3,0-3.5c0-0.2,0-0.3-0.1-0.5c-0.1-0.4-0.4-0.7-0.8-0.7c-0.4-0.1-0.8,0.2-1,0.6
	l-0.1,0.2c-0.1,0.3-0.3,0.4-0.5,0.1c-0.2-0.3-0.3-0.6-0.4-0.9c-0.2-0.7-0.1-1.4,0.3-2c0-0.1,0.1-0.2,0.2-0.3
	c0.2-0.2,0.4-0.2,0.5,0.1c0.1,0.3,0.3,0.6,0.6,0.7c0.5,0.2,1-0.1,1.2-0.6c0-0.1,0.1-0.2,0-0.3c0-1.2,0-2.3,0-3.5V9.6
	c0.1,0,0.1,0,0.2,0c1.1,0,2.3,0,3.4,0c0.1,0,0.3,0,0.4,0.1c0.1,0.1,0.2,0.2,0.2,0.3c0,0.1-0.1,0.3-0.2,0.4c-0.1,0.1-0.2,0.1-0.3,0.1
	c-0.4,0.1-0.6,0.6-0.5,1c0,0.1,0.1,0.2,0.2,0.3c0.3,0.2,0.6,0.4,0.9,0.5c0.8,0.3,1.7,0.3,2.4-0.1c0.4-0.1,0.7-0.5,0.8-0.9
	c0.1-0.3-0.1-0.7-0.4-0.8c-0.1-0.1-0.3-0.1-0.4-0.2c-0.2-0.1-0.3-0.2-0.3-0.4c0-0.2,0.1-0.3,0.3-0.4c0.1,0,0.2,0,0.2,0l3.5,0h0.1
	c0,0.1,0,0.2,0,0.3c0,1.1,0,2.2,0,3.3c0,0.2,0.1,0.4,0.1,0.6c0.1,0.3,0.4,0.5,0.7,0.5c0.4,0,0.7-0.2,0.9-0.5
	c0.1-0.1,0.1-0.3,0.2-0.4c0-0.1,0.2-0.1,0.2-0.1c0.2,0.1,0.3,0.2,0.4,0.3c0.5,0.9,0.5,1.9,0,2.8c-0.1,0.1-0.2,0.2-0.3,0.2
	c-0.1,0.1-0.2,0.1-0.3,0c0,0,0-0.1-0.1-0.1c0-0.1-0.1-0.2-0.1-0.3c-0.2-0.4-0.6-0.6-1-0.5c-0.5,0.1-0.8,0.5-0.8,1c0,0.7,0,1.3,0,2
	c0,0.5,0,1,0,1.4c0,0.2,0,0.3-0.2,0.3c-1.2,0-2.3,0-3.5,0c-0.3,0-0.5-0.1-0.5-0.4c0-0.2,0.1-0.4,0.3-0.4c0.4-0.1,0.7-0.3,0.7-0.7
	c0-0.4-0.1-0.8-0.5-1c-1-0.6-2.7-0.7-3.6,0.1c-0.2,0.1-0.3,0.3-0.4,0.5c-0.2,0.3-0.1,0.7,0.3,0.9c0.1,0,0.1,0.1,0.2,0.1
	c0.2,0.1,0.4,0.1,0.5,0.3c0.1,0.1,0.1,0.3-0.1,0.4c0,0,0,0-0.1,0c-0.1,0-0.2,0.1-0.3,0.1l-3.6,0C8.6,20.4,8.6,20.4,8.5,20.4z"/>
<path style="fill:#FFFFFF;" d="M8.6,31.6v-1.5c0-0.7,0-1.3,0-2v-0.2c0-0.3,0.1-0.5,0.3-0.5s0.4,0.1,0.5,0.4c0,0.1,0,0.1,0.1,0.2
	c0.1,0.4,0.6,0.6,1,0.5c0.1,0,0.2-0.1,0.3-0.2c0.4-0.4,0.6-0.9,0.6-1.4c0.2-0.7,0-1.5-0.3-2.2c-0.2-0.3-0.5-0.6-0.8-0.6
	c-0.3-0.1-0.6,0.1-0.7,0.3c-0.1,0.2-0.1,0.3-0.2,0.5C9.3,25,9.2,25.1,9,25c-0.1-0.1-0.3-0.1-0.3-0.3c-0.1-0.1-0.1-0.2-0.1-0.3
	c0-1.2,0-2.3,0-3.5c0,0,0-0.1,0-0.1h0.3c1.1,0,2.2,0,3.2,0c0.2,0,0.4,0,0.6-0.1c0.3-0.1,0.5-0.4,0.5-0.8c0-0.4-0.2-0.7-0.5-0.9
	c-0.1,0-0.2-0.1-0.3-0.1c-0.3-0.1-0.4-0.4-0.1-0.6c0.2-0.2,0.5-0.3,0.8-0.3c0.7-0.2,1.5-0.1,2.1,0.3c0.1,0,0.2,0.1,0.2,0.2
	c0.2,0.2,0.2,0.4-0.1,0.5c-0.4,0.1-0.7,0.3-0.8,0.7c-0.1,0.5,0.2,1,0.7,1.1c0.1,0,0.2,0,0.3,0c1.1,0,2.3,0,3.4,0h0.3
	c0,0.1,0,0.1,0,0.2c0,1.2,0,2.4,0,3.6c0,0.2-0.1,0.3-0.2,0.5c-0.1,0.1-0.4,0-0.5-0.1c-0.1-0.1-0.1-0.2-0.2-0.4
	c-0.1-0.4-0.6-0.6-1-0.5c-0.1,0-0.3,0.1-0.4,0.3c-0.3,0.4-0.6,0.9-0.6,1.4c-0.2,0.7,0,1.5,0.3,2.2c0.2,0.3,0.5,0.6,0.9,0.6
	c0.3,0,0.5-0.1,0.6-0.4c0.1-0.2,0.1-0.3,0.2-0.4c0.1-0.1,0.2-0.2,0.4-0.2c0.1,0,0.2,0.1,0.3,0.2c0.1,0.1,0.1,0.2,0.1,0.3
	c0,1.2,0,2.3,0,3.5c0,0,0,0.1,0,0.1h-0.3c-1.1,0-2.2,0-3.3,0c-0.2,0-0.5,0.1-0.7,0.2c-0.3,0.1-0.5,0.4-0.5,0.8
	c0,0.3,0.2,0.7,0.5,0.8c0.1,0,0.2,0.1,0.3,0.1c0.3,0.1,0.4,0.4,0.1,0.6c-0.3,0.2-0.6,0.3-0.9,0.4c-0.7,0.2-1.4,0.1-2-0.3
	c-0.1,0-0.2-0.1-0.2-0.2c-0.2-0.3-0.2-0.4,0.1-0.5c0.4-0.1,0.7-0.3,0.8-0.7c0.1-0.5-0.2-1-0.6-1.1c-0.1,0-0.2,0-0.3,0
	c-1.2,0-2.3,0-3.5,0C8.8,31.6,8.7,31.6,8.6,31.6z"/>
</svg>
