<svg id="Layer_1" data-name="Layer 1" xmlns="http://www.w3.org/2000/svg" viewBox="0 0 40 40"><g id="Layer_2" data-name="Layer 2"><circle cx="20" cy="20" r="20" style="fill:#c66e4e"/><polygon points="33.56 29.1 27.72 34.94 25.45 32.68 29.03 29.1 25.45 25.52 27.72 23.25 28 23.54 31.26 26.8 32.4 27.94 33.56 29.1" style="fill:#fff"/><path d="M18.4,29.2a4.26,4.26,0,0,1-.08.8,4.37,4.37,0,0,1-.25.8L18,31a3.33,3.33,0,0,1-.38.62,4,4,0,1,1-6.4-4.8A3.89,3.89,0,0,1,12,26a4,4,0,0,1,1.6-.73,3.92,3.92,0,0,1,3.59,1.07,3.39,3.39,0,0,1,.4.45,3.77,3.77,0,0,1,.46.8,1.76,1.76,0,0,1,.09.2,4.37,4.37,0,0,1,.17.62A5,5,0,0,1,18.4,29.2Z" style="fill:#fff"/><path d="M19.13,28.4a3.78,3.78,0,0,0-.21-.8h-.86a3.77,3.77,0,0,0-.46-.8,4.38,4.38,0,0,0-.41-.45,4.18,4.18,0,0,0-1.6-1,4,4,0,1,0,2,6.22A3.81,3.81,0,0,0,18,31c0-.07.07-.14.1-.2h.85a3.71,3.71,0,0,0,.21-.81,4.25,4.25,0,0,0,.07-.8A5.12,5.12,0,0,0,19.13,28.4Zm-2.61,3.2a3.21,3.21,0,0,1-4.23,0,2,2,0,0,1-.29-.29,3.18,3.18,0,0,1,0-4.22,2.65,2.65,0,0,1,.29-.29,3.33,3.33,0,0,1,1.31-.7,3.08,3.08,0,0,1,.8-.1,3.2,3.2,0,0,1,2.11.8,2.79,2.79,0,0,1,.37.4,2.21,2.21,0,0,1,.28.4,2.65,2.65,0,0,1,.23.48,2.81,2.81,0,0,1,.1.31,3.58,3.58,0,0,1,.1.8,3.58,3.58,0,0,1-.34,1.44l-.09.16A3.37,3.37,0,0,1,16.52,31.6Z" style="fill:#fff"/><rect x="12.8" y="27.6" width="18.8" height="3.2" style="fill:#fff"/><path d="M31.26,26.8H26.74l.8.8H18.06a3.77,3.77,0,0,0-.46-.8H12v4.8h5.59A3.26,3.26,0,0,0,18,31l.1-.2h9.27l-.8.8h4.51l1.34-1.34V27.94ZM30.8,30H13.6V28.4H30.8Z" style="fill:#fff"/><path d="M28.2,8.4h0Z" style="fill:#fff"/><path d="M31.2,11.4a3,3,0,0,1-3,3H28a2.9,2.9,0,0,1-1.6-.59,2.93,2.93,0,0,1-.85-1,2.84,2.84,0,0,1-.29-.8H14.73a2.86,2.86,0,0,1-.3.8A3,3,0,0,1,12,14.4h-.2a3,3,0,0,1-1-5.82l.8-.17h16.8l.8.17A3,3,0,0,1,31.2,11.4Z" style="fill:#fff"/><path d="M28.4,8.4Z" style="fill:#fff"/><path d="M13.6,14.76v8.91a4.79,4.79,0,0,0-1.6.57v-9A3.91,3.91,0,0,0,13.6,14.76Z" style="fill:#fff"/><path d="M17.19,12.8V24.51a4.72,4.72,0,0,0-1.6-.76V12.8Z" style="fill:#fff"/><rect x="19.2" y="12.8" width="1.6" height="13.2" style="fill:#fff"/><rect x="22.8" y="12.8" width="1.6" height="13.2" style="fill:#fff"/><path d="M28,15.2V21l-1.6,1.59V14.76A3.86,3.86,0,0,0,28,15.2Z" style="fill:#fff"/><circle cx="28.2" cy="11.4" r="1.39" style="fill:#c66e4e"/><circle cx="11.8" cy="11.4" r="1.39" style="fill:#c66e4e"/></g></svg>